<?xml version="1.0" encoding="utf-8"?>
<!-- Generator: Adobe Illustrator 23.1.0, SVG Export Plug-In . SVG Version: 6.00 Build 0)  -->
<svg version="1.1" id="Layer_1" xmlns="http://www.w3.org/2000/svg" xmlns:xlink="http://www.w3.org/1999/xlink" x="0px" y="0px"
	 viewBox="0 0 512 512" style="enable-background:new 0 0 512 512;" xml:space="preserve">
<style type="text/css">
	.st0{fill:#4CAF50;}
</style>
<g id="Blockchain">
	<path class="st0" d="M492,190.9c2.5-1.4,4-4.1,4-6.9v-64c0-2.9-1.5-5.5-4-6.9l-56-32c-2.5-1.4-5.5-1.4-7.9,0l-56,32
		c-2.5,1.4-4.1,4.1-4.1,6.9v19.1l-48-24V56c0-2.9-1.5-5.5-4-6.9l-56-32c-2.5-1.4-5.5-1.4-7.9,0l-56,32c-2.5,1.4-4.1,4.1-4.1,6.9
		v59.1l-48,24V120c0-2.9-1.5-5.5-4-6.9l-56-32c-2.5-1.4-5.5-1.4-7.9,0l-56,32c-2.5,1.4-4.1,4.1-4.1,6.9v64c0,2.9,1.5,5.5,4,6.9
		l52,29.7v70.7L20,321c-2.5,1.4-4,4.1-4,6.9v64c0,2.9,1.5,5.5,4,6.9l56,32c2.5,1.4,5.5,1.4,7.9,0l51.8-29.6l56.2,35.1V456
		c0,2.9,1.5,5.5,4,6.9l56,32c2.5,1.4,5.5,1.4,7.9,0l56-32c2.5-1.4,4.1-4.1,4.1-6.9v-19.6l56.2-35.1l51.8,29.6c2.5,1.4,5.5,1.4,7.9,0
		l56-32c2.5-1.4,4-4.1,4-6.9v-64c0-2.9-1.5-5.5-4-6.9l-52-29.7v-70.7L492,190.9z M440,202.2v-45.6l40-22.9v45.6L440,202.2z
		 M432,350.8L392.1,328l39.9-22.8l39.9,22.8L432,350.8z M384,133.8l40,22.9v45.6l-40-22.9V133.8z M432,97.2l39.9,22.8L432,142.8
		L392.1,120L432,97.2z M256,414.8L216.1,392l39.9-22.8l39.9,22.8L256,414.8z M208,237.8l40,22.9v45.6l-40-22.9V237.8z M264,260.6
		l40-22.9v45.6l-40,22.9V260.6z M256,246.8L216.1,224l39.9-22.8l39.9,22.8L256,246.8z M208,69.8l40,22.9v45.6l-40-22.9V69.8z
		 M264,92.6l40-22.9v45.6l-40,22.9V92.6z M256,33.2L295.9,56L256,78.8L216.1,56L256,33.2z M88,156.6l40-22.9v45.6l-40,22.9V156.6z
		 M80,97.2l39.9,22.8L80,142.8L40.1,120L80,97.2z M32,133.8l40,22.9v45.6l-40-22.9V133.8z M80,350.8L40.1,328L80,305.2l39.9,22.8
		L80,350.8z M32,341.8l40,22.9v45.6l-40-22.9V341.8z M88,410.2v-45.6l40-22.9v45.6L88,410.2z M144,387.6V328c0-2.9-1.5-5.5-4-6.9
		l-52-29.7v-70.7l52-29.7c2.5-1.4,4-4.1,4-6.9V157l55.8-27.9l48.2,27.6v30.7l-52,29.7c-2.5,1.4-4,4.1-4,6.9v64c0,2.9,1.5,5.5,4,6.9
		l52,29.7v30.7L196,385c-2.5,1.4-4,4.1-4,6.9v25.6L144,387.6z M208,405.8l40,22.9v45.6l-40-22.9V405.8z M264,474.2v-45.6l40-22.9
		v45.6L264,474.2z M316,385.1l-52-29.7v-30.7l52-29.7c2.5-1.4,4-4.1,4-6.9v-64c0-2.9-1.5-5.5-4-6.9l-52-29.7v-30.7l48.2-27.6
		l55.8,27.9V184c0,2.9,1.5,5.5,4,6.9l52,29.7v70.7L372,321c-2.5,1.4-4,4.1-4,6.9v59.6l-48,30V392C320,389.1,318.5,386.5,316,385.1z
		 M384,341.8l40,22.9v45.6l-40-22.9V341.8z M440,410.2v-45.6l40-22.9v45.6L440,410.2z"/>
</g>
</svg>
