<?xml version="1.0" encoding="utf-8"?>
<!-- Generator: Adobe Illustrator 23.1.0, SVG Export Plug-In . SVG Version: 6.00 Build 0)  -->
<svg version="1.1" id="Layer_1" xmlns="http://www.w3.org/2000/svg" xmlns:xlink="http://www.w3.org/1999/xlink" x="0px" y="0px"
	 viewBox="0 0 512 512" style="enable-background:new 0 0 512 512;" xml:space="preserve">
<style type="text/css">
	.st0{fill:#4CAF50;}
	.st1{fill:url(#SVGID_1_);}
</style>
<path class="st0" d="M496,280c4.4,0,8-3.6,8-8V144c0-4.4-3.6-8-8-8h-8V48c0-22.1-17.9-40-40-40h-32c-22.1,0-40,17.9-40,40v88h-8
	c-4.4,0-8,3.6-8,8v128c0,4.4,3.6,8,8,8h56v128h-24c-22.1,0-40,17.9-40,40h-32c0-22.1-17.9-40-40-40h-24V280h56c4.4,0,8-3.6,8-8V144
	c0-4.4-3.6-8-8-8h-8V48c0-22.1-17.9-40-40-40h-32c-22.1,0-40,17.9-40,40v88h-8c-4.4,0-8,3.6-8,8v128c0,4.4,3.6,8,8,8h56v128h-24
	c-22.1,0-40,17.9-40,40h-32c0-22.1-17.9-40-40-40H88V280h56c4.4,0,8-3.6,8-8V144c0-4.4-3.6-8-8-8h-8V48c0-22.1-17.9-40-40-40H64
	C41.9,8,24,25.9,24,48v88h-8c-4.4,0-8,3.6-8,8v128c0,4.4,3.6,8,8,8h56v128H48c-22.1,0-40,17.9-40,40v16c0,22.1,17.9,40,40,40h64
	c22.1,0,40-17.9,40-40h32c0,22.1,17.9,40,40,40h64c22.1,0,40-17.9,40-40h32c0,22.1,17.9,40,40,40h64c22.1,0,40-17.9,40-40v-16
	c0-22.1-17.9-40-40-40h-24V280H496z M216,48c0-13.3,10.7-24,24-24h32c13.3,0,24,10.7,24,24v88h-80V48z M200,264V152h112v112h-48v-32
	c0-0.5-0.1-0.9-0.3-1.4c12.6-4.3,19.3-17.9,15-30.4c-4.3-12.6-17.9-19.3-30.4-15s-19.3,17.9-15,30.4c2.4,7.1,7.9,12.6,15,15
	c-0.1,0.5-0.2,0.9-0.3,1.4v32H200z M256,216c-4.4,0-8-3.6-8-8s3.6-8,8-8s8,3.6,8,8S260.4,216,256,216z M40,48c0-13.3,10.7-24,24-24
	h32c13.3,0,24,10.7,24,24v88H40V48z M24,264V152h112v112H88v-32c0-0.5-0.1-0.9-0.3-1.4c12.6-4.3,19.3-17.9,15-30.4
	s-17.9-19.3-30.4-15s-19.3,17.9-15,30.4c2.4,7.1,7.9,12.6,15,15c-0.1,0.5-0.2,0.9-0.3,1.4v32H24z M80,216c-4.4,0-8-3.6-8-8
	s3.6-8,8-8s8,3.6,8,8S84.4,216,80,216z M112,488H48c-13.3,0-24-10.7-24-24l0,0v-16c0-13.3,10.7-24,24-24h64c13.3,0,24,10.7,24,24
	h-24c-4.4,0-8,3.6-8,8s3.6,8,8,8h24C136,477.3,125.3,488,112,488L112,488z M288,488h-64c-13.3,0-24-10.7-24-24l0,0h24
	c4.4,0,8-3.6,8-8s-3.6-8-8-8h-24c0-13.3,10.7-24,24-24h64c13.3,0,24,10.7,24,24h-24c-4.4,0-8,3.6-8,8s3.6,8,8,8h24
	C312,477.3,301.3,488,288,488L288,488z M464,424c13.3,0,24,10.7,24,24v16c0,13.3-10.7,24-24,24l0,0h-64c-13.3,0-24-10.7-24-24l0,0
	h24c4.4,0,8-3.6,8-8s-3.6-8-8-8h-24c0-13.3,10.7-24,24-24H464z M392,48c0-13.3,10.7-24,24-24h32c13.3,0,24,10.7,24,24v88h-80V48z
	 M376,264V152h112v112h-48v-32c0-0.5-0.1-0.9-0.3-1.4c12.6-4.3,19.3-17.9,15-30.4c-4.3-12.6-17.9-19.3-30.4-15s-19.3,17.9-15,30.4
	c2.4,7.1,7.9,12.6,15,15c-0.1,0.5-0.2,0.9-0.3,1.4v32H376z M432,216c-4.4,0-8-3.6-8-8s3.6-8,8-8s8,3.6,8,8S436.4,216,432,216z"/>
<linearGradient id="SVGID_1_" gradientUnits="userSpaceOnUse" x1="-59.963" y1="119.463" x2="2.543" y2="56.957" gradientTransform="matrix(8 0 0 8 686 -278)">
	<stop  offset="0" style="stop-color:#003F8A"/>
	<stop  offset="0.518" style="stop-color:#00D7DF"/>
	<stop  offset="1" style="stop-color:#006DF0"/>
</linearGradient>
<path class="st1" d="M424,464h8c4.4,0,8-3.6,8-8s-3.6-8-8-8h-8c-4.4,0-8,3.6-8,8S419.6,464,424,464z"/>
</svg>
