<?xml version="1.0" encoding="utf-8"?>
<!-- Generator: Adobe Illustrator 23.1.0, SVG Export Plug-In . SVG Version: 6.00 Build 0)  -->
<svg version="1.1" id="b847c0d8-de26-4ae3-b269-ef35a8ef771f"
	 xmlns="http://www.w3.org/2000/svg" xmlns:xlink="http://www.w3.org/1999/xlink" x="0px" y="0px" viewBox="0 0 1130 831.6"
	 style="enable-background:new 0 0 1130 831.6;" xml:space="preserve">
<style type="text/css">
	.st0{fill:#D0D2D5;}
	.st1{opacity:0.1;enable-background:new    ;}
	.st2{fill:#444053;}
	.st3{fill:#3A9B3C;}
	.st4{opacity:0.1;fill:#376844;enable-background:new    ;}
	.st5{fill:url(#SVGID_1_);}
	.st6{fill:#6B3862;}
	.st7{fill:#A26565;}
	.st8{fill:#454B69;}
	.st9{fill:#EFB7B9;}
	.st10{fill:#49BF51;}
	.st11{fill:#56ED67;}
	.st12{opacity:0.1;}
	.st13{fill:#FFFFFF;}
	.st14{fill:#004FAC;}
	.st15{fill:#FFDAAA;}
	.st16{fill:#FFEB99;}
	.st17{fill:#FFC477;}
	.st18{fill:#FFDE55;}
</style>
<title>youtube tutorial</title>
<polygon class="st0" points="664.2,755.9 469.2,753.4 469.8,748.4 479.2,665.9 650.4,665.9 663,748.4 664,754.6 "/>
<polygon class="st1" points="664,754.6 566.7,754.6 469.2,753.4 469.8,748.4 663,748.4 "/>
<rect x="436.7" y="749.6" class="st0" width="258.8" height="6.3"/>
<path class="st2" d="M942.3,170.4c0-9-7.2-16.3-16.2-16.4c0,0,0,0,0,0H203.5c-9,0-16.2,7.4-16.2,16.3c0,0,0,0,0,0v438h755V170.4z"/>
<path class="st0" d="M187.3,604v51.3c0,8.9,7.3,16.2,16.2,16.2l0,0h722.6c8.9,0,16.2-7.3,16.2-16.2V604H187.3z"/>
<path class="st3" d="M568.5,652.1c5.2,0,10.1-2.4,13.3-6.4l0,0c0.5-0.6,0.9-1.3,1.3-1.9l-9.3-1.5l10,0.1c1.9-4.2,2.1-9.1,0.3-13.4
	l-13.4,7l12.4-9.1c-4.7-8-15-10.8-23.1-6.1s-10.8,15-6.1,23.1c0.4,0.7,0.8,1.3,1.3,1.9l0,0C558.5,649.7,563.4,652.1,568.5,652.1z"/>
<polygon class="st1" points="585.4,671.5 663.2,749.6 651.3,671.5 "/>
<path class="st2" d="M569.5,492.9v18c0,0.3-0.2,0.5-0.5,0.5c0,0,0,0,0,0h-2c-0.3,0-0.5-0.2-0.5-0.5l0,0v-7.5l-8.3,7.7
	c-0.6,0.5-1.4,0.4-1.9-0.2c-0.2-0.2-0.3-0.5-0.3-0.8v-16.4c0-0.8,0.7-1.3,1.4-1.3c0.3,0,0.6,0.1,0.8,0.3l8.3,7.7V493
	c0-0.3,0.2-0.5,0.5-0.5l0,0h2C569.3,492.5,569.5,492.7,569.5,492.9z"/>
<ellipse class="st4" cx="290" cy="810.6" rx="99" ry="21"/>
<linearGradient id="SVGID_1_" gradientUnits="userSpaceOnUse" x1="321.6458" y1="-25.1462" x2="321.6458" y2="384.8217" gradientTransform="matrix(1 0 0 -1 -35 797.78)">
	<stop  offset="0" style="stop-color:#808080;stop-opacity:0.25"/>
	<stop  offset="0.54" style="stop-color:#808080;stop-opacity:0.12"/>
	<stop  offset="1" style="stop-color:#808080;stop-opacity:0.1"/>
</linearGradient>
<path class="st5" d="M323.1,808.1c-2-0.7-4.1-0.6-6.2-0.8c-4.3-0.5-8.4-2.5-11.5-5.6c-2-2-3.5-4.4-4.6-7c0.7,0.2,1.3,0.5,2,0.8
	c-2-4.7,0.1-9.9,1.9-14.6c3.1-8,6.1-16,8.9-24.1c7-20.5,13-41.8,12.9-63.6c0-7.9-1.5-15.3-1.7-23.2c-0.2-5.8,0.7-11.7,0.6-17.5
	c0-0.8,0-1.6-0.1-2.5c3.6-3.2,5.6-7.9,5.3-12.7c-0.1-1.2-0.3-2.5-0.5-3.7c-0.4-2.1-0.8-4.2-1.4-6.3c-0.7-2.2-1.6-4.3-2.3-6.4
	c-1.5-4.1-2.5-8.4-3.8-12.6c0.5,0,0.9,0.2,1.4,0.4c-0.3-0.4-0.5-0.8-0.6-1.3c-0.7-2.7-1.1-5.4-1.2-8.2l0.9-0.4
	c0.4-2.7,0.2-5.4-0.4-8.1c0.5-4.3,1.2-8.6,1.7-12.9c0.2-1.6,0.1-3.6-1.4-4c-0.3-2.3-0.4-4.6-0.5-6.9c-0.4-8.1-0.8-16.1-1.3-24.2
	c-0.4-8.1-0.8-16.2-1-24.3c-0.1-5.1-0.2-10.5-1.4-15.4c0.2-2.4,0-4.7-0.7-7c-1.9-5.9-7.6-10.6-13.5-10.2c-1.7-2.5-3.9-4.7-6.4-6.5
	c1.2-2.6,2.6-5.3,3.7-7.4c9.4-3,16.2-12.3,16.2-23.3c0-4-0.9-8-2.8-11.6c0.2-0.4,0.3-0.9,0.4-1.4c0.5-2.2,0.3-4.4-0.5-6.5
	c-0.3-0.8-0.6-1.6-1-2.3c-0.3-0.5-0.5-1-0.8-1.5l-0.5-0.8c-0.3-0.5-0.6-0.9-1-1.4c-0.7-1-1.5-1.9-2.3-2.7c-1-1.1-2.1-2.1-3.3-2.9
	c-1.6-1.2-3.4-2-5.4-2.5c-1.1-0.2-2.3-0.3-3.4-0.3c-0.7,0-1.4,0-2.1,0.1c-1.4,0.1-2.8,0.2-4.2,0.2c-0.5,0-0.9,0-1.4-0.1
	c-2.4-0.3-4.9-0.8-7.2-1.5l-1.2-0.3c-0.4-0.1-0.8-0.1-1.2-0.2c-1.1-0.1-2.2-0.2-3.3-0.2h-1.1c-1.1,0.1-2.2,0.2-3.3,0.3l-1.1,0.2
	c-2.8,0.4-5.5,1.2-8,2.4c-0.3,0.1-0.7,0.3-1,0.5l-0.2,0.1c-0.3,0.1-0.5,0.3-0.8,0.5l-0.1,0.1l-0.9,0.5l-0.1,0
	c-7.9,5.3-12.6,15.5-13.8,25.5c-1.3,11.3,1,22.6,3.3,33.7l2.1,10c0.1,0.5,0.2,0.9,0.3,1.3c-3,2.4-5.2,5.6-6.6,9.1
	c-2,5-2,10.4-1.9,15.8c0,1.1,0.1,2.2,0.2,3.3c-0.3,2.1-0.5,4.2-0.6,6.3c-0.6,9.7,0.5,19.5,0.2,29.2c-0.2,7.5-1.4,15-0.8,22.4
	c0.5,6.6,2.3,13,4,19.4l2.5,9.1c0.1,0.5,0.3,0.9,0.6,1.3c0.4,0.3,0.9,0.4,1.4,0.3c-1.6,3.7-3,7.6-4.1,11.5c-0.8,2.4-1.2,4.9-1.5,7.4
	c-0.3,4.6,0.7,9.1,1.8,13.6c1.6,6.7,3.2,13.4,4.8,20.1c1.1,4.7,2.2,9.4,3.4,14.1c2.2,9.3,4.4,18.6,4.8,28.1c0.2,4.8-0.1,9.6-1,14.3
	c-2.9,14.1-3.3,28.6-1.2,42.8c1.7,12,4.4,23.9,8.1,35.4c0.8-0.4,1.6-0.8,2.5-1.2l-0.4,0.7c-1.2,2-2.2,4.1-3.2,6.2
	c-0.7,1.4-1.2,2.8-1.7,4.2c-1.3,4-1.5,8.3-1.7,12.5c-0.1,0.8,0,1.6,0.2,2.4c0.5,1.5,2.1,2.3,3.6,2.7c4.3,1.2,8.8,0.8,13.3,0.2
	c0,0.1,0.1,0.2,0.1,0.3c0.5,1.5,2.1,2.3,3.6,2.7c6.2,1.8,12.7,0.1,19.1-0.5s12.6-0.2,18.8-1.6c0.9-0.2,1.8-0.5,2.6-1
	c1.6-1.1,2.7-2.7,3.3-4.5c0.2-0.5,0.3-1,0.4-1.5C327,810.8,325.1,808.8,323.1,808.1z M302,715.5c-0.3,2.3-1,4.6-2,6.8
	c-4.8,10.2-8.3,21-10.3,32.2c-1.3,7.3-2.1,14.8-2.3,22.3c-0.1,5.5,0.1,11.3-2.2,16.2l0.8-0.1c-0.3,0.5-0.5,1-0.8,1.4l-0.1,0.2
	c-1.4-2.4-2.3-5-2.7-7.7c0-0.1-0.5-0.2-1.1-0.2c-2.8-15.8-3.8-31.9-2.9-47.9c0-1.9,0.3-3.9,0.8-5.8c0.5-1.6,1.4-3.1,2-4.6
	c1-2.6,1.7-5.4,2-8.1c1.1-7.1,1.5-14.3,1.3-21.5c-0.2-6.8,1.3-13.5,2.7-20.3c0.6-3.2,1.2-6.4,1.5-9.7l0.1-0.7
	c5.9,9.8,10.1,20.6,12.3,31.9C302.3,705,302.6,710.3,302,715.5z M259.2,571l0.3,0.3c1,0.9,1.9,1.8,2.7,2.8c0.4,0.4,0.7,1,0.8,1.5
	c0.3,1.5-0.9,2.7-1.9,3.8c-0.4,0.5-0.8,1-1.2,1.5C259.7,577.6,259.5,574.3,259.2,571L259.2,571z"/>
<path class="st6" d="M245.4,508.3l-1.1,8.5c-0.4,2.9-0.7,5.8-0.9,8.6c-0.7,9.6,0.6,19.3,0.3,28.9c-0.3,7.4-1.4,14.8-0.9,22.2
	c0.5,6.5,2.4,12.9,4.2,19.2l2.6,9c0.1,0.5,0.3,0.9,0.7,1.2c0.5,0.3,1.1,0.4,1.7,0.3l11.7-1.1c-0.8-3.4-1.6-7-2-10.5
	c-0.3-2.8-0.5-5.5-0.7-8.3c-0.6-8.7-1.3-17.3-2-26l-1.3-15.2c-0.5-6.6-1.1-13.2-2.7-19.6C253.3,519.1,250,513.1,245.4,508.3z"/>
<path class="st3" d="M245.4,508.3l-1.1,8.5c-0.4,2.9-0.7,5.8-0.9,8.6c-0.7,9.6,0.6,19.3,0.3,28.9c-0.3,7.4-1.4,14.8-0.9,22.2
	c0.5,6.5,2.4,12.9,4.2,19.2l2.6,9c0.1,0.5,0.3,0.9,0.7,1.2c0.5,0.3,1.1,0.4,1.7,0.3l11.7-1.1c-0.8-3.4-1.6-7-2-10.5
	c-0.3-2.8-0.5-5.5-0.7-8.3c-0.6-8.7-1.3-17.3-2-26l-1.3-15.2c-0.5-6.6-1.1-13.2-2.7-19.6C253.3,519.1,250,513.1,245.4,508.3z"/>
<path class="st7" d="M266.2,797.3c-0.7,1.4-1.3,2.7-1.8,4.2c-1.3,3.9-1.5,8.2-1.7,12.4c-0.1,0.8,0,1.6,0.2,2.4
	c0.6,1.5,2.2,2.3,3.8,2.7c6.5,1.8,13.3,0.1,20-0.5s13.3-0.2,19.7-1.6c1-0.2,1.9-0.5,2.7-0.9c1.6-1.1,2.8-2.6,3.5-4.5
	c0.2-0.5,0.3-1,0.4-1.5c0.2-2.2-1.7-4.1-3.8-4.8c-2.1-0.7-4.4-0.6-6.5-0.8c-9.3-0.9-16.8-8-18.2-17.2c-0.1-0.5-10.8-0.2-12,0.4
	c-1.3,0.7-2.1,2.5-2.9,3.8C268.4,793.2,267.3,795.3,266.2,797.3z"/>
<path class="st1" d="M266.2,797.3c-0.7,1.4-1.3,2.7-1.8,4.2c-1.3,3.9-1.5,8.2-1.7,12.4c-0.1,0.8,0,1.6,0.2,2.4
	c0.6,1.5,2.2,2.3,3.8,2.7c6.5,1.8,13.3,0.1,20-0.5s13.3-0.2,19.7-1.6c1-0.2,1.9-0.5,2.7-0.9c1.6-1.1,2.8-2.6,3.5-4.5
	c0.2-0.5,0.3-1,0.4-1.5c0.2-2.2-1.7-4.1-3.8-4.8c-2.1-0.7-4.4-0.6-6.5-0.8c-9.3-0.9-16.8-8-18.2-17.2c-0.1-0.5-10.8-0.2-12,0.4
	c-1.3,0.7-2.1,2.5-2.9,3.8C268.4,793.2,267.3,795.3,266.2,797.3z"/>
<path class="st7" d="M284.1,800.5c-0.7,1.3-1.3,2.7-1.8,4.2c-1.4,4-1.5,8.2-1.7,12.4c-0.1,0.8,0,1.6,0.2,2.4
	c0.6,1.5,2.2,2.3,3.8,2.7c6.5,1.7,13.3,0.1,20-0.5s13.3-0.2,19.7-1.6c1-0.2,1.9-0.5,2.7-1c1.6-1.1,2.9-2.6,3.5-4.5
	c0.2-0.5,0.3-1,0.4-1.5c0.2-2.2-1.7-4.1-3.8-4.8c-2.1-0.7-4.4-0.6-6.5-0.8c-9.3-1-16.7-8-18.2-17.2c-0.1-0.5-10.8-0.2-12,0.4
	c-1.3,0.7-2.1,2.5-2.9,3.8C286.2,796.4,285.1,798.4,284.1,800.5z"/>
<path class="st8" d="M330.6,694.3c0.1,21.6-6.1,42.7-13.5,63c-2.9,8-6,16-9.3,23.9c-1.9,4.7-4.1,9.9-2,14.5
	c-6-2.3-12.1-3.6-18.4-2.6c2.4-4.9,2.2-10.6,2.3-16c0.2-7.4,1-14.8,2.4-22.1c2.1-11.1,5.7-21.8,10.8-31.9c1-2.1,1.7-4.4,2.1-6.7
	c0.8-5.1,0.2-10.4-0.9-15.5c-2.3-11.2-6.7-22-12.9-31.6L291,670c-0.4,3.2-0.9,6.4-1.6,9.6c-1.4,6.7-3.1,13.4-2.8,20.1
	c0.3,7.1-0.2,14.3-1.3,21.3c-0.4,2.8-1.1,5.5-2.1,8.1c-0.7,1.5-1.6,3-2.1,4.6c-0.5,1.9-0.8,3.8-0.8,5.7c-0.8,16.3,0,32.8,3.3,48.7
	c-5.6-0.4-11.1,1.2-16.1,3.7c-3.9-11.4-6.7-23.2-8.5-35.1c-2.2-14.1-1.7-28.5,1.3-42.5c0.9-4.7,1.3-9.4,1-14.2
	c-0.4-9.4-2.8-18.7-5.1-27.9l-3.5-14c-1.7-6.7-3.3-13.3-5-19.9c-1.1-4.4-2.2-8.9-1.9-13.5c0.2-2.5,0.8-4.9,1.6-7.3
	c2.5-8.1,6.2-15.7,11.1-22.6c19.3,1.1,38.8-0.7,58-2.2c0.9-0.2,1.9,0,2.7,0.5c0.7,0.7,1,1.5,1.1,2.5l7.2,41c1.2,5.7,1.9,11.5,2,17.3
	c0,5.8-0.9,11.6-0.7,17.4C329.1,679.1,330.6,686.5,330.6,694.3z"/>
<path class="st1" d="M291,670c-0.4,3.2-0.9,6.4-1.6,9.6c-4.2-7.3-8.7-14.3-12.6-21.8c-1-1.9-1.9-3.8-2.9-5.8l-2.9-5.8
	c-0.5-1.1-1.1-2.2-1.5-3.3c-0.8-1.6-1.4-3.3-1.8-5c1.4-0.3,4.9,3.5,5.9,4.5c2.1,2.1,4.1,4.3,6,6.6c2.3,2.6,4.4,5.3,6.3,8.2
	C288.4,661.2,290.1,665.5,291,670z"/>
<path class="st9" d="M307.1,471.1c0,0-10.7,17-8.7,20.6s-33.7-3.2-33.7-3.2s19.4-17,17.4-24.2S307.1,471.1,307.1,471.1z"/>
<circle class="st9" cx="297.6" cy="452" r="24.2"/>
<path class="st10" d="M307.5,489c-2.6-3.6-6.1-6.4-10.2-8.2c-2.3-0.8-4.8-1.4-7.2-1.8l-9.6-1.7c-2.4-0.4-4.9-0.8-7.1,0.2
	c-1.1,0.6-2.1,1.3-3,2.2c-3.4,3.1-6.6,6.5-10.8,8.3c-1.1,0.5-2.4,0.8-3.5,1.3c-4.7,2-8.2,6.3-10.2,11c-2.1,4.9-2.2,10.3-2,15.7
	c0,1.9,0.2,3.7,0.5,5.5c0.5,1.7,1.1,3.4,1.8,5.1c1.3,3.5,2.4,7.1,3.3,10.7c2.5,9.6,4.6,19.2,6.2,29c0.1,1.4,0.6,2.8,1.2,4
	c0.9,1.2,2.1,2.3,3.3,3.2c1,0.8,1.9,1.8,2.8,2.8c0.4,0.4,0.7,0.9,0.9,1.5c0.3,1.4-1,2.7-2,3.7c-2.2,2.2-3.7,4.9-4.5,7.9
	c-0.5,0.6-0.8,1.4-0.7,2.2c0.2,0.5,0.3,1.1,0.2,1.7c-0.2,0.5-0.5,1-0.9,1.4c-0.9,1.2-1.3,2.8-1,4.3c7.5,3.3,15.5,5.1,23.7,5.5
	c2,0.1,4,0.1,6,0.3c1.4,0.2,2.8,0.5,4.2,0.6c2.1,0.2,4.1,0.2,6.2,0.2c10.8-0.2,21.9-0.5,31.7-4.8c0.9-5.1-1.1-10.2-2.3-15.2
	c-2-8-2.5-16.2-4-24.3c-1-5.5-2.5-10.9-3.4-16.5c-0.9-5.5-1-11.3,0.5-16.7c1.4-4.8,1.8-9.7,3.2-14.4c1.4-4.8,2.4-9.9,0.8-14.7
	C319.7,493.3,313.6,488.6,307.5,489z"/>
<path class="st7" d="M319.3,439.2c1.2-4.3-1.1-8.8-3.9-12.3c-3-3.8-6.8-7.1-11.5-8.1c-3.8-0.8-7.8,0.2-11.6-0.1
	c-3.4-0.3-6.7-1.5-10.1-2c-3.1-0.3-6.2-0.2-9.3,0.4c-2.9,0.4-5.7,1.2-8.5,2.4c-10.3,4.6-16.3,15.8-17.7,27s1,22.4,3.5,33.4l2.2,9.9
	c2.3,10.3,4.6,20.7,5.2,31.3c0.6,10.6-0.5,21.4-4.9,31.1c14.1-7.6,25-19.9,30.7-34.8c1.6-4.1,2.7-8.3,4.5-12.4
	c1.5-3.5,3.4-6.7,4.7-10.3c1.5-4,2.2-8.2,2.1-12.5c-0.1-3.2-0.6-6.4-0.5-9.6s0.9-6.5,3.1-8.9c2-2,4.8-3,7.3-4.3
	c4-2,7.5-4.9,10.2-8.5c1.6-2.1,1.7-3,2.1-5.4S318.7,441.5,319.3,439.2z"/>
<path class="st9" d="M319.4,620.9c0.3,2.5-0.2,5,0.3,7.5c0.4,1.8,1.4,3.5,1.9,5.3c0.6,2.1,0.8,4.2,0.9,6.4c0.1,1.8-0.1,4-1.7,4.8
	c-0.7,0.4-1.5,0.4-2.3,0.7c-0.7,0.3-1.4,1.2-0.9,1.9c0.4,0.7,1.1,0.6,1.8,0.7s1.4,0.8,1,1.4c-0.2,0.2-0.4,0.3-0.6,0.4
	c-0.7,0.2-1.3,0.5-1.9,0.9c-0.6,0.4-0.9,1.1-0.8,1.8c0.1,0.6,0.8,1,1.4,0.8c0.1,0,0.2-0.1,0.2-0.1c-0.3,0.6-0.5,1.3-0.5,2
	c2.6,1.1,5.4-0.3,7.8-1.7c1-0.6,2-1.2,3-1.9c3.9-3,6.1-7.8,5.8-12.8c-0.1-1.2-0.3-2.4-0.6-3.7c-0.4-2.1-0.9-4.2-1.5-6.2
	c-0.7-2.2-1.6-4.2-2.4-6.3c-1.7-4.5-2.8-9.2-4.4-13.7c-0.1-0.5-0.4-0.9-0.8-1.2c-0.3-0.2-0.7-0.2-1.1-0.2c-1.8-0.1-3.5,0.1-5.2,0.5
	c-1,0.3-2.7,1-3.2,2s0.3,1.8,0.7,2.7C318,615.3,319,618.1,319.4,620.9z"/>
<path class="st1" d="M317.7,499.4c0.5,0.5,0.9,1.1,1.3,1.8c3.4,6.3,3.5,13.7,3.6,20.9c0.2,8,0.6,16,1.1,24l1.3,24
	c0.1,2.3,0.3,4.6,0.6,6.8c1.5,0.4,1.6,2.4,1.4,4c-1.1,9.8-3.9,19.8-1,29.3c0.1,0.5,0.3,0.9,0.7,1.3c-1.5-0.5-3-0.5-4.5-0.1
	c-1.4,0.3-2.8,0.8-4.3,1.2c-1.8,0.4-3.9,0.6-5.1,2c-1.4-4.2-2.5-8.5-3.4-12.9c-0.7-4-0.9-8.1-2.5-11.8c-0.6-1.5-1.5-2.9-2.3-4.3
	c-4.2-7.5-6.3-15.9-8.3-24.3c-0.9-4-1.1-8-0.6-12.1c0.3-1.8,0.5-3.7,0.5-5.6c-0.1-2-0.4-3.9-0.8-5.8c-0.8-5.7-0.5-11.4,1.2-16.9
	c1.5-5.1,2.8-10.4,6-14.7S312.4,499.5,317.7,499.4z"/>
<path class="st11" d="M318.9,498.6c0.5,0.5,0.9,1.1,1.3,1.8c3.4,6.2,3.5,13.7,3.6,20.9c0.2,8,0.6,16,1.1,24l1.3,24
	c0.1,2.3,0.3,4.6,0.6,6.8c1.5,0.4,1.6,2.4,1.4,4c-1.1,9.8-3.9,19.8-1,29.3c0.1,0.5,0.3,0.9,0.7,1.3c-1.5-0.5-3-0.5-4.5-0.1
	c-1.4,0.3-2.8,0.8-4.3,1.2c-1.8,0.4-3.9,0.6-5.1,2c-1.4-4.2-2.5-8.6-3.3-13c-0.7-4-0.9-8.1-2.5-11.8c-0.7-1.5-1.5-2.9-2.3-4.3
	c-4.2-7.5-6.3-15.9-8.3-24.3c-0.9-4-1.1-8-0.6-12.1c0.8-3.8,0.7-7.7-0.3-11.4c-0.8-5.7-0.5-11.4,1.2-16.9c1.5-5.1,2.8-10.4,6-14.7
	S313.6,498.7,318.9,498.6z"/>
<g class="st12">
	<path d="M315.4,427c-3-3.8-6.8-7.1-11.5-8.1c-3.8-0.8-7.8,0.2-11.6-0.1c-3.4-0.3-6.7-1.5-10.1-2c-3.1-0.3-6.2-0.2-9.3,0.4
		c-2.9,0.4-5.7,1.2-8.5,2.4c-1.5,0.7-2.9,1.4-4.2,2.4c2.4-0.9,4.9-1.6,7.5-2c3.1-0.6,6.2-0.7,9.3-0.4c3.4,0.4,6.7,1.7,10.1,1.9
		c3.9,0.3,7.8-0.6,11.6,0.1c4.7,0.9,8.5,4.3,11.5,8.1c2.8,3.5,5.1,8,3.9,12.3c-0.6,2.3-2.1,4.2-2.5,6.6s-0.5,3.3-2.1,5.4
		c-2.1,2.7-4.5,5-7.3,6.8c0.8-0.4,1.6-0.7,2.3-1.1c4-2,7.5-4.9,10.2-8.5c1.6-2.1,1.7-3,2.1-5.4s1.8-4.3,2.5-6.6
		C320.5,434.9,318.2,430.5,315.4,427z"/>
	<path d="M297.3,464c0.4-0.4,0.9-0.8,1.4-1.2c-2.3,1.1-4.7,2.1-6.5,4c-2.2,2.3-3,5.6-3.1,8.9s0.5,6.4,0.5,9.6
		c0.1,4.3-0.6,8.5-2.1,12.5c-1.3,3.5-3.2,6.8-4.7,10.3c-1.7,4-2.9,8.3-4.5,12.3c-5,12.9-13.9,24-25.4,31.6c-0.1,0.1-0.1,0.3-0.2,0.4
		c14.1-7.6,25-19.9,30.7-34.8c1.6-4.1,2.7-8.3,4.5-12.4c1.5-3.5,3.4-6.7,4.7-10.3c1.5-4,2.2-8.2,2.1-12.5c-0.1-3.2-0.6-6.4-0.5-9.6
		S295.1,466.3,297.3,464z"/>
</g>
<g>
	<path class="st13" d="M260.2,192.9c-2.3-3.9-5.4-7.1-9.3-9.3c-3.9-2.3-8.2-3.4-12.9-3.4c-4.7,0-9,1.1-12.9,3.4
		c-3.9,2.3-7.1,5.4-9.3,9.3c-2.3,3.9-3.4,8.2-3.4,12.9c0,5.6,1.6,10.6,4.9,15.1c3.3,4.5,7.5,7.6,12.7,9.3c0.6,0.1,1,0,1.3-0.2
		c0.3-0.3,0.4-0.6,0.4-1c0-0.1,0-0.7,0-1.8c0-1.1,0-2.1,0-3l-0.8,0.1c-0.5,0.1-1.1,0.1-1.9,0.1c-0.7,0-1.5-0.1-2.3-0.2
		c-0.8-0.1-1.5-0.5-2.2-1c-0.7-0.5-1.2-1.2-1.5-2.1l-0.3-0.8c-0.2-0.5-0.6-1.1-1.1-1.7c-0.5-0.6-1-1-1.5-1.3l-0.2-0.2
		c-0.2-0.1-0.3-0.2-0.4-0.4c-0.1-0.2-0.2-0.3-0.3-0.5c-0.1-0.2,0-0.3,0.2-0.4c0.2-0.1,0.5-0.1,1-0.1l0.7,0.1c0.4,0.1,1,0.4,1.7,0.8
		c0.7,0.4,1.2,1,1.6,1.7c0.5,0.9,1.1,1.6,1.9,2.1c0.7,0.5,1.5,0.7,2.2,0.7s1.4-0.1,1.9-0.2c0.5-0.1,1-0.3,1.5-0.5
		c0.2-1.5,0.7-2.6,1.6-3.4c-1.3-0.1-2.4-0.3-3.4-0.6c-1-0.3-2.1-0.7-3.1-1.3c-1.1-0.6-2-1.3-2.7-2.2c-0.7-0.9-1.3-2.1-1.8-3.5
		c-0.5-1.4-0.7-3.1-0.7-5c0-2.7,0.9-5,2.6-6.9c-0.8-2-0.7-4.3,0.2-6.8c0.6-0.2,1.6-0.1,2.9,0.5c1.3,0.5,2.2,0.9,2.8,1.3
		c0.6,0.4,1.1,0.7,1.4,0.9c2.1-0.6,4.2-0.9,6.4-0.9c2.2,0,4.3,0.3,6.4,0.9l1.3-0.8c0.9-0.5,1.9-1,3.1-1.5c1.2-0.4,2.1-0.6,2.7-0.4
		c1,2.5,1.1,4.8,0.3,6.8c1.8,1.9,2.6,4.2,2.6,6.9c0,1.9-0.2,3.6-0.7,5c-0.5,1.5-1,2.6-1.8,3.5c-0.7,0.9-1.6,1.6-2.7,2.2
		c-1.1,0.6-2.1,1-3.1,1.3c-1,0.3-2.2,0.5-3.4,0.6c1.2,1,1.7,2.6,1.7,4.7v7.1c0,0.4,0.1,0.7,0.4,1c0.3,0.3,0.7,0.3,1.3,0.2
		c5.2-1.7,9.4-4.8,12.7-9.3c3.3-4.5,4.9-9.5,4.9-15.1C263.6,201.2,262.5,196.9,260.2,192.9z"/>
</g>
<g>
	<path class="st14" d="M641.4,230.2c0-6.4-5.2-11.7-11.7-11.7H501.6c-6.4,0-11.6,5.2-11.6,11.7v11.6h151.5V230.2z"/>
	<path class="st15" d="M489.9,241.9v93.2c0,6.4,5.2,11.6,11.6,11.6h128.1c6.4,0,11.7-5.2,11.7-11.6v-93.2H489.9z"/>
	<path class="st16" d="M396.7,451.6v93.2c0,6.4,5.2,11.7,11.6,11.7h128.1c6.4,0,11.7-5.2,11.7-11.7v-93.2H396.7z"/>
	<path class="st14" d="M396.7,439.9v11.7h151.5v-11.7c0-6.4-5.2-11.6-11.7-11.6H408.4C402,428.3,396.7,433.5,396.7,439.9z"/>
	<path class="st14" d="M728.8,428.3H600.6c-6.4,0-11.7,5.2-11.7,11.6v11.7h151.5v-11.7C740.4,433.5,735.2,428.3,728.8,428.3z"/>
	<path class="st16" d="M589,451.6v93.2c0,6.4,5.2,11.7,11.7,11.7h128.2c6.4,0,11.6-5.2,11.6-11.7v-93.2H589z"/>
	<path class="st17" d="M489.9,276.8v58.3c0,6.4,5.2,11.6,11.6,11.6h69.9C526.4,346.7,489.9,315.5,489.9,276.8z"/>
	<path class="st18" d="M589,486.5v58.3c0,6.4,5.2,11.7,11.7,11.7h69.9C625.4,556.4,589,525.2,589,486.5z"/>
	<path class="st18" d="M396.7,486.5v58.3c0,6.4,5.2,11.7,11.6,11.7h69.9C433.2,556.4,396.7,525.2,396.7,486.5z"/>
	<path d="M728.8,422.5h-52.4v-23.3c0-9.7-7.8-17.5-17.5-17.5h-87.4v-29.1h58.3c9.7,0,17.5-7.8,17.5-17.5V230.2
		c0-9.7-7.8-17.5-17.5-17.5H501.6c-9.7,0-17.5,7.8-17.5,17.5v104.9c0,9.7,7.8,17.5,17.5,17.5h58.2v29.1h-75.7
		c-9.7,0-17.5,7.8-17.5,17.5v23.3h-58.3c-9.7,0-17.5,7.8-17.5,17.5v104.9c0,9.7,7.8,17.5,17.5,17.5h128.1c9.7,0,17.5-7.8,17.5-17.5
		V439.9c0-9.7-7.8-17.5-17.5-17.5h-58.3v-23.3c0-3.2,2.6-5.8,5.8-5.8h174.8c3.2,0,5.8,2.6,5.8,5.8v23.3h-64.1
		c-9.7,0-17.5,7.8-17.5,17.5v104.9c0,9.7,7.8,17.5,17.5,17.5h128.2c9.7,0,17.5-7.8,17.5-17.5V439.9
		C746.2,430.3,738.4,422.5,728.8,422.5z M501.6,224.4h128.1c3.2,0,5.8,2.6,5.8,5.8v5.8H495.8v-5.8
		C495.8,227,498.4,224.4,501.6,224.4z M495.8,335.1v-87.4h139.8v87.4c0,3.2-2.6,5.8-5.8,5.8H501.6
		C498.4,340.9,495.8,338.3,495.8,335.1z M536.5,550.6H408.4c-3.2,0-5.8-2.6-5.8-5.8v-87.4h139.8v87.4
		C542.4,548,539.8,550.6,536.5,550.6z M542.4,439.9v5.8H402.6v-5.8c0-3.2,2.6-5.8,5.8-5.8h128.1
		C539.8,434.1,542.4,436.7,542.4,439.9z M600.6,434.1h128.2c3.2,0,5.8,2.6,5.8,5.8v5.8H594.8v-5.8
		C594.8,436.7,597.4,434.1,600.6,434.1z M728.8,550.6H600.6c-3.2,0-5.8-2.6-5.8-5.8v-87.4h139.8v87.4
		C734.6,548,732,550.6,728.8,550.6z"/>
	<path d="M645.5,482.4c-2.3-2.3-6-2.3-8.2,0l-17.5,17.5c-2.3,2.3-2.3,6,0,8.2l17.5,17.5c2.3,2.2,6,2.2,8.2-0.1
		c2.2-2.3,2.2-5.8,0-8.1L632.1,504l13.4-13.4C647.8,488.4,647.8,484.7,645.5,482.4z"/>
	<path d="M692.1,482.4c-2.3-2.2-6-2.2-8.2,0.1c-2.2,2.3-2.2,5.8,0,8.1l13.4,13.4l-13.4,13.4c-2.3,2.2-2.4,5.9-0.1,8.2
		c2.2,2.3,5.9,2.4,8.2,0.1c0,0,0.1-0.1,0.1-0.1l17.5-17.5c2.3-2.3,2.3-6,0-8.2L692.1,482.4z"/>
	<path d="M671.9,475.1c-3.1-0.8-6.3,1.1-7.1,4.2l-11.7,46.6c-0.8,3.1,1.1,6.3,4.2,7.1c0.5,0.1,0.9,0.2,1.4,0.2c2.7,0,5-1.8,5.6-4.4
		l11.7-46.6C676.9,479,675,475.8,671.9,475.1z"/>
	<path d="M546.5,272.7c-2.3-2.3-6-2.3-8.2,0l-17.5,17.5c-2.3,2.3-2.3,6,0,8.2l17.5,17.5c2.3,2.2,6,2.2,8.2-0.1
		c2.2-2.3,2.2-5.8,0-8.1l-13.4-13.4l13.4-13.4C548.8,278.7,548.8,275,546.5,272.7z"/>
	<path d="M593.1,272.7c-2.3-2.2-6-2.2-8.2,0.1c-2.2,2.3-2.2,5.8,0,8.1l13.4,13.4l-13.4,13.4c-2.3,2.2-2.4,5.9-0.1,8.2
		c2.2,2.3,5.9,2.4,8.2,0.1c0,0,0.1-0.1,0.1-0.1l17.5-17.5c2.3-2.3,2.3-6,0-8.2L593.1,272.7z"/>
	<path d="M572.9,265.4c-3.1-0.8-6.3,1.1-7.1,4.2l-11.6,46.6c-0.8,3.1,1.1,6.3,4.2,7.1c0.5,0.1,0.9,0.2,1.4,0.2c2.7,0,5-1.8,5.6-4.4
		l11.6-46.6C577.9,269.3,576,266.1,572.9,265.4L572.9,265.4z"/>
	<path d="M453.3,482.4c-2.3-2.3-6-2.3-8.2,0l-17.5,17.5c-2.3,2.3-2.3,6,0,8.2l17.5,17.5c2.3,2.2,6,2.2,8.2-0.1
		c2.2-2.3,2.2-5.8,0-8.1L439.9,504l13.4-13.4C455.6,488.4,455.6,484.7,453.3,482.4z"/>
	<path d="M499.9,482.4c-2.3-2.2-6-2.2-8.2,0.1c-2.2,2.3-2.2,5.8,0,8.1L505,504l-13.4,13.4c-2.3,2.2-2.4,5.9-0.1,8.2
		c2.2,2.3,5.9,2.4,8.2,0.1c0,0,0.1-0.1,0.1-0.1l17.5-17.5c2.3-2.3,2.3-6,0-8.2L499.9,482.4z"/>
	<path d="M479.7,475.1c-3.1-0.8-6.3,1.1-7.1,4.2L461,525.9c-0.8,3.1,1.1,6.3,4.2,7.1c0.5,0.1,0.9,0.2,1.4,0.2c2.7,0,5-1.8,5.6-4.4
		l11.6-46.6C484.7,479,482.8,475.8,479.7,475.1L479.7,475.1z"/>
</g>
</svg>
