<?xml version="1.0" encoding="utf-8"?>
<!-- Generator: Adobe Illustrator 23.1.0, SVG Export Plug-In . SVG Version: 6.00 Build 0)  -->
<svg version="1.1" id="ad7c1fe1-eb22-473c-bc85-8b4fe073a50d"
	 xmlns="http://www.w3.org/2000/svg" xmlns:xlink="http://www.w3.org/1999/xlink" x="0px" y="0px" viewBox="0 0 1094.7 788.7"
	 style="enable-background:new 0 0 1094.7 788.7;" xml:space="preserve">
<style type="text/css">
	.st0{opacity:0.5;}
	.st1{fill:#D0D2D5;}
	.st2{opacity:0.1;enable-background:new    ;}
	.st3{fill:#3F3D56;}
	.st4{fill:url(#SVGID_1_);}
	.st5{fill:#FBBEBE;}
	.st6{fill:#79D35B;}
	.st7{fill:#F86D70;}
	.st8{fill:#6FF772;}
	.st9{fill:#434175;}
	.st10{opacity:0.1;fill:#6B3862;enable-background:new    ;}
	.st11{fill:none;stroke:#3F3D56;stroke-width:12;stroke-miterlimit:10;}
	.st12{fill:#2F2E41;}
	.st13{fill:#6B3862;}
	.st14{fill:#6FF792;}
	.st15{fill:url(#SVGID_2_);}
	.st16{opacity:0.1;}
	.st17{fill-rule:evenodd;clip-rule:evenodd;fill:url(#path380_1_);}
	.st18{fill-rule:evenodd;clip-rule:evenodd;fill:url(#path382_1_);}
</style>
<title>monitor</title>
<g class="st0">
	<path class="st1" d="M974.8,367.7h105.8c7.8,0,14.1,6.3,14.1,14.1v105.8c0,7.8-6.3,14.1-14.1,14.1H974.8c-7.8,0-14.1-6.3-14.1-14.1
		V381.8C960.7,374,967,367.7,974.8,367.7z"/>
	<path class="st2" d="M1008.7,406.2h38c0,0,32,28,0,57h-38C1008.7,463.2,976.7,437.2,1008.7,406.2z"/>
	<rect x="1012.7" y="422.2" class="st3" width="5" height="15"/>
	<rect x="1037.7" y="420.2" class="st3" width="5" height="18"/>
	<path class="st3" d="M1027.7,446.2L1027.7,446.2c3.3,0,6,2.7,6,6v5l0,0h-12l0,0v-5C1021.7,448.9,1024.4,446.2,1027.7,446.2z"/>
</g>
<linearGradient id="SVGID_1_" gradientUnits="userSpaceOnUse" x1="3058.1846" y1="367.8173" x2="3058.1846" y2="675.1541" gradientTransform="matrix(0.51 0.86 0.86 -0.51 -1327.88 -2233.6399)">
	<stop  offset="0" style="stop-color:#808080;stop-opacity:0.25"/>
	<stop  offset="0.54" style="stop-color:#808080;stop-opacity:0.12"/>
	<stop  offset="1" style="stop-color:#808080;stop-opacity:0.1"/>
</linearGradient>
<path class="st4" d="M621.8,238.5c3.2-0.1,6.3,0.2,9.5,0c2.9-0.1,5.8-0.6,8.7-0.9c4.9-0.5,9.9-0.5,14.9-0.7c3.3-0.1,6.7-0.5,9.3-2.4
	c2.5-1.8,3.9-4.7,6.1-6.8c9-8.6,15.2-20.2,23.2-29.8c2-2.4,4.1-4.9,5.9-7.5c3.5-5,5.9-10.7,8.4-16.3c1-2.1,1.8-4.2,2.4-6.4
	c0.5-1.8,0.7-3.6,1.3-5.3c1.2-3.5,4.2-6.6,4.6-10.3l-0.4,0.1c3.6-4.6,3.1-12.7,4.9-18.6c1.2-3.5,2.5-7,4.2-10.3l6.7-14.6
	c1.2-2.5,2.3-5.1,4.3-7c2.4-2.3,5.8-3.5,8.2-5.8c1.4-1.4,2.5-3.2,3.1-5.1l0.2,0.2c1.3,1.3,2.3,2.8,3.5,4.1c2.7,2.8,6.4,4.4,9.2,7.1
	c1.4,1.4,2.5,3.1,4.2,4.1c1.8,1,4,0.7,5.4-0.7c4.9-4.3,12.2-4.7,17.5-8.5c1.5-1.1,2.8-2.4,4.1-3.5c3.3-2.6,6.9-4.9,10.7-6.7
	c2.2,0,4.4,0.4,6.6,0.9c3.1,0.9,6.1,2.3,9.3,2.2c2.9-0.1,5.6-1.2,7.8-3c1.6-1.3,3.1-3,3.4-5c0.1-2.1-0.8-4.1-2.4-5.4
	c-0.2-0.2-0.5-0.4-0.7-0.5c-0.1-1.8-1-3.5-2.4-4.7c-1.6-1.3-3.5-2.2-5.5-2.8c-1.1-0.4-2.3-0.7-3.4-0.8c-1.8,0.1-3.6,0.5-5.3,1.3
	c-3.4,1.1-6.9,1.8-10.5,2.2c-0.6,0.1-1.9-0.1-3-0.1l-0.4-1.1c-4.2,1.9-9,0.3-13.6,0.3c-2.2,0-4.4,0.4-6.6,0.5
	c-2.4,0.1-4.9,0-7.3-0.2l-7.4-0.5c-3.2-0.2-6.3-0.5-9.4-1c-0.8-1.7-1.7-3.4-2.6-5c-1.6-2.7-3.4-5.3-5.5-7.6c0.8-0.7,1.7-1.4,2.6-2
	l0.2-0.1c0.2-0.1,0.5-0.3,0.8-0.4c9.4,4.5,20.7,0.5,25.2-9c1.2-2.5,1.8-5.3,1.8-8.1c0.5-0.2,1.1-0.5,1.6-0.7
	c0.3-0.2,0.6-0.3,0.9-0.5l0.4-0.3c0.3-0.2,0.5-0.4,0.8-0.7c0.1-0.1,0.2-0.2,0.3-0.4c0.2-0.3,0.4-0.5,0.6-0.8l0,0
	c0.1-0.1,0.1-0.2,0.2-0.3s0-0.1,0-0.1s0.1-0.2,0.1-0.3s0-0.1,0-0.2l0.1-0.2c0-0.1,0-0.1,0-0.2c0-0.1,0-0.2,0-0.2v-0.2
	c0-0.1,0-0.1,0-0.2c0-0.1,0-0.1,0-0.2c0-0.1,0-0.2,0-0.2c0-0.1,0-0.1,0-0.2v-0.3c0-0.1,0-0.2,0-0.2c0-0.1,0-0.1,0-0.2v-0.2v-0.2
	c0-0.1,0-0.2,0-0.3c0-0.1,0-0.1,0-0.2c0-0.1,0-0.2,0-0.3c0-0.1,0-0.1,0-0.2s0-0.2-0.1-0.3v-0.1l-0.1-0.3v-0.1c0-0.1-0.1-0.2-0.1-0.3
	v-0.1l-0.1-0.4v-0.1c0-0.2-0.1-0.3-0.2-0.5c-0.8-2.2-1.6-4.3-2.4-6.4c-0.6-1.8-1.6-3.4-2.8-4.9c-1.8-1.9-4.3-2.8-6.4-4.3
	c-2.5-1.8-4.4-4.3-6.5-6.5s-4.7-4.2-7.7-4.6c-2.4-0.1-4.8,0.3-7.1,1.3c-18.4,6.8-33.4,20.1-49.9,30.7c-6.4,4.1-13.6,8-21.2,7.5
	l6.7,10.6c0.3,0.5,0.7,1,1,1.5s0.7,1,1.1,1.5c0.9,1.3,2.1,2.4,3.5,3.2c0.3,0.2,0.7,0.4,1.1,0.5c0.3,0.1,0.7,0.2,1,0.3
	c2.4,0.6,5,0.1,7.4-0.4c0.8-0.2,1.7-0.3,2.5-0.5l1-0.3h0.2c0,0.1,0,0.1,0,0.2c-0.6,1-1.1,1.9-1.6,2.9c-1.5,3.6-2.7,7.3-3.6,11.1
	c-1.9,7.5-3.8,15.2-3.3,22.9c0.2,2.6,0.6,5.3-0.1,7.8c-0.4,1.2-1,2.5-0.7,3.7c0.4,0.7,0.7,1.4,0.9,2.2c0.2,1.2-0.8,2.2-1.4,3.1
	s-1,2.5-0.1,3.2c-1.9,0.7-3.3,2.4-3.6,4.4c0,0.6-0.1,1.2-0.3,1.7c-0.3,0.4-0.6,0.7-1,0.9c-1,0.9-1.7,2-1.9,3.4c-1.9,0-3.6,1.9-5.3,3
	c-1.5,0.8-3.2,1.4-4.8,1.8c-4.8,1.5-9,4.7-12.8,8c-2.1,1.8-4.2,3.9-5.1,6.5c-0.3,0.9-0.5,1.8-0.7,2.6c-0.5,1.7-1.3,3.3-2.3,4.7
	c-1.9,3-4.3,5.6-7,7.8c-1.4,1.1-2.6,2.4-3.6,3.9c-1.5,2.2-4.6,2.9-6.3,5c-0.6,1-1.3,2.1-2,3c-1.3,1.2-3.2,1.3-4.8,2
	c-3.8,1.6-5.5,6-8.9,8.3c-0.2,0.2-0.4,0.2-0.7,0.2c-0.3,0-0.5-0.4-0.7-0.5c-0.5-0.3-1.1-0.1-1.7,0.1c-0.6,0.1-1.4,0.1-1.5-0.5
	c-8.2-4.9-16.2-10.3-24.3-15.2l-3.7-2.3l-19.9-12.1c-0.5-0.3-1.1-0.3-1.6,0l-0.6,0.4c-1-1.1-2.1-2-2.8-2.8c-0.3-0.3-0.5-0.6-0.8-0.9
	c0.2,0,0.4,0,0.5-0.1c0.5-0.3,0.7-0.8,0.4-1.3c-0.2-0.5-0.5-0.9-0.9-1.2c-0.9-0.8-1.7-1.8-2.4-2.7c-0.8-1.2-1.7-2.4-2.6-3.4
	c-1-1.1-2.4-1.7-3.9-1.6c-0.8,0.2-1.6,0.5-2.3,0.9c-2.7,1.6-5.3,3.5-7.5,5.8c-0.2,0.1-0.3,0.4-0.3,0.6c0,0.2,0.2,0.4,0.2,0.5
	c0,0.2-0.1,0.4-0.2,0.5c-1.3,1.7-2.9,3.1-4.7,4.3c-2.5,1.9-5,3.9-7.5,5.9c-1.5,1.1-2.7,2.5-3.5,4.3c-0.5,2-0.3,4.1,0.6,5.9
	c1.7,3.9,4.6,7.1,7.5,10.3c0.5,0.6,1.1,1.1,1.9,1.3c0.6,0.1,1.2-0.1,1.7-0.4c1.8-1.2,2.1-3.6,2.2-5.7c0-1,0.1-1.9,0.2-2.9
	c0-0.2,0-0.4,0.1-0.6c0.2-0.2,0.4-0.4,0.6-0.5l2.8-1.4c-0.1-0.1-0.2-0.3-0.3-0.4c2.1-0.8,4.3-0.9,6.5-0.4c1.5,0.4,2.8,1.3,4.2,1.8
	c-0.2,1.9,0.1,3.8,1,5.4c5.1,0.5,9.8,2.8,14.3,5.1c3.7,1.8,7.3,3.9,10.8,6.1c2.8,1.8,5.6,3.8,8.3,5.8c3.8,2.8,7.5,5.9,11.2,8.9
	c2.4,2.1,5,4,7.7,5.7c7.2,4,16.9,4.2,23.5-0.9c8.4-6.4,19-9.7,28-15.2c2.7-1.5,5.1-3.4,7.3-5.6c0,0.3-0.1,0.5-0.1,0.8
	c-0.5,2.5-2.7,4.3-3.5,6.8c-0.6,2-0.4,4.3-1.6,6c-0.9,1.3-2.7,2.2-2.7,3.8c0,0.4,0.1,0.9,0.1,1.3c-0.1,0.6-0.2,1.1-0.5,1.6
	c-1,2.3-2.1,4.6-4.2,6c-0.8,0.5-1.8,1-2,2c0,0.3-0.1,0.5-0.2,0.8c-0.3,0.5-1.1,0.2-1.6,0.4c-0.8,0.3-0.9,1.3-1.2,2
	c-0.6,1.3-1.9,2.1-3.3,1.9c-6.8-0.8-13.5,2.3-20.4,2.1c-2.4-0.1-4.7-0.3-7.1-0.3c-7.3-0.1-14.5,2-21.5,4c-0.8,1.4-1.3,2.9-1.4,4.5
	c-2.4,0.6-4.9,0.7-7.3,0.3c-0.6-0.1-1.2-0.2-1.8-0.3c0.2-0.5,0.2-0.9,0.2-1.4c-2.9,0.9-5.6,2.1-8.2,3.7c-1.7,1-3.5,2.4-3.7,4.4
	c0,0.8,0.1,1.5,0.3,2.2l0.9,3.5c0.1,0.7,0.4,1.3,0.8,1.8c0.3,0.3,0.7,0.5,1,0.8c0.3,0.4,0.5,0.8,0.5,1.3l0.8,3.1
	c0.3,1,0.5,2.1,0.6,3.1c0.1,1,0,1.9,0.1,2.9c0.1,1.6,0.3,3.2,0.7,4.7l1.1,5.5c0.2,1.5,0.7,3.1,1.3,4.5c0.5,1,1.1,1.9,1.5,2.9
	c0.3,0.8,0.4,1.6,0.8,2.3c0.6,1.2,1.7,2.1,2.9,2.7c0.4,0.3,0.9,0.4,1.4,0.4c1.4,0,2.4-1.3,3.1-2.6c1.3-2.3,2-4.9,2.1-7.5
	c0-1.1-0.2-2.1-0.3-3.2c-0.2-3,0.6-5.9,0.6-8.9c0.1-0.8-0.5-1.6-1.3-1.8c0.1-2.5,0.1-5.2,1.4-7.4c0.7-1,1.5-1.9,2.4-2.6
	c0.4,1.2,0.8,2.4,1.2,3.5C605.9,240.8,613.8,238.7,621.8,238.5z M784.4,84.9c-0.5,0.2-1.1,0.4-1.7,0.6c-4.7,1.6-10,3.1-14.8,2
	c-1.5-0.4-2.8-1.1-4.1-2l-0.3-0.2C770.3,84.1,777.4,84.3,784.4,84.9z"/>
<path class="st5" d="M811.4,74.6c1.7-0.7,3.5-1.1,5.3-1.2c1.2,0.1,2.3,0.4,3.4,0.8c2,0.6,3.8,1.5,5.4,2.8c1.6,1.3,2.5,3.3,2.4,5.4
	c-0.2,2-1.7,3.7-3.3,5c-2.2,1.8-4.9,2.9-7.8,3c-3.2,0.1-6.2-1.4-9.3-2.2c-2.2-0.6-4.5-1-6.9-1c-1.2,0.1-2.3,0-3.5-0.2
	c-1.2-0.2-2.2-1-2.7-2.1c-0.3-1-0.3-2,0-3c0.2-1.2,0.2-4.2,1.3-4.9c0.9-0.6,4-0.1,5.1-0.2C804.5,76.4,808,75.7,811.4,74.6z"/>
<path class="st6" d="M740,54.5c3,3,5.6,6.3,7.8,10c3.5,6.1,5.8,13.3,11.1,18c1.4,1.2,2.9,2.3,4.5,3.2c1.2,0.9,2.6,1.6,4.1,2
	c4.8,1.1,10.1-0.4,14.7-2c4.6-1.6,9.1-3.7,13.3-6c0,1.9,0.6,3.8,1.6,5.5c1.1,1.6,3.4,2.5,5,1.5c-4.1,1.9-8,4.3-11.5,7.1
	c-1.4,1.2-2.6,2.4-4.1,3.5c-5.3,3.8-12.6,4.2-17.4,8.5c-1.5,1.3-3.7,1.6-5.4,0.6c-1.7-1-2.8-2.7-4.2-4.1c-2.7-2.7-6.5-4.3-9.2-7.1
	c-1.3-1.3-2.3-2.8-3.5-4.1c-1.8-1.8-4.2-3-5.9-5c-1.3-1.5-2-3.3-3.2-4.8c-1-1.4-2.2-2.6-3.1-4c-2.2-3.5-2.2-8-0.9-11.9
	S737.7,57.9,740,54.5z"/>
<path class="st5" d="M562.3,146.8c-0.8-1-1.7-1.9-2.8-2.6c-1.7-0.7-3.5-0.9-5.3-0.5c-4.5,0.7-8.6,2.7-12.5,5
	c-3.2,1.8-6.3,3.8-8.6,6.7c-0.7,0.9-1.3,1.9-1.5,3c-0.1,0.9,0,1.8,0.2,2.7c0.4,2,1.7,3.7,3.6,4.6c2.1,0.8,4.4-0.1,6.5-0.9
	c2.8-1.1,5.9-2.1,8.8-1.2c2.2,0.6,4,2.3,6.3,2.3c2.7,0.1,4.8-2.1,6.5-4.1c1.5-1.8,4.7-5,4.5-7.6S563.9,148.6,562.3,146.8z"/>
<path class="st5" d="M596,224.6c-2.4,0.7-5,0.8-7.5,0.3c-1.5-0.3-3.4-0.6-4.3,0.5c-0.3,0.4-0.5,0.9-0.6,1.5c-2.5,10.2-0.2,21,4,30.6
	c0.1,0.2,0.2,0.3,0.3,0.4c0.3,0.2,0.6,0.1,1-0.1c1-0.4,2-1,2.8-1.6c1.9-1.7,2.3-4.6,2.4-7.2s0-5.3,1.4-7.5c1.7-2.8,5.2-4.1,6.6-7
	c1.1-2.4,0.5-5.2-0.5-7.6c-0.3-0.8-0.5-3-1.2-3.4S596.9,224.4,596,224.6z"/>
<path class="st7" d="M562,145.8c0.5-0.3,0.6-0.8,0.4-1.3c-0.2-0.5-0.5-0.9-0.9-1.2c-0.9-0.8-1.7-1.8-2.4-2.7
	c-0.8-1.2-1.7-2.4-2.6-3.4c-1-1.1-2.4-1.7-3.9-1.6c-0.8,0.1-1.6,0.5-2.3,0.9c-2.7,1.6-5.2,3.5-7.5,5.7c-0.2,0.2-0.4,0.4-0.3,0.6
	s0.2,0.3,0.2,0.5c0,0.2-0.1,0.4-0.2,0.5c-1.3,1.7-2.9,3.1-4.7,4.3c-2.5,1.9-5,3.9-7.4,5.9c-1.5,1.1-2.7,2.5-3.5,4.2
	c-0.5,2-0.3,4.1,0.6,5.9c1.7,3.9,4.6,7.2,7.5,10.3c0.5,0.6,1.2,1.1,1.9,1.4c0.6,0.1,1.2-0.1,1.7-0.4c1.8-1.1,2-3.5,2.2-5.6l0.2-2.9
	c0-0.2,0-0.4,0.1-0.5c0.2-0.2,0.4-0.4,0.6-0.5l2.7-1.4c-1.7-2.8-4.8-4.4-8-4.2c-0.7,0.2-1.5,0.1-2.1-0.3c-0.7-0.7-0.7-1.8,0-2.4
	c0.7-0.6,1.5-1.1,2.4-1.3c7.2-2.6,13.7-6.9,20.6-10c0.8-0.4,1.6-0.6,2.5-0.6C560.5,145.7,561.4,146.1,562,145.8z"/>
<path class="st7" d="M590.3,250.5c-0.3,0.6-0.4,1.3-0.8,1.9s-1.1,1-1.7,0.7c-0.3-0.2-0.5-0.5-0.7-0.9c-3-6.9-3.9-14.6-2.5-22.1
	c0.2-1.2,0.6-2.4,1.1-3.5c0.5-1.1,1.3-2.2,1.1-3.4c-2.9,0.9-5.6,2.1-8.2,3.6c-1.7,1-3.5,2.4-3.7,4.4c0,0.8,0.1,1.5,0.3,2.2l0.9,3.5
	c0.1,0.7,0.4,1.3,0.8,1.8c0.3,0.3,0.7,0.5,1,0.8c0.3,0.4,0.5,0.8,0.5,1.3l0.8,3.1c0.3,1,0.5,2.1,0.6,3.1c0.1,1,0,1.9,0.1,2.9
	c0.1,1.6,0.3,3.1,0.7,4.7l1.1,5.5c0.3,1.5,0.7,3.1,1.3,4.5c0.5,1,1.1,1.9,1.5,2.9c0.3,0.8,0.4,1.6,0.8,2.3c0.6,1.2,1.7,2.1,2.9,2.7
	c0.4,0.3,0.9,0.4,1.4,0.5c1.4,0,2.4-1.3,3.1-2.6c1.3-2.3,2-4.9,2-7.5c0-1.1-0.2-2.1-0.3-3.2c-0.3-3,0.6-5.9,0.6-8.9
	C595.3,248.1,591.3,248.6,590.3,250.5z"/>
<path class="st5" d="M737,76.3c-3.1-1.4-5.9-3.6-8-6.3c-1.1-1.4-2.1-2.9-3-4.4c-3.8-6.4-7.1-13.1-9.8-20.1c4.3,0.9,8.7,1.7,12.9,0.5
	c2.2-0.7,4.2-1.7,6-3.2c2.3-1.9,4.4-3.9,6.3-6.2c1.5,2.8,3.1,5.5,5,8c1.1,1.4,4.7,4.4,4.4,6.3s-4.3,2.9-5.9,3.9l-0.2,0.1
	c-2.4,1.5-4.5,3.5-6.2,5.7C735.5,65.1,734.5,71.3,737,76.3z"/>
<path class="st2" d="M745.1,54.8c-4.9-2.4-8.5-6.8-9.8-12c2.3-1.9,4.4-3.9,6.3-6.2c1.5,2.8,3.1,5.5,5,8c1.1,1.4,4.7,4.4,4.4,6.3
	S746.7,53.9,745.1,54.8z"/>
<circle class="st5" cx="754.1" cy="37.5" r="18.7"/>
<path class="st8" d="M713.1,154.2c-2.6,1.6-5.9,1.7-8.6,0.2c-1.4-0.9-2.6-1.9-3.7-3.1c-6.2-6.3-12-13-16.1-20.8
	c-1-1.7-1.6-3.5-1.8-5.4c-0.2-1.9,0.5-3.8,1.9-5.1c0.4-0.3,0.7-0.6,1-0.9c0.2-0.5,0.4-1.1,0.3-1.7c0.2-2,1.6-3.8,3.5-4.4
	c-1-0.7-0.6-2.2,0-3.2s1.6-2,1.4-3.1c-0.3-0.7-0.6-1.5-0.9-2.2c-0.4-1.2,0.3-2.5,0.6-3.7c0.7-2.5,0.3-5.2,0.1-7.8
	c-0.5-7.7,1.3-15.3,3.2-22.8c0.8-3.8,2-7.5,3.5-11.1c0.5-1,1-2,1.5-2.9c1.9-3.1,4-6,6.3-8.8c1.1-1.6,2.6-2.9,4.3-3.8
	c0.2-0.1,0.3-0.1,0.5-0.2c1.2-0.3,2.5-0.4,3.8-0.3c3.4,0.2,6.9,1,9.3,3.4s3.2,5.7,4.3,8.9c0.3,1.1,0.8,2.1,1.3,3.2
	c1.6,3.2,4.2,5.7,6.7,8.1l2.8,2.7c1.4,1.3,3.8,1,5.1,2.4c0.5,0.7,0.9,1.4,1.2,2.2c1.5,3.6,2.3,7.4,2.5,11.3c0,0.9,0,1.7-0.2,2.6
	c-0.3,3-1.7,5.8-3.8,8c-2.4,2.3-5.7,3.4-8.1,5.8c-2,1.9-3.2,4.5-4.3,7c-2.2,4.8-4.4,9.7-6.6,14.5c-1.6,3.3-3,6.7-4.1,10.3
	C718.1,140.5,719.3,150.4,713.1,154.2z"/>
<path class="st9" d="M655.4,236.6c-4.9,0.2-9.9,0.1-14.8,0.6c-2.9,0.3-5.7,0.8-8.6,0.9c-3.1,0.1-6.3-0.1-9.4,0
	c-7.9,0.2-15.8,2.3-23.4,4.5c-2.2-5.3-3.3-10.9-3.3-16.6c0-0.4,0-0.8,0-1.1c0.1-1.6,0.6-3.2,1.4-4.6c7-2,14.1-4,21.4-3.9
	c2.4,0,4.7,0.3,7.1,0.4c6.8,0.2,13.5-2.9,20.3-2c1.4,0.1,2.7-0.6,3.3-1.9c0.3-0.7,0.4-1.7,1.2-2c0.5-0.2,1.3,0,1.6-0.4
	c0.1-0.2,0.2-0.5,0.2-0.8c0.2-1,1.2-1.5,2-2c2-1.4,3.1-3.7,4.1-6c0.3-0.5,0.4-1,0.5-1.6c0-0.4-0.1-0.9-0.1-1.3
	c0-1.6,1.8-2.5,2.7-3.8c1.2-1.7,1-4,1.6-6c0.8-2.5,2.9-4.3,3.5-6.8c0.1-0.3,0.1-0.5,0.1-0.8c-2.1,2.2-4.5,4.1-7.2,5.5
	c-8.9,5.5-19.5,8.7-27.8,15.1c-6.6,5-16.2,4.9-23.4,0.8c-2.7-1.7-5.3-3.6-7.7-5.7c-3.7-3-7.4-6.1-11.2-8.9c-2.7-2-5.4-3.9-8.3-5.8
	c-3.5-2.3-7-4.4-10.7-6.3c-4.6-2.3-9.2-4.6-14.3-5.2c-1.3-2.7-1.4-5.9-0.3-8.6c1.2-2.7,2.7-5.3,4.7-7.5c1.4-2.1,3.3-4,5.4-5.5
	c0.5-0.3,1.1-0.3,1.6,0l19.8,12.2l3.7,2.3c8.1,5,16.1,10.4,24.3,15.3c0.2,0.6,0.9,0.6,1.5,0.5s1.2-0.4,1.7-0.1
	c0.2,0.2,0.4,0.5,0.7,0.5c0.2,0,0.5-0.1,0.7-0.2c3.4-2.3,5.1-6.8,8.8-8.3c1.6-0.7,3.5-0.8,4.8-2c0.7-0.9,1.4-1.9,2-3
	c1.6-2.1,4.7-2.8,6.2-5c1-1.4,2.2-2.7,3.6-3.8c2.7-2.2,5.1-4.8,7-7.8c1-1.5,1.8-3,2.3-4.7c0.3-0.9,0.4-1.8,0.7-2.6
	c0.9-2.6,3-4.6,5.1-6.5c3.8-3.3,7.9-6.5,12.7-8c1.7-0.4,3.3-1,4.8-1.8c1.9-1.2,3.7-3.4,5.9-2.9c0.8,0.3,1.6,0.7,2.2,1.4
	c2.7,2.6,5.2,5.5,7.5,8.5c3.6,4.5,7.1,9.1,10.7,13.6c1.1,1.6,2.5,3,4.2,4.1c2.4,1.2,5.1,1.6,7.8,1c-0.3,3.7-3.3,6.8-4.5,10.3
	c-0.6,1.7-0.8,3.5-1.3,5.3c-0.6,2.2-1.4,4.3-2.4,6.4c-2.4,5.6-4.8,11.2-8.3,16.2c-1.8,2.6-3.8,5-5.8,7.4c-7.9,9.6-14,21.1-23,29.7
	c-2.2,2.1-3.6,5-6,6.8C662,236.2,658.5,236.5,655.4,236.6z"/>
<path class="st2" d="M693,109.7c-0.9,0-1.7,0.3-2.5,0.8c1.8-0.6,4.1,1.1,5.8,0.3c0.8-0.4,0.7-0.5,0-0.7
	C695.3,109.7,694.1,110,693,109.7z"/>
<rect x="935.3" y="452.8" transform="matrix(0.9423 -0.3346 0.3346 0.9423 -97.7005 352.5501)" class="st1" width="78" height="14"/>
<path class="st1" d="M959.8,493.6l66.9-23.8c3.6-1.3,7.6,0.6,8.9,4.3l0,0c1.3,3.6-0.6,7.6-4.3,8.9l-66.9,23.8l0,0L959.8,493.6
	L959.8,493.6z"/>
<path class="st3" d="M896.1,452.6l16.3-5.8c30.2-10.7,63.3,5.1,74.1,35.2l5.8,16.3c4.2,11.8-2,24.8-13.8,29l-49.6,17.6
	c-11.8,4.2-24.8-2-29-13.8l-17.6-49.6C878.1,469.8,884.3,456.8,896.1,452.6z"/>
<path class="st2" d="M692.1,119.5c-0.7-0.2-1.4-0.3-2.1-0.1c-1,0.1-2,0.6-2.8,1.4c0.4,0.2,0.8,0.2,1.2,0c0.7-0.2,1.3-0.2,2-0.2
	c0.6,0,2.3,0.6,2.8,0.4C693.9,120.4,692.6,119.7,692.1,119.5z"/>
<path class="st2" d="M747.1,87.9c-1.5-0.5-2.9-1.2-4.3-2.1c-3.5-2.2-6.5-5.3-9.9-7.5c-1.8-1.1-3.6-2.1-5.4-3l-11.7-6
	c-0.9-0.5-1.8-0.9-2.8-1.2c-1.9-0.4-4.1,0.9-6,0.6c-2-0.4-3.8-1.6-4.9-3.4c-1.1-1.7-1.8-3.7-2.2-5.7c-0.3-1.2-0.5-2.4-0.7-3.6
	c-0.2-1.3-0.2-2.5-0.1-3.8c0.2-2.5,1.4-4.8,3.3-6.5c1.4-1,3-1.7,4.6-2c1.1-0.3,2.1-0.4,3.2-0.5c0.6,0,1.2,0,1.8,0
	c4.4,0.3,8.2,3.3,11.1,6.7c1.5,1.7,3,3.6,4.5,5.4c0.3,1.1,0.8,2.1,1.3,3.2c1.6,3.2,4.2,5.7,6.7,8.1l2.8,2.7c1.4,1.3,3.8,1,5.1,2.4
	c0.5,0.7,0.9,1.4,1.2,2.2c1.5,3.6,2.3,7.5,2.5,11.4C747.3,86.2,747.2,87.1,747.1,87.9z"/>
<path class="st2" d="M656.1,215.9l-60.3,8.9c0.1-1.6,0.6-3.2,1.4-4.6c7-2,14.1-4,21.4-3.9c2.4,0,4.7,0.3,7.1,0.4
	c6.8,0.2,13.5-2.9,20.3-2c1.4,0.1,2.7-0.6,3.3-1.9c0.3-0.7,0.4-1.7,1.2-2c0.5-0.2,1.3,0,1.6-0.4c0.1-0.2,0.2-0.5,0.2-0.8
	c0.2-1,1.2-1.5,2-2c2-1.4,3.1-3.7,4.1-6c0.3-0.5,0.4-1,0.5-1.6c0-0.4-0.1-0.9-0.1-1.3c0-1.6,1.8-2.5,2.7-3.8c1.2-1.7,1-4,1.6-6
	c0.8-2.5,2.9-4.3,3.5-6.8l0.3-0.3l10.3-4L656.1,215.9z"/>
<ellipse class="st10" cx="425" cy="668.7" rx="425" ry="33"/>
<ellipse class="st10" cx="800.7" cy="752.9" rx="275" ry="35.8"/>
<path class="st11" d="M475.3,641.9l0.3-14.2c13.3-0.8,26.7-1.3,40-1.5c7.7-0.1,15.6-0.2,23.1,1.8c5.2,1.3,10.1,3.6,15.2,5.2
	c10.2,3.2,21,3.6,31.7,3.9c10.4,0.3,21.2,0.4,30.6-4.2c16.2-8,22.9-27.7,23.7-45.6s-2.8-36.1-0.3-54"/>
<polygon class="st1" points="511.8,669.7 333.6,667.4 334.1,662.8 342.8,587.4 499.2,587.4 510.8,662.8 511.6,668.5 "/>
<polygon class="st2" points="511.6,668.5 422.7,668.5 333.6,667.4 334.1,662.8 510.8,662.8 "/>
<rect x="303.9" y="664" class="st1" width="236.4" height="5.7"/>
<path class="st3" d="M766,134.6c0.1-8.2-6.5-14.9-14.7-15c0,0,0,0-0.1,0H90.8c-8.2,0-14.8,6.7-14.8,15c0,0,0,0,0,0v400.3H766V134.6z
	"/>
<path class="st1" d="M76,530.9v46.9c0,8.2,6.6,14.8,14.8,14.8h660.3c8.2,0,14.8-6.6,14.8-14.8v-46.9H76z"/>
<rect x="104.6" y="144.8" class="st12" width="636.2" height="359.8"/>
<path class="st13" d="M424.4,574.8c4.7,0,9.2-2.2,12.1-5.9l0,0c0.4-0.6,0.8-1.2,1.2-1.8l-8.5-1.4l9.1,0.1c1.8-3.9,1.9-8.3,0.3-12.2
	l-12.3,6.4l11.3-8.3c-4.2-7.4-13.6-10.1-21-5.9c-7.4,4.2-10.1,13.6-5.9,21c0.4,0.8,0.9,1.5,1.5,2.2l0,0
	C415.3,572.6,419.7,574.8,424.4,574.8z"/>
<polygon class="st2" points="439.9,592.6 510.9,664 500,592.6 "/>
<path class="st11" d="M745.2,141.9l38.2-50.6c2.3-3,4.6-6.1,7.8-8.3c9-6.2,22.2-2.5,29.7,5.4s10.7,19.1,13,29.8
	c5.4,24.7,7.8,49.9,7.2,75.2c-0.3,13.3-1.5,26.7-5.7,39.3c-6.4,19.2-19.4,35.3-29.3,53c-15.8,28.5-22.5,66.4-2.4,92.1
	c6.5,8.4,15.4,14.8,21.5,23.5c6.8,9.9,9.5,21.9,12,33.7c3.8,17.7,7.6,35.5,8.3,53.6c2.3,58.5-31.1,116.9-82.6,144.7
	c-35.8,19.3-79,24.9-110.1,51.1c-11,9.2-20.5,22.8-17.8,36.9c2.2,11.4,12.2,20.1,23.2,23.8s22.9,3.5,34.5,2.8
	c27.9-1.6,55.6-5,83-10.3c23.2-4.4,46.4-8.3,66.7-20.5c2-1.1,3.8-2.6,5-4.5c1.3-2.2,1.5-4.8,1.7-7.4c0.5-7.5,1.1-15.3-1.6-22.3
	c-3.1-8.2-10.1-14.5-13.5-22.6s-2.8-17.5-0.6-26c2.7-10.5,7.6-20.4,12.5-30c4.8-9.4,9.7-18.8,15.3-27.8c15.9-25.2,37.7-46,59.3-66.5
	"/>
<path class="st5" d="M808.4,69.3c1.7-0.7,3.5-1.1,5.3-1.2c1.2,0.1,2.3,0.4,3.4,0.8c2,0.6,3.8,1.5,5.4,2.8c1.6,1.3,2.5,3.3,2.4,5.4
	c-0.2,2-1.7,3.7-3.3,5c-2.2,1.8-4.9,2.9-7.8,3c-3.2,0-6.2-1.4-9.3-2.2c-2.2-0.6-4.5-1-6.9-1c-1.2,0.1-2.3,0-3.5-0.2
	c-1.2-0.2-2.2-1-2.7-2.1c-0.3-1-0.3-2,0-2.9c0.2-1.2,0.2-4.2,1.3-4.9c0.9-0.6,4-0.1,5.1-0.2C801.5,71.2,805,70.4,808.4,69.3z"/>
<path class="st14" d="M794.5,70.3c-4.1,1.9-9,0.3-13.5,0.3c-2.2,0-4.4,0.4-6.6,0.5c-2.4,0.1-4.9,0-7.3-0.2l-7.3-0.5
	c-4.3-0.1-8.6-0.7-12.8-1.8c-3.6-4.2-9.4-6.1-13.7-9.5c-3.5-2.8-5.9-6.5-8.9-9.8s-6.7-6.3-11.1-6.7c-1.7-0.1-3.4,0.1-5.1,0.5
	c-1.7,0.3-3.2,1-4.6,2c-1.9,1.6-3.1,4-3.3,6.5c-0.2,2.5,0.1,5,0.7,7.4c0.4,2,1.1,3.9,2.2,5.7c1.1,1.8,2.9,3,4.9,3.4
	c1.9,0.3,4.1-1,6-0.6c1,0.3,1.9,0.7,2.8,1.2l11.7,6c1.9,0.9,3.7,1.9,5.4,3c3.5,2.3,6.4,5.3,9.9,7.5s7.9,3.6,11.8,2.2
	c12-4.5,25.5-2.4,38.3-1.3c-0.1-0.2,0.4-0.5,0.6-0.7c1.6-2.2,2.3-4.8,2-7.5C796.4,75.3,795.4,72.9,794.5,70.3z"/>
<path class="st12" d="M774.4,36.7c1.2-0.6,2.3-1.5,3-2.7c1.1-2.1,0.4-4.7-0.3-7s-1.6-4.3-2.4-6.4c-0.6-1.8-1.6-3.4-2.8-4.9
	c-1.8-1.9-4.3-2.8-6.4-4.3c-2.5-1.8-4.4-4.3-6.5-6.5s-4.7-4.3-7.7-4.6c-2.3-0.1-4.7,0.3-6.8,1.3c-18.3,6.7-33.2,20-49.5,30.5
	c-6.4,4.1-13.5,7.9-21,7.4l6.7,10.7c1.7,2.7,3.6,5.6,6.6,6.8c2.7,1,5.6,0.5,8.4,0c2.2-0.3,4.4-1,6.4-1.9c4-2.2,6.6-6.7,10.9-8.3
	c3.2-1.2,6.8-0.4,10,0.7s6.4,2.6,9.7,3.1c6,0.8,12-1.9,17-5.4c3-2.1,5.7-4.5,9-6c2.5-1.3,5.3-1.8,8-1.4
	C769.6,38.1,771.4,38.2,774.4,36.7z"/>
<path class="st2" d="M777.4,34c1.1-2.1,0.5-4.6-0.3-6.8c0.2,1.3,0.1,2.6-0.5,3.8c-0.7,1.2-1.8,2.1-3,2.7c-3,1.6-4.8,1.4-7.9,0.9
	c-2.7-0.4-5.5,0.1-8,1.4c-3.3,1.6-6,4-9,6c-5,3.5-11,6.2-17,5.4c-3.4-0.4-6.5-2-9.7-3.1s-6.8-1.8-10-0.7c-4.3,1.6-6.8,6.1-10.9,8.3
	c-2,1-4.2,1.6-6.4,1.9c-2.8,0.5-5.8,1.1-8.4,0c-3-1.2-4.9-4.1-6.6-6.8l-4.8-7.6c-0.4,0-0.8,0-1.2,0l6.7,10.7
	c1.7,2.7,3.6,5.6,6.6,6.8c2.7,1,5.6,0.5,8.4,0c2.2-0.3,4.4-1,6.4-1.9c4-2.2,6.6-6.7,10.9-8.3c3.2-1.2,6.8-0.4,10,0.7
	s6.4,2.6,9.7,3.1c6,0.8,12-1.9,17-5.4c3-2.1,5.7-4.5,9-6c2.5-1.3,5.3-1.8,8-1.4c3.1,0.5,4.9,0.6,7.9-0.9
	C775.6,36.1,776.7,35.2,777.4,34z"/>
<linearGradient id="SVGID_2_" gradientUnits="userSpaceOnUse" x1="1844.8357" y1="-40.043" x2="1844.8357" y2="288.347" gradientTransform="matrix(-1 -4.000000e-02 4.000000e-02 -1 2746.96 773.64)">
	<stop  offset="0" style="stop-color:#808080;stop-opacity:0.25"/>
	<stop  offset="0.54" style="stop-color:#808080;stop-opacity:0.12"/>
	<stop  offset="1" style="stop-color:#808080;stop-opacity:0.1"/>
</linearGradient>
<path class="st15" d="M829.1,718c0.6-0.9,1.3-1.7,2.2-2.4c4.4-4.1,6.4-10.2,7.5-16.1s1.4-12,3.1-17.8c0.9-3,2.1-5.9,3.5-8.7
	c1-2.1,2.3-6.3,4.1-7.8c0.4-0.3,0.8-0.5,1.3-0.6c0.9-1.8,2.1-3.5,3.6-4.8c2.9-2.6,6.3-4.7,8.3-8c0.5-1.2,1.2-2.3,1.9-3.3
	c1.3-1.4,3.3-2,4.5-3.5c1.5-1.9,1.2-4.7,1-7.2s0-5.4,2.1-6.7c1.3-0.8,2.9-0.7,4.3-1.4c2-1,2.8-3.5,2.8-5.8s-0.7-4.4-0.9-6.7
	c-0.6-7.2,4.2-14.3,2.3-21.2c-0.7-2.6-2.3-4.9-3.4-7.4c-0.4-0.8-0.7-1.7-1-2.5c-3.1,1.2-6.4,2-9.7,2.3c5.5-12.4,4.1-26.7,6.7-40
	l-0.3-0.5c-2.6-3.4-4.1-7.6-4.2-11.8c0-5,2.3-9.6,3.3-14.4c0.9-4.1,0.8-8.4,2-12.4c0.8-2.5,1.9-4.9,3.2-7.2c1.3-2.3,2.6-4.6,3.9-6.8
	c1.3-4.2,2.6-8.5,3.8-12.7c1.8-6,3.7-12,7.2-17.1c1.3-1.9,1.7-5.7,3.6-6.8c1.6-0.8,3.4-1.2,5.2-0.9c2.8-1.6,5.2-3.8,5.6-6.9
	c0-0.7,0-1.3-0.2-2h-0.3c-4.4-0.4-6.6-4.3-8.9-7.7c-3.7-5.5-2.3-13,0-19.2c0.6-2,1.6-3.8,3-5.3c3.2-3,8.3-2.3,12.4-3.8
	c1.3-0.6,2.7-1.1,4.1-1.5c2.8-0.6,5.6,0.3,8.2,1.5s4.9,2.9,7.5,3.9s5.9,1.8,6.5,4.5c0.2,0.9,0.1,1.9-0.2,2.7
	c-0.6,1.7-1.7,3.3-3.1,4.5c4.3,8.9,0.6,19.5-8.3,23.8c-0.8,0.4-1.7,0.7-2.6,1c-0.8,1.2-1.5,2.5-2.1,3.7c-1.2,2.2-2.1,4.9-1.8,7.3
	c0.7,0.8,1.4,1.6,2,2.4c2.9,4,4.5,8.7,6,13.4c2,6,3.6,12.1,4.8,18.3c2.4,5.2,5.4,10.1,7.2,15.6c3.2,0,6.3-0.4,9.4-1.3l8.4-1.9
	c2.9-0.7,6-1.4,8.3-3.3c1.2-1,2.2-2.3,3.4-3.3s3.7-2.2,5.1-1.3c0.2,0.2,0.5,0.3,0.7,0.5c1.2-2.5,9.1,7.7,3.7,8.7l0.3,1
	c0.7,2.1,2.2,4.6,1.8,6.8l-37.6,12.9c-2.4,1-5,1.5-7.6,1.7c-1,0-2-0.1-3-0.4v1.9v0.1c-0.1,13.2,2,26.3,2.4,39.5c0.1,2.4,0,5-1.5,6.9
	c-1.7,2.1-4.7,2.5-7.3,2c-0.6-0.1-1.2-0.2-1.9-0.4c-0.9,3.3-1.5,6.7-1.9,10.1l-2.5,17.8c-0.3,1.8-0.5,3.7-0.4,5.5
	c0.3,4.2,2.5,7.9,4.1,11.8s2.5,8.5,0.4,12.1c-0.7,1.1-1.6,2.1-2.2,3.2c-0.7,1.8-1.1,3.7-1,5.7c-0.2,5.4-0.3,10.8-0.4,16.2
	c0.4-0.1,0.9,0,1.3,0.3c2.1,1.6,1.8,9.3,2,11.7c0.2,4,0,8.1,0.2,12.1c0.3,5.5,1.2,10.9,2.7,16.1c0.4,1.7,1.1,3.3,2.3,4.6
	c1.2,1,2.6,1.7,4.1,2.1c5,1.6,10.2,2.3,15.4,2.1c2.1-0.1,4.3-0.3,6.3,0.5s3.5,3,2.8,5c-0.6,1.7-2.5,2.5-4.1,3.1
	c-3.8,1.3-7.5,3-11,5.1c-1.4,0.9-2.8,1.7-4.3,2.4c-1.4,0.5-2.9,0.9-4.4,1.1l-17.7,3c-3.6,0.6-8,1-10.3-2c-1.3-1.6-1.4-3.8-1.4-5.9
	c0.1-4,0.9-8.1,0.4-12.1c-0.4-2.4-1-4.7-1.8-6.9l-5.3-15.7c-1.8-5.3-3.6-10.6-4.3-16.1c-0.3-2-0.2-4.3,1.3-5.5
	c0.4-0.3,0.8-0.5,1.3-0.7c0.1-4.8,0.7-9.7,0.4-14.5c-0.1-1.2-0.2-2.4-0.3-3.6c-0.9,0.9-1.8,1.9-2.5,2.9c-1.7,2.7-2.3,6.2-4.9,8
	c-2.2,1.5-5.5,1.4-7.1,3.6c-0.5,0.8-0.9,1.8-1.1,2.7c-0.9,2.4-2.3,4.5-4,6.3c-0.6,2.2-1.4,4.3-2.5,6.3c-1.5,3.1-2.9,6.2-4.4,9.3
	c-1.6,3.3-3.2,6.6-5,9.8c-1.4,2-2.5,4.2-3.3,6.5c-1.4,4.9,0.9,10.4,4.5,14s8.4,5.7,13.2,7.7c0.5,0.2,1,0.4,1.3,0.8
	c0.4,0.5,0.6,1.1,0.6,1.7c0,2.3-1.9,4.3-4.1,5c-2.2,0.6-4.6,0.7-6.8,0.3c-12.8-1.5-25.5-4.7-36.8-10.9c-1.7-0.8-3.2-2-4.4-3.4
	C828.7,721.7,828.4,719.7,829.1,718z"/>
<path class="st7" d="M883.1,493.8c-2.1,3.3-4.1,6.6-6,10.1c-1.3,2.3-2.4,4.7-3.2,7.2c-1.2,4-1.1,8.3-2,12.4c-1,4.8-3.3,9.4-3.3,14.3
	c0.1,4.3,1.6,8.4,4.2,11.8c2.6,3.4,5.5,6.4,8.8,9.1c7.6-19.6,11.8-40.3,12.5-61.2c0.1-2.9,0.1-5.9-0.9-8.6c-0.7-1.7-3.8-6.4-5.8-4.5
	c-0.7,0.7-0.9,3.7-1.4,4.7C885.2,490.6,884.2,492.2,883.1,493.8z"/>
<path class="st6" d="M883.1,493.8c-2.1,3.3-4.1,6.6-6,10.1c-1.3,2.3-2.4,4.7-3.2,7.2c-1.2,4-1.1,8.3-2,12.4c-1,4.8-3.3,9.4-3.3,14.3
	c0.1,4.3,1.6,8.4,4.2,11.8c2.6,3.4,5.5,6.4,8.8,9.1c7.6-19.6,11.8-40.3,12.5-61.2c0.1-2.9,0.1-5.9-0.9-8.6c-0.7-1.7-3.8-6.4-5.8-4.5
	c-0.7,0.7-0.9,3.7-1.4,4.7C885.2,490.6,884.2,492.2,883.1,493.8z"/>
<path class="st5" d="M990.4,504.7c3.9-0.7,8.3-0.3,11.3,2.2c1.8,1.6,3,3.8,3.2,6.2c0.3,2.8-1.3,6.1-4.1,6.3c-0.7,0-1.3,0-2-0.1
	c-1.8,0-3.5,0.1-5.2,0.4c-6.9,0.6-13.7-2.1-18.2-7.4c-2.4-2.9,0.8-4.3,3.6-4.9C982.8,506.6,986.6,505.4,990.4,504.7z"/>
<path class="st3" d="M923.5,595l-2.5,17.6c-0.3,1.8-0.4,3.7-0.4,5.5c0.3,4.2,2.5,7.9,4.1,11.7s2.6,8.4,0.5,12
	c-0.7,1.1-1.6,2.1-2.2,3.2c-0.7,1.8-1.1,3.7-1,5.6l-0.7,25c-7.7,0.5-15.5,0.5-23.2-0.1c-0.3,0-0.6-0.1-0.9-0.2
	c-0.2-0.3-0.3-0.6-0.3-0.9c-0.3-5.8,0.7-11.7,0.3-17.6c-0.1-2.1-0.4-4.3-0.5-6.4c-0.1-8.7,4.2-17.2,2.9-25.9
	c-0.4-2.2-0.9-4.3-1.6-6.4c-4.1-15-3.2-30.8-2.3-46.3c0-0.2,0.1-0.5,0.2-0.7c0.2-0.1,0.3-0.2,0.5-0.3c8.9-2.7,18.5-0.8,25.8,4.9
	c1.1,0.9,3.8,1.7,4.6,2.8c1,1.5-0.3,2.9-0.9,4.5C924.8,587,924,591,923.5,595z"/>
<path class="st2" d="M923.5,595l-2.5,17.6c-0.3,1.8-0.4,3.7-0.4,5.5c0.3,4.2,2.5,7.9,4.1,11.7s2.6,8.4,0.5,12
	c-0.7,1.1-1.6,2.1-2.2,3.2c-0.7,1.8-1.1,3.7-1,5.6l-0.7,25c-7.7,0.5-15.5,0.5-23.2-0.1c-0.3,0-0.6-0.1-0.9-0.2
	c-0.2-0.3-0.3-0.6-0.3-0.9c-0.3-5.8,0.7-11.7,0.3-17.6c-0.1-2.1-0.4-4.3-0.5-6.4c-0.1-8.7,4.2-17.2,2.9-25.9
	c-0.4-2.2-0.9-4.3-1.6-6.4c-4.1-15-3.2-30.8-2.3-46.3c0-0.2,0.1-0.5,0.2-0.7c0.2-0.1,0.3-0.2,0.5-0.3c8.9-2.7,18.5-0.8,25.8,4.9
	c1.1,0.9,3.8,1.7,4.6,2.8c1,1.5-0.3,2.9-0.9,4.5C924.8,587,924,591,923.5,595z"/>
<path class="st3" d="M877.2,589.7c1.2,2.4,2.7,4.7,3.4,7.3c1.8,6.9-2.9,14-2.3,21.1c0.2,2.2,0.9,4.4,0.9,6.6s-0.8,4.7-2.8,5.7
	c-1.3,0.7-3,0.6-4.3,1.4c-2.1,1.3-2.3,4.2-2.1,6.7s0.5,5.2-1,7.1c-1.2,1.5-3.2,2.1-4.5,3.5c-0.8,1-1.4,2.1-1.9,3.3
	c-1.9,3.3-5.4,5.4-8.3,8s-5.3,6.5-4,10.1c0.9,2.7,3.6,4.3,6.1,5.6c4.6,2.3,9.5,4,14.6,5.2c0.5,0.2,1.1,0.2,1.7,0.1
	c0.6-0.2,1.1-0.6,1.5-1c3-2.9,6-5.9,7.4-9.8c0.2-0.9,0.6-1.9,1.1-2.7c1.6-2.2,4.8-2.1,7.1-3.6c2.6-1.8,3.2-5.3,4.9-7.9
	c1.6-2.5,4.2-4.2,6-6.6c3-3.9,3.8-9,6-13.5c0.9-1.9,2.1-3.6,2.9-5.6c0.7-2.3,1.2-4.8,1.4-7.2c1.4-11.7,5-23.4,2.7-35
	c-0.5-2.5-1.3-5-1.6-7.6c-0.6-4.5,0.3-9.2-0.3-13.7c0-1.1-0.6-2.2-1.5-2.9c-0.5-0.2-1.1-0.4-1.7-0.4c-5.9-0.3-11.9-0.2-17.8,0.4
	c-3,0.3-6.4,0.9-8.2,3.3c-1.5,2.1-1.5,4.9-2,7.5c-0.6,3.1-2.2,4.8-3.9,7.3S876,587.2,877.2,589.7z"/>
<path class="st12" d="M900.3,670.9c-1.6,0-3.3-0.1-4.5,0.9c-1.5,1.2-1.5,3.5-1.3,5.5c0.7,5.5,2.5,10.7,4.3,16L904,709
	c0.8,2.2,1.5,4.5,1.8,6.9c0.5,4-0.3,8-0.4,12c0,2,0.1,4.2,1.4,5.8c2.3,2.9,6.7,2.6,10.3,1.9l17.7-3c1.5-0.2,3-0.6,4.4-1.1
	c1.5-0.7,2.9-1.5,4.3-2.4c3.5-2,7.2-3.7,11-5c1.7-0.6,3.5-1.4,4.1-3.1c0.7-2-0.9-4.2-2.8-5s-4.2-0.6-6.3-0.5
	c-5.2,0.2-10.4-0.5-15.4-2.1c-1.5-0.4-2.9-1.1-4.1-2.1c-1.1-1.3-1.9-2.9-2.3-4.6c-1.5-5.2-2.4-10.6-2.7-16c-0.2-4-0.1-8-0.2-12
	c-0.1-2.4,0.1-10-2-11.6c-1.6-1.2-8.1,2.2-10.3,2.6C908.5,670.7,904.4,671.1,900.3,670.9z"/>
<path class="st12" d="M841.9,682.1c-1.7,5.7-2,11.8-3.1,17.7s-3.1,11.9-7.5,16c-0.9,0.7-1.6,1.5-2.2,2.4c-0.8,1.7-0.5,3.8,0.8,5.2
	c1.2,1.4,2.7,2.6,4.4,3.4c11.3,6.2,24,9.3,36.8,10.8c2.3,0.4,4.6,0.4,6.8-0.2c2.2-0.7,4.1-2.7,4.1-5c0-0.6-0.2-1.2-0.6-1.7
	c-0.4-0.4-0.8-0.6-1.3-0.8c-4.7-1.9-9.5-4.1-13.2-7.6s-5.9-9-4.5-13.9c0.8-2.3,1.9-4.4,3.3-6.4c1.8-3.1,3.5-6.4,5-9.7l4.4-9.2
	c1.3-2.7,2.6-5.5,2.8-8.5c-5.5,0.3-11-0.6-16.2-2.6c-2.4-1-4.7-2.3-6.7-4c-1.7-1.4-3.3-4.1-5.5-2.2c-1.8,1.5-3,5.6-4.1,7.8
	C844,676.2,842.8,679.1,841.9,682.1z"/>
<path class="st5" d="M906.4,452.9c-0.4,3.8-4.2,6.4-7.7,7.9l22.5,7.2c-1.5-2.8-0.3-6.2,1.2-9c1.2-2.2,2.5-4.4,4-6.4
	c0.2-0.3,0.5-0.7,0.3-1.1c-0.1-0.2-0.4-0.4-0.6-0.5c-4.6-2.1-9.4-4.2-14.4-4.9c-1.5-0.2-4.2-0.8-5.3,0.7S906.6,451.1,906.4,452.9z"
	/>
<path class="st2" d="M906.4,452.9c-0.4,3.8-4.2,6.4-7.7,7.9l22.5,7.2c-1.5-2.8-0.3-6.2,1.2-9c1.2-2.2,2.5-4.4,4-6.4
	c0.2-0.3,0.5-0.7,0.3-1.1c-0.1-0.2-0.4-0.4-0.6-0.5c-4.6-2.1-9.4-4.2-14.4-4.9c-1.5-0.2-4.2-0.8-5.3,0.7S906.6,451.1,906.4,452.9z"
	/>
<circle class="st5" cx="919.5" cy="438.4" r="17.6"/>
<path class="st8" d="M934.7,583.3c-1.7,2-4.7,2.4-7.3,2c-6.2-1-11.2-5.5-17.2-7.2c-7.4-2-15.2,0.6-22.2,3.7s-13.9,7-21.5,7.5
	c6.9-15.4,3-33.8,9.5-49.3c1.6-3.8,3.9-7.4,4.2-11.5c0.5-5.1-2.1-10-2.5-15.1c-0.4-4.5,1-9,2.3-13.3l4.8-15.8
	c1.8-5.9,3.7-11.9,7.1-17c1.3-1.9,1.7-5.7,3.6-6.8c4.3-2.5,10.8,0.7,15.4,0.8s8.9,3.5,11.6,7.2c2.9,3.9,4.5,8.6,6,13.3
	c2.4,6.9,4.2,14,5.3,21.2c0.2,1.1,0.3,2.2,0.4,3.3c1,10.3-0.5,20.6-0.5,30.9c0,0,0,0,0,0.1c-0.1,13.1,2,26.1,2.4,39.2
	C936.3,578.9,936.2,581.5,934.7,583.3z"/>
<path class="st2" d="M933.8,537.3c-3.5-0.9-6.6-3.1-9.3-5.5c-2.3-2.1-4.4-4.4-6.1-7c-2.2-3.5-4-7.2-5.3-11.2
	c-3.7-10.4-6.1-21.3-7-32.3c-0.3-3-0.3-6.2,1.5-8.6c2.1-2.7,5.7-3.5,8.7-2.1c2.4,1.2,3.9,3.5,5.3,5.7c2.8,4.4,5.7,8.9,7.5,13.8
	c0.8,2.2,1.4,4.4,2.2,6.6c0.8,2.2,1.7,4.3,2.7,6.3c0.2,1.1,0.3,2.2,0.4,3.3C935.3,516.7,933.9,527,933.8,537.3z"/>
<path class="st14" d="M907.6,470.9c-1.8,2.4-1.7,5.6-1.5,8.6c0.9,11,3.3,21.9,7,32.3c1.3,3.9,3.1,7.7,5.3,11.2
	c1.8,2.6,3.8,4.9,6.1,7c3.4,3.1,7.5,5.9,12.2,5.9c2.6-0.1,5.1-0.7,7.6-1.7l37.5-12.7c0.4-2.2-1.1-4.6-1.8-6.7l-2-5.9
	c-0.6-1.6-1.2-3.4-2.7-4.3s-3.8,0.3-5.1,1.3s-2.2,2.3-3.4,3.3c-2.3,1.9-5.4,2.6-8.3,3.3l-8.4,1.9c-3.1,0.8-6.2,1.2-9.4,1.2
	c-2.3-7.2-6.8-13.5-9.3-20.6c-0.8-2.2-1.4-4.4-2.2-6.6c-1.8-4.9-4.6-9.4-7.5-13.8c-1.4-2.2-2.9-4.6-5.3-5.7
	C913.3,467.4,909.7,468.2,907.6,470.9z"/>
<path class="st12" d="M913.8,442.4c0.1-1.2,0.5-2.3,1.1-3.3c0.6-1,1.8-1.6,3-1.3c1.8,0.5,2.3,3.3,4.2,3.4c1.2,0.1,2.1-1.2,2.5-2.4
	s0.6-2.5,1.5-3.4c0.6-0.5,1.4-0.8,2.2-1c4.3-1.4,8.7-3.9,10.1-8.1c0.3-0.9,0.4-1.8,0.2-2.7c-0.7-2.7-4-3.5-6.5-4.5s-5-2.6-7.5-3.9
	s-5.4-2.2-8.2-1.5c-1.4,0.4-2.8,1-4.1,1.5c-4.1,1.4-9.2,0.8-12.4,3.8c-1.4,1.5-2.4,3.3-3,5.3c-2.3,6.2-3.7,13.6,0,19.1
	c2.3,3.4,4.5,7.2,8.9,7.6C911,451.4,913,446.7,913.8,442.4z"/>
<g class="st16">
	<path d="M921.6,436.6c0.4-1.2,0.6-2.5,1.5-3.4c0.6-0.5,1.4-0.8,2.2-1c4.3-1.4,8.7-3.8,10.1-8.1c0.3-0.9,0.4-1.8,0.2-2.7
		c-0.1-0.4-0.3-0.8-0.5-1.2c1.6,0.7,3,1.6,3.5,3.3c0.2,0.9,0.1,1.8-0.2,2.7c-1.4,4.3-5.8,6.8-10.1,8.1c-0.8,0.2-1.5,0.5-2.2,1
		c-0.9,0.8-1.1,2.2-1.5,3.4s-1.3,2.5-2.5,2.4s-1.8-1.2-2.6-2.1C920.5,438.8,921.3,437.7,921.6,436.6z"/>
	<path d="M902.9,448.8c5.1,0.5,7.2-4.2,8-8.5c0.1-1.2,0.5-2.3,1.1-3.3c0.6-1,1.8-1.6,3-1.3c1,0.3,1.6,1.2,2.2,2
		c-0.9,0.1-1.8,0.6-2.3,1.4c-0.6,1-0.9,2.1-1.1,3.3c-0.8,4.3-2.8,9-8,8.5c-2-0.2-3.9-1.2-5.3-2.7
		C901.3,448.4,902.1,448.7,902.9,448.8z"/>
</g>
<path class="st13" d="M170.8,650.3l19.1-11.3c-2.6-4.4-5.9-8.4-9.8-11.7L144,638.6l28.3-16.6c-22.3-12.2-50.2-4-62.4,18.2
	c-3.7,6.8-5.7,14.4-5.7,22.1c0,25.4,20.6,26.3,46,26.3s46-0.9,46-26.3c0-6.4-1.4-12.8-4-18.7L170.8,650.3z"/>
<path class="st2" d="M175.6,675c-2-2-4.3-3.8-6.8-5.3c-3.5-2.3-7.1-4.7-11.2-5.5c-3.6-0.7-7.3-0.1-11-0.3
	c-6.4-0.4-12.4-3.1-16.8-7.7c-2.6-2.7-4.7-6-7.8-8.1c-3.4-2.2-7.7-2.7-11.7-2.2c-1.2,0.2-2.3,0.4-3.5,0.7c-1.8,5-2.7,10.3-2.7,15.6
	c0,25.4,20.6,26.3,46,26.3c12.3,0,23.5-0.2,31.8-3.3l-1.4-2.6C179.3,679.9,177.6,677.3,175.6,675z"/>
<path class="st13" d="M584,714.6l-25.4-14.9c3.4-5.9,7.8-11.1,13-15.5l47.9,14.9L581.9,677c29.5-16.2,66.6-5.4,82.8,24.2
	c4.9,9,7.5,19.1,7.5,29.3c0,33.7-27.3,34.9-61,34.9s-61-1.2-61-34.9c0-8.5,1.8-17,5.2-24.8L584,714.6z"/>
<path class="st2" d="M577.5,747.3c2.7-2.7,5.7-5.1,9-7.1c4.6-3.1,9.4-6.2,14.8-7.2c4.8-0.9,9.7-0.1,14.5-0.4
	c8.4-0.5,16.4-4.2,22.3-10.2c3.5-3.6,6.2-8,10.4-10.7c4.5-3,10.2-3.6,15.5-2.8c1.6,0.2,3.1,0.5,4.6,0.9c2.4,6.6,3.6,13.6,3.6,20.7
	c0,33.7-27.3,34.9-61,34.9c-16.3,0-31.2-0.3-42.2-4.4l1.8-3.4C572.8,753.9,574.8,750.3,577.5,747.3z"/>
<g id="layer1" transform="translate(270.93144,-206.06838)">
	<g id="g394" transform="matrix(0.26458333,0,0,0.26458333,-270.66686,206.33296)">
		<radialGradient id="path380_1_" cx="1610.3982" cy="1226.233" r="101.9655" gradientUnits="userSpaceOnUse">
			<stop  offset="0" style="stop-color:#00F906"/>
			<stop  offset="1" style="stop-color:#6FF772"/>
		</radialGradient>
		<path id="path380" class="st17" d="M1331.6,1177.6l276.1-116.4l267.6,119.4l-268-422.6L1331.6,1177.6z M1332.4,1306.7l275.7,159.7
			l281.2-159.7l-278.6,387.8L1332.4,1306.7z"/>
		<radialGradient id="path382_1_" cx="1604.8766" cy="1258.5134" r="59.1883" gradientUnits="userSpaceOnUse">
			<stop  offset="0" style="stop-color:#00F906"/>
			<stop  offset="1" style="stop-color:#6FF772"/>
		</radialGradient>
		<path id="path382" class="st18" d="M1608.9,1118.1l-287.6,121.1l287.6,159.7l279.5-156.3L1608.9,1118.1z"/>
	</g>
</g>
</svg>
