<svg xmlns="http://www.w3.org/2000/svg" viewBox="0 0 512 512"><path d="M496 280c4.4 0 8-3.6 8-8V144c0-4.4-3.6-8-8-8h-8V48c0-22.1-17.9-40-40-40h-32c-22.1 0-40 17.9-40 40v88h-8c-4.4 0-8 3.6-8 8v128c0 4.4 3.6 8 8 8h56v128h-24c-22.1 0-40 17.9-40 40h-32c0-22.1-17.9-40-40-40h-24V280h56c4.4 0 8-3.6 8-8V144c0-4.4-3.6-8-8-8h-8V48c0-22.1-17.9-40-40-40h-32c-22.1 0-40 17.9-40 40v88h-8c-4.4 0-8 3.6-8 8v128c0 4.4 3.6 8 8 8h56v128h-24c-22.1 0-40 17.9-40 40h-32c0-22.1-17.9-40-40-40H88V280h56c4.4 0 8-3.6 8-8V144c0-4.4-3.6-8-8-8h-8V48c0-22.1-17.9-40-40-40H64C41.9 8 24 25.9 24 48v88h-8c-4.4 0-8 3.6-8 8v128c0 4.4 3.6 8 8 8h56v128H48c-22.1 0-40 17.9-40 40v16c0 22.1 17.9 40 40 40h64c22.1 0 40-17.9 40-40h32c0 22.1 17.9 40 40 40h64c22.1 0 40-17.9 40-40h32c0 22.1 17.9 40 40 40h64c22.1 0 40-17.9 40-40v-16c0-22.1-17.9-40-40-40h-24V280h56zM216 48c0-13.3 10.7-24 24-24h32c13.3 0 24 10.7 24 24v88h-80V48zm-16 216V152h112v112h-48v-32c0-.5-.1-.9-.3-1.4 12.6-4.3 19.3-17.9 15-30.4-4.3-12.6-17.9-19.3-30.4-15s-19.3 17.9-15 30.4c2.4 7.1 7.9 12.6 15 15-.1.5-.2.9-.3 1.4v32h-48zm56-48c-4.4 0-8-3.6-8-8s3.6-8 8-8 8 3.6 8 8-3.6 8-8 8zM40 48c0-13.3 10.7-24 24-24h32c13.3 0 24 10.7 24 24v88H40V48zM24 264V152h112v112H88v-32c0-.5-.1-.9-.3-1.4 12.6-4.3 19.3-17.9 15-30.4s-17.9-19.3-30.4-15-19.3 17.9-15 30.4c2.4 7.1 7.9 12.6 15 15-.1.5-.2.9-.3 1.4v32H24zm56-48c-4.4 0-8-3.6-8-8s3.6-8 8-8 8 3.6 8 8-3.6 8-8 8zm32 272H48c-13.3 0-24-10.7-24-24v-16c0-13.3 10.7-24 24-24h64c13.3 0 24 10.7 24 24h-24c-4.4 0-8 3.6-8 8s3.6 8 8 8h24c0 13.3-10.7 24-24 24zm176 0h-64c-13.3 0-24-10.7-24-24h24c4.4 0 8-3.6 8-8s-3.6-8-8-8h-24c0-13.3 10.7-24 24-24h64c13.3 0 24 10.7 24 24h-24c-4.4 0-8 3.6-8 8s3.6 8 8 8h24c0 13.3-10.7 24-24 24zm176-64c13.3 0 24 10.7 24 24v16c0 13.3-10.7 24-24 24h-64c-13.3 0-24-10.7-24-24h24c4.4 0 8-3.6 8-8s-3.6-8-8-8h-24c0-13.3 10.7-24 24-24h64zM392 48c0-13.3 10.7-24 24-24h32c13.3 0 24 10.7 24 24v88h-80V48zm-16 216V152h112v112h-48v-32c0-.5-.1-.9-.3-1.4 12.6-4.3 19.3-17.9 15-30.4-4.3-12.6-17.9-19.3-30.4-15s-19.3 17.9-15 30.4c2.4 7.1 7.9 12.6 15 15-.1.5-.2.9-.3 1.4v32h-48zm56-48c-4.4 0-8-3.6-8-8s3.6-8 8-8 8 3.6 8 8-3.6 8-8 8z" fill="#4caf50"/><linearGradient id="a" gradientUnits="userSpaceOnUse" x1="-59.963" y1="119.463" x2="2.543" y2="56.957" gradientTransform="matrix(8 0 0 8 686 -278)"><stop offset="0" stop-color="#003f8a"/><stop offset=".518" stop-color="#00d7df"/><stop offset="1" stop-color="#006df0"/></linearGradient><path d="M424 464h8c4.4 0 8-3.6 8-8s-3.6-8-8-8h-8c-4.4 0-8 3.6-8 8s3.6 8 8 8z" fill="url(#a)"/></svg>