<svg xmlns="http://www.w3.org/2000/svg" viewBox="0 0 512 512"><path d="M492 190.9c2.5-1.4 4-4.1 4-6.9v-64c0-2.9-1.5-5.5-4-6.9l-56-32c-2.5-1.4-5.5-1.4-7.9 0l-56 32c-2.5 1.4-4.1 4.1-4.1 6.9v19.1l-48-24V56c0-2.9-1.5-5.5-4-6.9l-56-32c-2.5-1.4-5.5-1.4-7.9 0l-56 32c-2.5 1.4-4.1 4.1-4.1 6.9v59.1l-48 24V120c0-2.9-1.5-5.5-4-6.9l-56-32c-2.5-1.4-5.5-1.4-7.9 0l-56 32c-2.5 1.4-4.1 4.1-4.1 6.9v64c0 2.9 1.5 5.5 4 6.9l52 29.7v70.7L20 321c-2.5 1.4-4 4.1-4 6.9v64c0 2.9 1.5 5.5 4 6.9l56 32c2.5 1.4 5.5 1.4 7.9 0l51.8-29.6 56.2 35.1V456c0 2.9 1.5 5.5 4 6.9l56 32c2.5 1.4 5.5 1.4 7.9 0l56-32c2.5-1.4 4.1-4.1 4.1-6.9v-19.6l56.2-35.1 51.8 29.6c2.5 1.4 5.5 1.4 7.9 0l56-32c2.5-1.4 4-4.1 4-6.9v-64c0-2.9-1.5-5.5-4-6.9l-52-29.7v-70.7l52.2-29.8zm-52 11.3v-45.6l40-22.9v45.6l-40 22.9zm-8 148.6L392.1 328l39.9-22.8 39.9 22.8-39.9 22.8zm-48-217l40 22.9v45.6l-40-22.9v-45.6zm48-36.6l39.9 22.8-39.9 22.8-39.9-22.8L432 97.2zM256 414.8L216.1 392l39.9-22.8 39.9 22.8-39.9 22.8zm-48-177l40 22.9v45.6l-40-22.9v-45.6zm56 22.8l40-22.9v45.6l-40 22.9v-45.6zm-8-13.8L216.1 224l39.9-22.8 39.9 22.8-39.9 22.8zm-48-177l40 22.9v45.6l-40-22.9V69.8zm56 22.8l40-22.9v45.6l-40 22.9V92.6zm-8-59.4L295.9 56 256 78.8 216.1 56 256 33.2zM88 156.6l40-22.9v45.6l-40 22.9v-45.6zm-8-59.4l39.9 22.8L80 142.8 40.1 120 80 97.2zm-48 36.6l40 22.9v45.6l-40-22.9v-45.6zm48 217L40.1 328 80 305.2l39.9 22.8L80 350.8zm-48-9l40 22.9v45.6l-40-22.9v-45.6zm56 68.4v-45.6l40-22.9v45.6l-40 22.9zm56-22.6V328c0-2.9-1.5-5.5-4-6.9l-52-29.7v-70.7l52-29.7c2.5-1.4 4-4.1 4-6.9V157l55.8-27.9 48.2 27.6v30.7l-52 29.7c-2.5 1.4-4 4.1-4 6.9v64c0 2.9 1.5 5.5 4 6.9l52 29.7v30.7L196 385c-2.5 1.4-4 4.1-4 6.9v25.6l-48-29.9zm64 18.2l40 22.9v45.6l-40-22.9v-45.6zm56 68.4v-45.6l40-22.9v45.6l-40 22.9zm52-89.1l-52-29.7v-30.7l52-29.7c2.5-1.4 4-4.1 4-6.9v-64c0-2.9-1.5-5.5-4-6.9l-52-29.7v-30.7l48.2-27.6 55.8 27.9V184c0 2.9 1.5 5.5 4 6.9l52 29.7v70.7L372 321c-2.5 1.4-4 4.1-4 6.9v59.6l-48 30V392c0-2.9-1.5-5.5-4-6.9zm68-43.3l40 22.9v45.6l-40-22.9v-45.6zm56 68.4v-45.6l40-22.9v45.6l-40 22.9z" fill="#4caf50"/></svg>