<svg version="1.1" id="ad7c1fe1-eb22-473c-bc85-8b4fe073a50d" xmlns="http://www.w3.org/2000/svg" x="0" y="0" viewBox="0 0 1094.7 788.7" xml:space="preserve"><style>.st1{fill:#d0d2d5}.st2{opacity:.1;enable-background:new}.st3{fill:#3f3d56}.st5{fill:#fbbebe}.st6{fill:#79d35b}.st7{fill:#f86d70}.st8{fill:#6ff772}.st10{opacity:.1;fill:#6b3862;enable-background:new}.st11{fill:none;stroke:#3f3d56;stroke-width:12;stroke-miterlimit:10}.st12{fill:#2f2e41}.st13{fill:#6b3862}.st14{fill:#6ff792}</style><g opacity=".5"><path class="st1" d="M974.8 367.7h105.8c7.8 0 14.1 6.3 14.1 14.1v105.8c0 7.8-6.3 14.1-14.1 14.1H974.8c-7.8 0-14.1-6.3-14.1-14.1V381.8c0-7.8 6.3-14.1 14.1-14.1z"/><path class="st2" d="M1008.7 406.2h38s32 28 0 57h-38s-32-26 0-57z"/><path class="st3" d="M1012.7 422.2h5v15h-5zm25-2h5v18h-5zm-10 26c3.3 0 6 2.7 6 6v5h-12v-5c0-3.3 2.7-6 6-6z"/></g><linearGradient id="SVGID_1_" gradientUnits="userSpaceOnUse" x1="3058.185" y1="367.817" x2="3058.185" y2="675.154" gradientTransform="matrix(.51 .86 .86 -.51 -1327.88 -2233.64)"><stop offset="0" stop-color="gray" stop-opacity=".25"/><stop offset=".54" stop-color="gray" stop-opacity=".12"/><stop offset="1" stop-color="gray" stop-opacity=".1"/></linearGradient><path d="M621.8 238.5c3.2-.1 6.3.2 9.5 0 2.9-.1 5.8-.6 8.7-.9 4.9-.5 9.9-.5 14.9-.7 3.3-.1 6.7-.5 9.3-2.4 2.5-1.8 3.9-4.7 6.1-6.8 9-8.6 15.2-20.2 23.2-29.8 2-2.4 4.1-4.9 5.9-7.5 3.5-5 5.9-10.7 8.4-16.3 1-2.1 1.8-4.2 2.4-6.4.5-1.8.7-3.6 1.3-5.3 1.2-3.5 4.2-6.6 4.6-10.3l-.4.1c3.6-4.6 3.1-12.7 4.9-18.6 1.2-3.5 2.5-7 4.2-10.3l6.7-14.6c1.2-2.5 2.3-5.1 4.3-7 2.4-2.3 5.8-3.5 8.2-5.8 1.4-1.4 2.5-3.2 3.1-5.1l.2.2c1.3 1.3 2.3 2.8 3.5 4.1 2.7 2.8 6.4 4.4 9.2 7.1 1.4 1.4 2.5 3.1 4.2 4.1 1.8 1 4 .7 5.4-.7 4.9-4.3 12.2-4.7 17.5-8.5 1.5-1.1 2.8-2.4 4.1-3.5 3.3-2.6 6.9-4.9 10.7-6.7 2.2 0 4.4.4 6.6.9 3.1.9 6.1 2.3 9.3 2.2 2.9-.1 5.6-1.2 7.8-3 1.6-1.3 3.1-3 3.4-5 .1-2.1-.8-4.1-2.4-5.4-.2-.2-.5-.4-.7-.5-.1-1.8-1-3.5-2.4-4.7-1.6-1.3-3.5-2.2-5.5-2.8-1.1-.4-2.3-.7-3.4-.8-1.8.1-3.6.5-5.3 1.3-3.4 1.1-6.9 1.8-10.5 2.2-.6.1-1.9-.1-3-.1l-.4-1.1c-4.2 1.9-9 .3-13.6.3-2.2 0-4.4.4-6.6.5-2.4.1-4.9 0-7.3-.2l-7.4-.5c-3.2-.2-6.3-.5-9.4-1-.8-1.7-1.7-3.4-2.6-5-1.6-2.7-3.4-5.3-5.5-7.6.8-.7 1.7-1.4 2.6-2l.2-.1c.2-.1.5-.3.8-.4 9.4 4.5 20.7.5 25.2-9 1.2-2.5 1.8-5.3 1.8-8.1.5-.2 1.1-.5 1.6-.7.3-.2.6-.3.9-.5l.4-.3c.3-.2.5-.4.8-.7.1-.1.2-.2.3-.4.2-.3.4-.5.6-.8.1-.1.1-.2.2-.3s0-.1 0-.1.1-.2.1-.3v-.2l.1-.2V29c0-.1 0-.2-.1-.3v-.1l-.1-.3v-.1c0-.1-.1-.2-.1-.3v-.1l-.1-.4v-.1c0-.2-.1-.3-.2-.5-.8-2.2-1.6-4.3-2.4-6.4-.6-1.8-1.6-3.4-2.8-4.9-1.8-1.9-4.3-2.8-6.4-4.3-2.5-1.8-4.4-4.3-6.5-6.5S755.2.5 752.2.1c-2.4-.1-4.8.3-7.1 1.3-18.4 6.8-33.4 20.1-49.9 30.7-6.4 4.1-13.6 8-21.2 7.5l6.7 10.6c.3.5.7 1 1 1.5s.7 1 1.1 1.5c.9 1.3 2.1 2.4 3.5 3.2.3.2.7.4 1.1.5.3.1.7.2 1 .3 2.4.6 5 .1 7.4-.4.8-.2 1.7-.3 2.5-.5l1-.3h.2v.2c-.6 1-1.1 1.9-1.6 2.9-1.5 3.6-2.7 7.3-3.6 11.1-1.9 7.5-3.8 15.2-3.3 22.9.2 2.6.6 5.3-.1 7.8-.4 1.2-1 2.5-.7 3.7.4.7.7 1.4.9 2.2.2 1.2-.8 2.2-1.4 3.1s-1 2.5-.1 3.2c-1.9.7-3.3 2.4-3.6 4.4 0 .6-.1 1.2-.3 1.7-.3.4-.6.7-1 .9-1 .9-1.7 2-1.9 3.4-1.9 0-3.6 1.9-5.3 3-1.5.8-3.2 1.4-4.8 1.8-4.8 1.5-9 4.7-12.8 8-2.1 1.8-4.2 3.9-5.1 6.5-.3.9-.5 1.8-.7 2.6-.5 1.7-1.3 3.3-2.3 4.7-1.9 3-4.3 5.6-7 7.8-1.4 1.1-2.6 2.4-3.6 3.9-1.5 2.2-4.6 2.9-6.3 5-.6 1-1.3 2.1-2 3-1.3 1.2-3.2 1.3-4.8 2-3.8 1.6-5.5 6-8.9 8.3-.2.2-.4.2-.7.2-.3 0-.5-.4-.7-.5-.5-.3-1.1-.1-1.7.1-.6.1-1.4.1-1.5-.5-8.2-4.9-16.2-10.3-24.3-15.2l-3.7-2.3-19.9-12.1c-.5-.3-1.1-.3-1.6 0l-.6.4c-1-1.1-2.1-2-2.8-2.8-.3-.3-.5-.6-.8-.9.2 0 .4 0 .5-.1.5-.3.7-.8.4-1.3-.2-.5-.5-.9-.9-1.2-.9-.8-1.7-1.8-2.4-2.7-.8-1.2-1.7-2.4-2.6-3.4-1-1.1-2.4-1.7-3.9-1.6-.8.2-1.6.5-2.3.9-2.7 1.6-5.3 3.5-7.5 5.8-.2.1-.3.4-.3.6 0 .2.2.4.2.5 0 .2-.1.4-.2.5-1.3 1.7-2.9 3.1-4.7 4.3-2.5 1.9-5 3.9-7.5 5.9-1.5 1.1-2.7 2.5-3.5 4.3-.5 2-.3 4.1.6 5.9 1.7 3.9 4.6 7.1 7.5 10.3.5.6 1.1 1.1 1.9 1.3.6.1 1.2-.1 1.7-.4 1.8-1.2 2.1-3.6 2.2-5.7 0-1 .1-1.9.2-2.9 0-.2 0-.4.1-.6.2-.2.4-.4.6-.5l2.8-1.4c-.1-.1-.2-.3-.3-.4 2.1-.8 4.3-.9 6.5-.4 1.5.4 2.8 1.3 4.2 1.8-.2 1.9.1 3.8 1 5.4 5.1.5 9.8 2.8 14.3 5.1 3.7 1.8 7.3 3.9 10.8 6.1 2.8 1.8 5.6 3.8 8.3 5.8 3.8 2.8 7.5 5.9 11.2 8.9 2.4 2.1 5 4 7.7 5.7 7.2 4 16.9 4.2 23.5-.9 8.4-6.4 19-9.7 28-15.2 2.7-1.5 5.1-3.4 7.3-5.6 0 .3-.1.5-.1.8-.5 2.5-2.7 4.3-3.5 6.8-.6 2-.4 4.3-1.6 6-.9 1.3-2.7 2.2-2.7 3.8 0 .4.1.9.1 1.3-.1.6-.2 1.1-.5 1.6-1 2.3-2.1 4.6-4.2 6-.8.5-1.8 1-2 2 0 .3-.1.5-.2.8-.3.5-1.1.2-1.6.4-.8.3-.9 1.3-1.2 2-.6 1.3-1.9 2.1-3.3 1.9-6.8-.8-13.5 2.3-20.4 2.1-2.4-.1-4.7-.3-7.1-.3-7.3-.1-14.5 2-21.5 4-.8 1.4-1.3 2.9-1.4 4.5-2.4.6-4.9.7-7.3.3l-1.8-.3c.2-.5.2-.9.2-1.4-2.9.9-5.6 2.1-8.2 3.7-1.7 1-3.5 2.4-3.7 4.4 0 .8.1 1.5.3 2.2l.9 3.5c.1.7.4 1.3.8 1.8.3.3.7.5 1 .8.3.4.5.8.5 1.3l.8 3.1c.3 1 .5 2.1.6 3.1.1 1 0 1.9.1 2.9.1 1.6.3 3.2.7 4.7l1.1 5.5c.2 1.5.7 3.1 1.3 4.5.5 1 1.1 1.9 1.5 2.9.3.8.4 1.6.8 2.3.6 1.2 1.7 2.1 2.9 2.7.4.3.9.4 1.4.4 1.4 0 2.4-1.3 3.1-2.6 1.3-2.3 2-4.9 2.1-7.5 0-1.1-.2-2.1-.3-3.2-.2-3 .6-5.9.6-8.9.1-.8-.5-1.6-1.3-1.8.1-2.5.1-5.2 1.4-7.4.7-1 1.5-1.9 2.4-2.6.4 1.2.8 2.4 1.2 3.5 7.7-2.1 15.6-4.2 23.6-4.4zM784.4 84.9c-.5.2-1.1.4-1.7.6-4.7 1.6-10 3.1-14.8 2-1.5-.4-2.8-1.1-4.1-2l-.3-.2c6.8-1.2 13.9-1 20.9-.4z" fill="url(#SVGID_1_)"/><path class="st5" d="M811.4 74.6c1.7-.7 3.5-1.1 5.3-1.2 1.2.1 2.3.4 3.4.8 2 .6 3.8 1.5 5.4 2.8 1.6 1.3 2.5 3.3 2.4 5.4-.2 2-1.7 3.7-3.3 5-2.2 1.8-4.9 2.9-7.8 3-3.2.1-6.2-1.4-9.3-2.2-2.2-.6-4.5-1-6.9-1-1.2.1-2.3 0-3.5-.2-1.2-.2-2.2-1-2.7-2.1-.3-1-.3-2 0-3 .2-1.2.2-4.2 1.3-4.9.9-.6 4-.1 5.1-.2 3.7-.4 7.2-1.1 10.6-2.2z"/><path class="st6" d="M740 54.5c3 3 5.6 6.3 7.8 10 3.5 6.1 5.8 13.3 11.1 18 1.4 1.2 2.9 2.3 4.5 3.2 1.2.9 2.6 1.6 4.1 2 4.8 1.1 10.1-.4 14.7-2s9.1-3.7 13.3-6c0 1.9.6 3.8 1.6 5.5 1.1 1.6 3.4 2.5 5 1.5-4.1 1.9-8 4.3-11.5 7.1-1.4 1.2-2.6 2.4-4.1 3.5-5.3 3.8-12.6 4.2-17.4 8.5-1.5 1.3-3.7 1.6-5.4.6-1.7-1-2.8-2.7-4.2-4.1-2.7-2.7-6.5-4.3-9.2-7.1-1.3-1.3-2.3-2.8-3.5-4.1-1.8-1.8-4.2-3-5.9-5-1.3-1.5-2-3.3-3.2-4.8-1-1.4-2.2-2.6-3.1-4-2.2-3.5-2.2-8-.9-11.9s4-7.5 6.3-10.9z"/><path class="st5" d="M562.3 146.8c-.8-1-1.7-1.9-2.8-2.6-1.7-.7-3.5-.9-5.3-.5-4.5.7-8.6 2.7-12.5 5-3.2 1.8-6.3 3.8-8.6 6.7-.7.9-1.3 1.9-1.5 3-.1.9 0 1.8.2 2.7.4 2 1.7 3.7 3.6 4.6 2.1.8 4.4-.1 6.5-.9 2.8-1.1 5.9-2.1 8.8-1.2 2.2.6 4 2.3 6.3 2.3 2.7.1 4.8-2.1 6.5-4.1 1.5-1.8 4.7-5 4.5-7.6s-4.1-5.6-5.7-7.4zm33.7 77.8c-2.4.7-5 .8-7.5.3-1.5-.3-3.4-.6-4.3.5-.3.4-.5.9-.6 1.5-2.5 10.2-.2 21 4 30.6.1.2.2.3.3.4.3.2.6.1 1-.1 1-.4 2-1 2.8-1.6 1.9-1.7 2.3-4.6 2.4-7.2s0-5.3 1.4-7.5c1.7-2.8 5.2-4.1 6.6-7 1.1-2.4.5-5.2-.5-7.6-.3-.8-.5-3-1.2-3.4s-3.5.9-4.4 1.1z"/><path class="st7" d="M562 145.8c.5-.3.6-.8.4-1.3-.2-.5-.5-.9-.9-1.2-.9-.8-1.7-1.8-2.4-2.7-.8-1.2-1.7-2.4-2.6-3.4-1-1.1-2.4-1.7-3.9-1.6-.8.1-1.6.5-2.3.9-2.7 1.6-5.2 3.5-7.5 5.7-.2.2-.4.4-.3.6s.2.3.2.5-.1.4-.2.5c-1.3 1.7-2.9 3.1-4.7 4.3-2.5 1.9-5 3.9-7.4 5.9-1.5 1.1-2.7 2.5-3.5 4.2-.5 2-.3 4.1.6 5.9 1.7 3.9 4.6 7.2 7.5 10.3.5.6 1.2 1.1 1.9 1.4.6.1 1.2-.1 1.7-.4 1.8-1.1 2-3.5 2.2-5.6l.2-2.9c0-.2 0-.4.1-.5.2-.2.4-.4.6-.5l2.7-1.4c-1.7-2.8-4.8-4.4-8-4.2-.7.2-1.5.1-2.1-.3-.7-.7-.7-1.8 0-2.4.7-.6 1.5-1.1 2.4-1.3 7.2-2.6 13.7-6.9 20.6-10 .8-.4 1.6-.6 2.5-.6.7 0 1.6.4 2.2.1zm28.3 104.7c-.3.6-.4 1.3-.8 1.9s-1.1 1-1.7.7c-.3-.2-.5-.5-.7-.9-3-6.9-3.9-14.6-2.5-22.1.2-1.2.6-2.4 1.1-3.5.5-1.1 1.3-2.2 1.1-3.4-2.9.9-5.6 2.1-8.2 3.6-1.7 1-3.5 2.4-3.7 4.4 0 .8.1 1.5.3 2.2l.9 3.5c.1.7.4 1.3.8 1.8.3.3.7.5 1 .8.3.4.5.8.5 1.3l.8 3.1c.3 1 .5 2.1.6 3.1.1 1 0 1.9.1 2.9.1 1.6.3 3.1.7 4.7l1.1 5.5c.3 1.5.7 3.1 1.3 4.5.5 1 1.1 1.9 1.5 2.9.3.8.4 1.6.8 2.3.6 1.2 1.7 2.1 2.9 2.7.4.3.9.4 1.4.5 1.4 0 2.4-1.3 3.1-2.6 1.3-2.3 2-4.9 2-7.5 0-1.1-.2-2.1-.3-3.2-.3-3 .6-5.9.6-8.9.3-2.7-3.7-2.2-4.7-.3z"/><path class="st5" d="M737 76.3c-3.1-1.4-5.9-3.6-8-6.3-1.1-1.4-2.1-2.9-3-4.4-3.8-6.4-7.1-13.1-9.8-20.1 4.3.9 8.7 1.7 12.9.5 2.2-.7 4.2-1.7 6-3.2 2.3-1.9 4.4-3.9 6.3-6.2 1.5 2.8 3.1 5.5 5 8 1.1 1.4 4.7 4.4 4.4 6.3s-4.3 2.9-5.9 3.9l-.2.1c-2.4 1.5-4.5 3.5-6.2 5.7-3 4.5-4 10.7-1.5 15.7z"/><path class="st2" d="M745.1 54.8c-4.9-2.4-8.5-6.8-9.8-12 2.3-1.9 4.4-3.9 6.3-6.2 1.5 2.8 3.1 5.5 5 8 1.1 1.4 4.7 4.4 4.4 6.3s-4.3 3-5.9 3.9z"/><circle class="st5" cx="754.1" cy="37.5" r="18.7"/><path class="st8" d="M713.1 154.2c-2.6 1.6-5.9 1.7-8.6.2-1.4-.9-2.6-1.9-3.7-3.1-6.2-6.3-12-13-16.1-20.8-1-1.7-1.6-3.5-1.8-5.4-.2-1.9.5-3.8 1.9-5.1.4-.3.7-.6 1-.9.2-.5.4-1.1.3-1.7.2-2 1.6-3.8 3.5-4.4-1-.7-.6-2.2 0-3.2s1.6-2 1.4-3.1c-.3-.7-.6-1.5-.9-2.2-.4-1.2.3-2.5.6-3.7.7-2.5.3-5.2.1-7.8-.5-7.7 1.3-15.3 3.2-22.8.8-3.8 2-7.5 3.5-11.1.5-1 1-2 1.5-2.9 1.9-3.1 4-6 6.3-8.8 1.1-1.6 2.6-2.9 4.3-3.8.2-.1.3-.1.5-.2 1.2-.3 2.5-.4 3.8-.3 3.4.2 6.9 1 9.3 3.4s3.2 5.7 4.3 8.9c.3 1.1.8 2.1 1.3 3.2 1.6 3.2 4.2 5.7 6.7 8.1l2.8 2.7c1.4 1.3 3.8 1 5.1 2.4.5.7.9 1.4 1.2 2.2 1.5 3.6 2.3 7.4 2.5 11.3 0 .9 0 1.7-.2 2.6-.3 3-1.7 5.8-3.8 8-2.4 2.3-5.7 3.4-8.1 5.8-2 1.9-3.2 4.5-4.3 7-2.2 4.8-4.4 9.7-6.6 14.5-1.6 3.3-3 6.7-4.1 10.3-1.9 7-.7 16.9-6.9 20.7z"/><path d="M655.4 236.6c-4.9.2-9.9.1-14.8.6-2.9.3-5.7.8-8.6.9-3.1.1-6.3-.1-9.4 0-7.9.2-15.8 2.3-23.4 4.5-2.2-5.3-3.3-10.9-3.3-16.6v-1.1c.1-1.6.6-3.2 1.4-4.6 7-2 14.1-4 21.4-3.9 2.4 0 4.7.3 7.1.4 6.8.2 13.5-2.9 20.3-2 1.4.1 2.7-.6 3.3-1.9.3-.7.4-1.7 1.2-2 .5-.2 1.3 0 1.6-.4.1-.2.2-.5.2-.8.2-1 1.2-1.5 2-2 2-1.4 3.1-3.7 4.1-6 .3-.5.4-1 .5-1.6 0-.4-.1-.9-.1-1.3 0-1.6 1.8-2.5 2.7-3.8 1.2-1.7 1-4 1.6-6 .8-2.5 2.9-4.3 3.5-6.8.1-.3.1-.5.1-.8-2.1 2.2-4.5 4.1-7.2 5.5-8.9 5.5-19.5 8.7-27.8 15.1-6.6 5-16.2 4.9-23.4.8-2.7-1.7-5.3-3.6-7.7-5.7-3.7-3-7.4-6.1-11.2-8.9-2.7-2-5.4-3.9-8.3-5.8-3.5-2.3-7-4.4-10.7-6.3-4.6-2.3-9.2-4.6-14.3-5.2-1.3-2.7-1.4-5.9-.3-8.6 1.2-2.7 2.7-5.3 4.7-7.5 1.4-2.1 3.3-4 5.4-5.5.5-.3 1.1-.3 1.6 0l19.8 12.2 3.7 2.3c8.1 5 16.1 10.4 24.3 15.3.2.6.9.6 1.5.5s1.2-.4 1.7-.1c.2.2.4.5.7.5.2 0 .5-.1.7-.2 3.4-2.3 5.1-6.8 8.8-8.3 1.6-.7 3.5-.8 4.8-2 .7-.9 1.4-1.9 2-3 1.6-2.1 4.7-2.8 6.2-5 1-1.4 2.2-2.7 3.6-3.8 2.7-2.2 5.1-4.8 7-7.8 1-1.5 1.8-3 2.3-4.7.3-.9.4-1.8.7-2.6.9-2.6 3-4.6 5.1-6.5 3.8-3.3 7.9-6.5 12.7-8 1.7-.4 3.3-1 4.8-1.8 1.9-1.2 3.7-3.4 5.9-2.9.8.3 1.6.7 2.2 1.4 2.7 2.6 5.2 5.5 7.5 8.5 3.6 4.5 7.1 9.1 10.7 13.6 1.1 1.6 2.5 3 4.2 4.1 2.4 1.2 5.1 1.6 7.8 1-.3 3.7-3.3 6.8-4.5 10.3-.6 1.7-.8 3.5-1.3 5.3-.6 2.2-1.4 4.3-2.4 6.4-2.4 5.6-4.8 11.2-8.3 16.2-1.8 2.6-3.8 5-5.8 7.4-7.9 9.6-14 21.1-23 29.7-2.2 2.1-3.6 5-6 6.8-3 2.1-6.5 2.4-9.6 2.5z" fill="#434175"/><path class="st2" d="M693 109.7c-.9 0-1.7.3-2.5.8 1.8-.6 4.1 1.1 5.8.3.8-.4.7-.5 0-.7-1-.4-2.2-.1-3.3-.4z"/><path transform="rotate(-19.549 974.424 459.86)" class="st1" d="M935.3 452.8h78v14h-78z"/><path class="st1" d="M959.8 493.6l66.9-23.8c3.6-1.3 7.6.6 8.9 4.3 1.3 3.6-.6 7.6-4.3 8.9l-66.9 23.8-4.6-13.2z"/><path class="st3" d="M896.1 452.6l16.3-5.8c30.2-10.7 63.3 5.1 74.1 35.2l5.8 16.3c4.2 11.8-2 24.8-13.8 29l-49.6 17.6c-11.8 4.2-24.8-2-29-13.8l-17.6-49.6c-4.2-11.7 2-24.7 13.8-28.9z"/><path class="st2" d="M692.1 119.5c-.7-.2-1.4-.3-2.1-.1-1 .1-2 .6-2.8 1.4.4.2.8.2 1.2 0 .7-.2 1.3-.2 2-.2.6 0 2.3.6 2.8.4.7-.6-.6-1.3-1.1-1.5zm55-31.6c-1.5-.5-2.9-1.2-4.3-2.1-3.5-2.2-6.5-5.3-9.9-7.5-1.8-1.1-3.6-2.1-5.4-3l-11.7-6c-.9-.5-1.8-.9-2.8-1.2-1.9-.4-4.1.9-6 .6-2-.4-3.8-1.6-4.9-3.4-1.1-1.7-1.8-3.7-2.2-5.7-.3-1.2-.5-2.4-.7-3.6-.2-1.3-.2-2.5-.1-3.8.2-2.5 1.4-4.8 3.3-6.5 1.4-1 3-1.7 4.6-2 1.1-.3 2.1-.4 3.2-.5h1.8c4.4.3 8.2 3.3 11.1 6.7 1.5 1.7 3 3.6 4.5 5.4.3 1.1.8 2.1 1.3 3.2 1.6 3.2 4.2 5.7 6.7 8.1l2.8 2.7c1.4 1.3 3.8 1 5.1 2.4.5.7.9 1.4 1.2 2.2 1.5 3.6 2.3 7.5 2.5 11.4.1.9 0 1.8-.1 2.6zm-91 128l-60.3 8.9c.1-1.6.6-3.2 1.4-4.6 7-2 14.1-4 21.4-3.9 2.4 0 4.7.3 7.1.4 6.8.2 13.5-2.9 20.3-2 1.4.1 2.7-.6 3.3-1.9.3-.7.4-1.7 1.2-2 .5-.2 1.3 0 1.6-.4.1-.2.2-.5.2-.8.2-1 1.2-1.5 2-2 2-1.4 3.1-3.7 4.1-6 .3-.5.4-1 .5-1.6 0-.4-.1-.9-.1-1.3 0-1.6 1.8-2.5 2.7-3.8 1.2-1.7 1-4 1.6-6 .8-2.5 2.9-4.3 3.5-6.8l.3-.3 10.3-4-21.1 38.1z"/><ellipse class="st10" cx="425" cy="668.7" rx="425" ry="33"/><ellipse class="st10" cx="800.7" cy="752.9" rx="275" ry="35.8"/><path class="st11" d="M475.3 641.9l.3-14.2c13.3-.8 26.7-1.3 40-1.5 7.7-.1 15.6-.2 23.1 1.8 5.2 1.3 10.1 3.6 15.2 5.2 10.2 3.2 21 3.6 31.7 3.9 10.4.3 21.2.4 30.6-4.2 16.2-8 22.9-27.7 23.7-45.6s-2.8-36.1-.3-54"/><path class="st1" d="M511.8 669.7l-178.2-2.3.5-4.6 8.7-75.4h156.4l11.6 75.4.8 5.7z"/><path class="st2" d="M511.6 668.5h-88.9l-89.1-1.1.5-4.6h176.7z"/><path class="st1" d="M303.9 664h236.4v5.7H303.9z"/><path class="st3" d="M766 134.6c.1-8.2-6.5-14.9-14.7-15H90.8c-8.2 0-14.8 6.7-14.8 15v400.3h690V134.6z"/><path class="st1" d="M76 530.9v46.9c0 8.2 6.6 14.8 14.8 14.8h660.3c8.2 0 14.8-6.6 14.8-14.8v-46.9H76z"/><path class="st12" d="M104.6 144.8h636.2v359.8H104.6z"/><path class="st13" d="M424.4 574.8c4.7 0 9.2-2.2 12.1-5.9l1.2-1.8-8.5-1.4 9.1.1c1.8-3.9 1.9-8.3.3-12.2l-12.3 6.4 11.3-8.3c-4.2-7.4-13.6-10.1-21-5.9-7.4 4.2-10.1 13.6-5.9 21 .4.8.9 1.5 1.5 2.2 3.1 3.6 7.5 5.8 12.2 5.8z"/><path class="st2" d="M439.9 592.6l71 71.4-10.9-71.4z"/><path class="st11" d="M745.2 141.9l38.2-50.6c2.3-3 4.6-6.1 7.8-8.3 9-6.2 22.2-2.5 29.7 5.4s10.7 19.1 13 29.8c5.4 24.7 7.8 49.9 7.2 75.2-.3 13.3-1.5 26.7-5.7 39.3-6.4 19.2-19.4 35.3-29.3 53-15.8 28.5-22.5 66.4-2.4 92.1 6.5 8.4 15.4 14.8 21.5 23.5 6.8 9.9 9.5 21.9 12 33.7 3.8 17.7 7.6 35.5 8.3 53.6 2.3 58.5-31.1 116.9-82.6 144.7-35.8 19.3-79 24.9-110.1 51.1-11 9.2-20.5 22.8-17.8 36.9 2.2 11.4 12.2 20.1 23.2 23.8s22.9 3.5 34.5 2.8c27.9-1.6 55.6-5 83-10.3 23.2-4.4 46.4-8.3 66.7-20.5 2-1.1 3.8-2.6 5-4.5 1.3-2.2 1.5-4.8 1.7-7.4.5-7.5 1.1-15.3-1.6-22.3-3.1-8.2-10.1-14.5-13.5-22.6s-2.8-17.5-.6-26c2.7-10.5 7.6-20.4 12.5-30 4.8-9.4 9.7-18.8 15.3-27.8 15.9-25.2 37.7-46 59.3-66.5"/><path class="st5" d="M808.4 69.3c1.7-.7 3.5-1.1 5.3-1.2 1.2.1 2.3.4 3.4.8 2 .6 3.8 1.5 5.4 2.8 1.6 1.3 2.5 3.3 2.4 5.4-.2 2-1.7 3.7-3.3 5-2.2 1.8-4.9 2.9-7.8 3-3.2 0-6.2-1.4-9.3-2.2-2.2-.6-4.5-1-6.9-1-1.2.1-2.3 0-3.5-.2-1.2-.2-2.2-1-2.7-2.1-.3-1-.3-2 0-2.9.2-1.2.2-4.2 1.3-4.9.9-.6 4-.1 5.1-.2 3.7-.4 7.2-1.2 10.6-2.3z"/><path class="st14" d="M794.5 70.3c-4.1 1.9-9 .3-13.5.3-2.2 0-4.4.4-6.6.5-2.4.1-4.9 0-7.3-.2l-7.3-.5c-4.3-.1-8.6-.7-12.8-1.8-3.6-4.2-9.4-6.1-13.7-9.5-3.5-2.8-5.9-6.5-8.9-9.8s-6.7-6.3-11.1-6.7c-1.7-.1-3.4.1-5.1.5-1.7.3-3.2 1-4.6 2-1.9 1.6-3.1 4-3.3 6.5-.2 2.5.1 5 .7 7.4.4 2 1.1 3.9 2.2 5.7 1.1 1.8 2.9 3 4.9 3.4 1.9.3 4.1-1 6-.6 1 .3 1.9.7 2.8 1.2l11.7 6c1.9.9 3.7 1.9 5.4 3 3.5 2.3 6.4 5.3 9.9 7.5s7.9 3.6 11.8 2.2c12-4.5 25.5-2.4 38.3-1.3-.1-.2.4-.5.6-.7 1.6-2.2 2.3-4.8 2-7.5-.2-2.6-1.2-5-2.1-7.6z"/><path class="st12" d="M774.4 36.7c1.2-.6 2.3-1.5 3-2.7 1.1-2.1.4-4.7-.3-7s-1.6-4.3-2.4-6.4c-.6-1.8-1.6-3.4-2.8-4.9-1.8-1.9-4.3-2.8-6.4-4.3-2.5-1.8-4.4-4.3-6.5-6.5S754.3.6 751.3.3c-2.3-.1-4.7.3-6.8 1.3-18.3 6.7-33.2 20-49.5 30.5-6.4 4.1-13.5 7.9-21 7.4l6.7 10.7c1.7 2.7 3.6 5.6 6.6 6.8 2.7 1 5.6.5 8.4 0 2.2-.3 4.4-1 6.4-1.9 4-2.2 6.6-6.7 10.9-8.3 3.2-1.2 6.8-.4 10 .7s6.4 2.6 9.7 3.1c6 .8 12-1.9 17-5.4 3-2.1 5.7-4.5 9-6 2.5-1.3 5.3-1.8 8-1.4 2.9.3 4.7.4 7.7-1.1z"/><path class="st2" d="M777.4 34c1.1-2.1.5-4.6-.3-6.8.2 1.3.1 2.6-.5 3.8-.7 1.2-1.8 2.1-3 2.7-3 1.6-4.8 1.4-7.9.9-2.7-.4-5.5.1-8 1.4-3.3 1.6-6 4-9 6-5 3.5-11 6.2-17 5.4-3.4-.4-6.5-2-9.7-3.1s-6.8-1.8-10-.7c-4.3 1.6-6.8 6.1-10.9 8.3-2 1-4.2 1.6-6.4 1.9-2.8.5-5.8 1.1-8.4 0-3-1.2-4.9-4.1-6.6-6.8l-4.8-7.6h-1.2l6.7 10.7c1.7 2.7 3.6 5.6 6.6 6.8 2.7 1 5.6.5 8.4 0 2.2-.3 4.4-1 6.4-1.9 4-2.2 6.6-6.7 10.9-8.3 3.2-1.2 6.8-.4 10 .7s6.4 2.6 9.7 3.1c6 .8 12-1.9 17-5.4 3-2.1 5.7-4.5 9-6 2.5-1.3 5.3-1.8 8-1.4 3.1.5 4.9.6 7.9-.9 1.3-.7 2.4-1.6 3.1-2.8z"/><linearGradient id="SVGID_2_" gradientUnits="userSpaceOnUse" x1="1844.836" y1="-40.043" x2="1844.836" y2="288.347" gradientTransform="rotate(-180 1380.664 359.207)"><stop offset="0" stop-color="gray" stop-opacity=".25"/><stop offset=".54" stop-color="gray" stop-opacity=".12"/><stop offset="1" stop-color="gray" stop-opacity=".1"/></linearGradient><path d="M829.1 718c.6-.9 1.3-1.7 2.2-2.4 4.4-4.1 6.4-10.2 7.5-16.1s1.4-12 3.1-17.8c.9-3 2.1-5.9 3.5-8.7 1-2.1 2.3-6.3 4.1-7.8.4-.3.8-.5 1.3-.6.9-1.8 2.1-3.5 3.6-4.8 2.9-2.6 6.3-4.7 8.3-8 .5-1.2 1.2-2.3 1.9-3.3 1.3-1.4 3.3-2 4.5-3.5 1.5-1.9 1.2-4.7 1-7.2s0-5.4 2.1-6.7c1.3-.8 2.9-.7 4.3-1.4 2-1 2.8-3.5 2.8-5.8s-.7-4.4-.9-6.7c-.6-7.2 4.2-14.3 2.3-21.2-.7-2.6-2.3-4.9-3.4-7.4-.4-.8-.7-1.7-1-2.5-3.1 1.2-6.4 2-9.7 2.3 5.5-12.4 4.1-26.7 6.7-40l-.3-.5c-2.6-3.4-4.1-7.6-4.2-11.8 0-5 2.3-9.6 3.3-14.4.9-4.1.8-8.4 2-12.4.8-2.5 1.9-4.9 3.2-7.2 1.3-2.3 2.6-4.6 3.9-6.8 1.3-4.2 2.6-8.5 3.8-12.7 1.8-6 3.7-12 7.2-17.1 1.3-1.9 1.7-5.7 3.6-6.8 1.6-.8 3.4-1.2 5.2-.9 2.8-1.6 5.2-3.8 5.6-6.9 0-.7 0-1.3-.2-2h-.3c-4.4-.4-6.6-4.3-8.9-7.7-3.7-5.5-2.3-13 0-19.2.6-2 1.6-3.8 3-5.3 3.2-3 8.3-2.3 12.4-3.8 1.3-.6 2.7-1.1 4.1-1.5 2.8-.6 5.6.3 8.2 1.5s4.9 2.9 7.5 3.9 5.9 1.8 6.5 4.5c.2.9.1 1.9-.2 2.7-.6 1.7-1.7 3.3-3.1 4.5 4.3 8.9.6 19.5-8.3 23.8-.8.4-1.7.7-2.6 1-.8 1.2-1.5 2.5-2.1 3.7-1.2 2.2-2.1 4.9-1.8 7.3.7.8 1.4 1.6 2 2.4 2.9 4 4.5 8.7 6 13.4 2 6 3.6 12.1 4.8 18.3 2.4 5.2 5.4 10.1 7.2 15.6 3.2 0 6.3-.4 9.4-1.3l8.4-1.9c2.9-.7 6-1.4 8.3-3.3 1.2-1 2.2-2.3 3.4-3.3s3.7-2.2 5.1-1.3c.2.2.5.3.7.5 1.2-2.5 9.1 7.7 3.7 8.7l.3 1c.7 2.1 2.2 4.6 1.8 6.8l-37.6 12.9c-2.4 1-5 1.5-7.6 1.7-1 0-2-.1-3-.4v2c-.1 13.2 2 26.3 2.4 39.5.1 2.4 0 5-1.5 6.9-1.7 2.1-4.7 2.5-7.3 2-.6-.1-1.2-.2-1.9-.4-.9 3.3-1.5 6.7-1.9 10.1L921 612c-.3 1.8-.5 3.7-.4 5.5.3 4.2 2.5 7.9 4.1 11.8s2.5 8.5.4 12.1c-.7 1.1-1.6 2.1-2.2 3.2-.7 1.8-1.1 3.7-1 5.7-.2 5.4-.3 10.8-.4 16.2.4-.1.9 0 1.3.3 2.1 1.6 1.8 9.3 2 11.7.2 4 0 8.1.2 12.1.3 5.5 1.2 10.9 2.7 16.1.4 1.7 1.1 3.3 2.3 4.6 1.2 1 2.6 1.7 4.1 2.1 5 1.6 10.2 2.3 15.4 2.1 2.1-.1 4.3-.3 6.3.5s3.5 3 2.8 5c-.6 1.7-2.5 2.5-4.1 3.1-3.8 1.3-7.5 3-11 5.1-1.4.9-2.8 1.7-4.3 2.4-1.4.5-2.9.9-4.4 1.1l-17.7 3c-3.6.6-8 1-10.3-2-1.3-1.6-1.4-3.8-1.4-5.9.1-4 .9-8.1.4-12.1-.4-2.4-1-4.7-1.8-6.9l-5.3-15.7c-1.8-5.3-3.6-10.6-4.3-16.1-.3-2-.2-4.3 1.3-5.5.4-.3.8-.5 1.3-.7.1-4.8.7-9.7.4-14.5l-.3-3.6c-.9.9-1.8 1.9-2.5 2.9-1.7 2.7-2.3 6.2-4.9 8-2.2 1.5-5.5 1.4-7.1 3.6-.5.8-.9 1.8-1.1 2.7-.9 2.4-2.3 4.5-4 6.3-.6 2.2-1.4 4.3-2.5 6.3-1.5 3.1-2.9 6.2-4.4 9.3-1.6 3.3-3.2 6.6-5 9.8-1.4 2-2.5 4.2-3.3 6.5-1.4 4.9.9 10.4 4.5 14s8.4 5.7 13.2 7.7c.5.2 1 .4 1.3.8.4.5.6 1.1.6 1.7 0 2.3-1.9 4.3-4.1 5-2.2.6-4.6.7-6.8.3-12.8-1.5-25.5-4.7-36.8-10.9-1.7-.8-3.2-2-4.4-3.4-1.1-1.6-1.4-3.6-.7-5.3z" fill="url(#SVGID_2_)"/><path class="st7" d="M883.1 493.8c-2.1 3.3-4.1 6.6-6 10.1-1.3 2.3-2.4 4.7-3.2 7.2-1.2 4-1.1 8.3-2 12.4-1 4.8-3.3 9.4-3.3 14.3.1 4.3 1.6 8.4 4.2 11.8 2.6 3.4 5.5 6.4 8.8 9.1 7.6-19.6 11.8-40.3 12.5-61.2.1-2.9.1-5.9-.9-8.6-.7-1.7-3.8-6.4-5.8-4.5-.7.7-.9 3.7-1.4 4.7-.8 1.5-1.8 3.1-2.9 4.7z"/><path class="st6" d="M883.1 493.8c-2.1 3.3-4.1 6.6-6 10.1-1.3 2.3-2.4 4.7-3.2 7.2-1.2 4-1.1 8.3-2 12.4-1 4.8-3.3 9.4-3.3 14.3.1 4.3 1.6 8.4 4.2 11.8 2.6 3.4 5.5 6.4 8.8 9.1 7.6-19.6 11.8-40.3 12.5-61.2.1-2.9.1-5.9-.9-8.6-.7-1.7-3.8-6.4-5.8-4.5-.7.7-.9 3.7-1.4 4.7-.8 1.5-1.8 3.1-2.9 4.7z"/><path class="st5" d="M990.4 504.7c3.9-.7 8.3-.3 11.3 2.2 1.8 1.6 3 3.8 3.2 6.2.3 2.8-1.3 6.1-4.1 6.3-.7 0-1.3 0-2-.1-1.8 0-3.5.1-5.2.4-6.9.6-13.7-2.1-18.2-7.4-2.4-2.9.8-4.3 3.6-4.9 3.8-.8 7.6-2 11.4-2.7z"/><path class="st3" d="M923.5 595l-2.5 17.6c-.3 1.8-.4 3.7-.4 5.5.3 4.2 2.5 7.9 4.1 11.7s2.6 8.4.5 12c-.7 1.1-1.6 2.1-2.2 3.2-.7 1.8-1.1 3.7-1 5.6l-.7 25c-7.7.5-15.5.5-23.2-.1-.3 0-.6-.1-.9-.2-.2-.3-.3-.6-.3-.9-.3-5.8.7-11.7.3-17.6-.1-2.1-.4-4.3-.5-6.4-.1-8.7 4.2-17.2 2.9-25.9-.4-2.2-.9-4.3-1.6-6.4-4.1-15-3.2-30.8-2.3-46.3 0-.2.1-.5.2-.7.2-.1.3-.2.5-.3 8.9-2.7 18.5-.8 25.8 4.9 1.1.9 3.8 1.7 4.6 2.8 1 1.5-.3 2.9-.9 4.5-1.1 4-1.9 8-2.4 12z"/><path class="st2" d="M923.5 595l-2.5 17.6c-.3 1.8-.4 3.7-.4 5.5.3 4.2 2.5 7.9 4.1 11.7s2.6 8.4.5 12c-.7 1.1-1.6 2.1-2.2 3.2-.7 1.8-1.1 3.7-1 5.6l-.7 25c-7.7.5-15.5.5-23.2-.1-.3 0-.6-.1-.9-.2-.2-.3-.3-.6-.3-.9-.3-5.8.7-11.7.3-17.6-.1-2.1-.4-4.3-.5-6.4-.1-8.7 4.2-17.2 2.9-25.9-.4-2.2-.9-4.3-1.6-6.4-4.1-15-3.2-30.8-2.3-46.3 0-.2.1-.5.2-.7.2-.1.3-.2.5-.3 8.9-2.7 18.5-.8 25.8 4.9 1.1.9 3.8 1.7 4.6 2.8 1 1.5-.3 2.9-.9 4.5-1.1 4-1.9 8-2.4 12z"/><path class="st3" d="M877.2 589.7c1.2 2.4 2.7 4.7 3.4 7.3 1.8 6.9-2.9 14-2.3 21.1.2 2.2.9 4.4.9 6.6s-.8 4.7-2.8 5.7c-1.3.7-3 .6-4.3 1.4-2.1 1.3-2.3 4.2-2.1 6.7s.5 5.2-1 7.1c-1.2 1.5-3.2 2.1-4.5 3.5-.8 1-1.4 2.1-1.9 3.3-1.9 3.3-5.4 5.4-8.3 8s-5.3 6.5-4 10.1c.9 2.7 3.6 4.3 6.1 5.6 4.6 2.3 9.5 4 14.6 5.2.5.2 1.1.2 1.7.1.6-.2 1.1-.6 1.5-1 3-2.9 6-5.9 7.4-9.8.2-.9.6-1.9 1.1-2.7 1.6-2.2 4.8-2.1 7.1-3.6 2.6-1.8 3.2-5.3 4.9-7.9 1.6-2.5 4.2-4.2 6-6.6 3-3.9 3.8-9 6-13.5.9-1.9 2.1-3.6 2.9-5.6.7-2.3 1.2-4.8 1.4-7.2 1.4-11.7 5-23.4 2.7-35-.5-2.5-1.3-5-1.6-7.6-.6-4.5.3-9.2-.3-13.7 0-1.1-.6-2.2-1.5-2.9-.5-.2-1.1-.4-1.7-.4-5.9-.3-11.9-.2-17.8.4-3 .3-6.4.9-8.2 3.3-1.5 2.1-1.5 4.9-2 7.5-.6 3.1-2.2 4.8-3.9 7.3s-.7 4.8.5 7.3z"/><path class="st12" d="M900.3 670.9c-1.6 0-3.3-.1-4.5.9-1.5 1.2-1.5 3.5-1.3 5.5.7 5.5 2.5 10.7 4.3 16L904 709c.8 2.2 1.5 4.5 1.8 6.9.5 4-.3 8-.4 12 0 2 .1 4.2 1.4 5.8 2.3 2.9 6.7 2.6 10.3 1.9l17.7-3c1.5-.2 3-.6 4.4-1.1 1.5-.7 2.9-1.5 4.3-2.4 3.5-2 7.2-3.7 11-5 1.7-.6 3.5-1.4 4.1-3.1.7-2-.9-4.2-2.8-5s-4.2-.6-6.3-.5c-5.2.2-10.4-.5-15.4-2.1-1.5-.4-2.9-1.1-4.1-2.1-1.1-1.3-1.9-2.9-2.3-4.6-1.5-5.2-2.4-10.6-2.7-16-.2-4-.1-8-.2-12-.1-2.4.1-10-2-11.6-1.6-1.2-8.1 2.2-10.3 2.6-4 1-8.1 1.4-12.2 1.2zm-58.4 11.2c-1.7 5.7-2 11.8-3.1 17.7s-3.1 11.9-7.5 16c-.9.7-1.6 1.5-2.2 2.4-.8 1.7-.5 3.8.8 5.2 1.2 1.4 2.7 2.6 4.4 3.4 11.3 6.2 24 9.3 36.8 10.8 2.3.4 4.6.4 6.8-.2 2.2-.7 4.1-2.7 4.1-5 0-.6-.2-1.2-.6-1.7-.4-.4-.8-.6-1.3-.8-4.7-1.9-9.5-4.1-13.2-7.6s-5.9-9-4.5-13.9c.8-2.3 1.9-4.4 3.3-6.4 1.8-3.1 3.5-6.4 5-9.7l4.4-9.2c1.3-2.7 2.6-5.5 2.8-8.5-5.5.3-11-.6-16.2-2.6-2.4-1-4.7-2.3-6.7-4-1.7-1.4-3.3-4.1-5.5-2.2-1.8 1.5-3 5.6-4.1 7.8-1.4 2.6-2.6 5.5-3.5 8.5z"/><path class="st5" d="M906.4 452.9c-.4 3.8-4.2 6.4-7.7 7.9l22.5 7.2c-1.5-2.8-.3-6.2 1.2-9 1.2-2.2 2.5-4.4 4-6.4.2-.3.5-.7.3-1.1-.1-.2-.4-.4-.6-.5-4.6-2.1-9.4-4.2-14.4-4.9-1.5-.2-4.2-.8-5.3.7s.2 4.3 0 6.1z"/><path class="st2" d="M906.4 452.9c-.4 3.8-4.2 6.4-7.7 7.9l22.5 7.2c-1.5-2.8-.3-6.2 1.2-9 1.2-2.2 2.5-4.4 4-6.4.2-.3.5-.7.3-1.1-.1-.2-.4-.4-.6-.5-4.6-2.1-9.4-4.2-14.4-4.9-1.5-.2-4.2-.8-5.3.7s.2 4.3 0 6.1z"/><circle class="st5" cx="919.5" cy="438.4" r="17.6"/><path class="st8" d="M934.7 583.3c-1.7 2-4.7 2.4-7.3 2-6.2-1-11.2-5.5-17.2-7.2-7.4-2-15.2.6-22.2 3.7s-13.9 7-21.5 7.5c6.9-15.4 3-33.8 9.5-49.3 1.6-3.8 3.9-7.4 4.2-11.5.5-5.1-2.1-10-2.5-15.1-.4-4.5 1-9 2.3-13.3l4.8-15.8c1.8-5.9 3.7-11.9 7.1-17 1.3-1.9 1.7-5.7 3.6-6.8 4.3-2.5 10.8.7 15.4.8s8.9 3.5 11.6 7.2c2.9 3.9 4.5 8.6 6 13.3 2.4 6.9 4.2 14 5.3 21.2.2 1.1.3 2.2.4 3.3 1 10.3-.5 20.6-.5 30.9v.1c-.1 13.1 2 26.1 2.4 39.2.2 2.4.1 5-1.4 6.8z"/><path class="st2" d="M933.8 537.3c-3.5-.9-6.6-3.1-9.3-5.5-2.3-2.1-4.4-4.4-6.1-7-2.2-3.5-4-7.2-5.3-11.2-3.7-10.4-6.1-21.3-7-32.3-.3-3-.3-6.2 1.5-8.6 2.1-2.7 5.7-3.5 8.7-2.1 2.4 1.2 3.9 3.5 5.3 5.7 2.8 4.4 5.7 8.9 7.5 13.8.8 2.2 1.4 4.4 2.2 6.6.8 2.2 1.7 4.3 2.7 6.3.2 1.1.3 2.2.4 3.3.9 10.4-.5 20.7-.6 31z"/><path class="st14" d="M907.6 470.9c-1.8 2.4-1.7 5.6-1.5 8.6.9 11 3.3 21.9 7 32.3 1.3 3.9 3.1 7.7 5.3 11.2 1.8 2.6 3.8 4.9 6.1 7 3.4 3.1 7.5 5.9 12.2 5.9 2.6-.1 5.1-.7 7.6-1.7l37.5-12.7c.4-2.2-1.1-4.6-1.8-6.7l-2-5.9c-.6-1.6-1.2-3.4-2.7-4.3s-3.8.3-5.1 1.3-2.2 2.3-3.4 3.3c-2.3 1.9-5.4 2.6-8.3 3.3l-8.4 1.9c-3.1.8-6.2 1.2-9.4 1.2-2.3-7.2-6.8-13.5-9.3-20.6-.8-2.2-1.4-4.4-2.2-6.6-1.8-4.9-4.6-9.4-7.5-13.8-1.4-2.2-2.9-4.6-5.3-5.7-3.1-1.5-6.7-.7-8.8 2z"/><path class="st12" d="M913.8 442.4c.1-1.2.5-2.3 1.1-3.3.6-1 1.8-1.6 3-1.3 1.8.5 2.3 3.3 4.2 3.4 1.2.1 2.1-1.2 2.5-2.4s.6-2.5 1.5-3.4c.6-.5 1.4-.8 2.2-1 4.3-1.4 8.7-3.9 10.1-8.1.3-.9.4-1.8.2-2.7-.7-2.7-4-3.5-6.5-4.5s-5-2.6-7.5-3.9-5.4-2.2-8.2-1.5c-1.4.4-2.8 1-4.1 1.5-4.1 1.4-9.2.8-12.4 3.8-1.4 1.5-2.4 3.3-3 5.3-2.3 6.2-3.7 13.6 0 19.1 2.3 3.4 4.5 7.2 8.9 7.6 5.2.4 7.2-4.3 8-8.6z"/><path d="M921.6 436.6c.4-1.2.6-2.5 1.5-3.4.6-.5 1.4-.8 2.2-1 4.3-1.4 8.7-3.8 10.1-8.1.3-.9.4-1.8.2-2.7-.1-.4-.3-.8-.5-1.2 1.6.7 3 1.6 3.5 3.3.2.9.1 1.8-.2 2.7-1.4 4.3-5.8 6.8-10.1 8.1-.8.2-1.5.5-2.2 1-.9.8-1.1 2.2-1.5 3.4s-1.3 2.5-2.5 2.4-1.8-1.2-2.6-2.1c1-.2 1.8-1.3 2.1-2.4zm-18.7 12.2c5.1.5 7.2-4.2 8-8.5.1-1.2.5-2.3 1.1-3.3.6-1 1.8-1.6 3-1.3 1 .3 1.6 1.2 2.2 2-.9.1-1.8.6-2.3 1.4-.6 1-.9 2.1-1.1 3.3-.8 4.3-2.8 9-8 8.5-2-.2-3.9-1.2-5.3-2.7.8.2 1.6.5 2.4.6z" opacity=".1"/><path class="st13" d="M170.8 650.3l19.1-11.3c-2.6-4.4-5.9-8.4-9.8-11.7L144 638.6l28.3-16.6c-22.3-12.2-50.2-4-62.4 18.2-3.7 6.8-5.7 14.4-5.7 22.1 0 25.4 20.6 26.3 46 26.3s46-.9 46-26.3c0-6.4-1.4-12.8-4-18.7l-21.4 6.7z"/><path class="st2" d="M175.6 675c-2-2-4.3-3.8-6.8-5.3-3.5-2.3-7.1-4.7-11.2-5.5-3.6-.7-7.3-.1-11-.3-6.4-.4-12.4-3.1-16.8-7.7-2.6-2.7-4.7-6-7.8-8.1-3.4-2.2-7.7-2.7-11.7-2.2-1.2.2-2.3.4-3.5.7-1.8 5-2.7 10.3-2.7 15.6 0 25.4 20.6 26.3 46 26.3 12.3 0 23.5-.2 31.8-3.3l-1.4-2.6c-1.2-2.7-2.9-5.3-4.9-7.6z"/><path class="st13" d="M584 714.6l-25.4-14.9c3.4-5.9 7.8-11.1 13-15.5l47.9 14.9-37.6-22.1c29.5-16.2 66.6-5.4 82.8 24.2 4.9 9 7.5 19.1 7.5 29.3 0 33.7-27.3 34.9-61 34.9s-61-1.2-61-34.9c0-8.5 1.8-17 5.2-24.8l28.6 8.9z"/><path class="st2" d="M577.5 747.3c2.7-2.7 5.7-5.1 9-7.1 4.6-3.1 9.4-6.2 14.8-7.2 4.8-.9 9.7-.1 14.5-.4 8.4-.5 16.4-4.2 22.3-10.2 3.5-3.6 6.2-8 10.4-10.7 4.5-3 10.2-3.6 15.5-2.8 1.6.2 3.1.5 4.6.9 2.4 6.6 3.6 13.6 3.6 20.7 0 33.7-27.3 34.9-61 34.9-16.3 0-31.2-.3-42.2-4.4l1.8-3.4c2-3.7 4-7.3 6.7-10.3z"/><g id="layer1" transform="translate(270.931 -206.068)"><g id="g394" transform="translate(-270.667 206.333) scale(.26458)"><radialGradient id="path380_1_" cx="1610.398" cy="1226.233" r="101.966" gradientUnits="userSpaceOnUse"><stop offset="0" stop-color="#00f906"/><stop offset="1" stop-color="#6ff772"/></radialGradient><path id="path380" d="M1331.6 1177.6l276.1-116.4 267.6 119.4-268-422.6-275.7 419.6zm.8 129.1l275.7 159.7 281.2-159.7-278.6 387.8-278.3-387.8z" fill-rule="evenodd" clip-rule="evenodd" fill="url(#path380_1_)"/><radialGradient id="path382_1_" cx="1604.877" cy="1258.513" r="59.188" gradientUnits="userSpaceOnUse"><stop offset="0" stop-color="#00f906"/><stop offset="1" stop-color="#6ff772"/></radialGradient><path id="path382" d="M1608.9 1118.1l-287.6 121.1 287.6 159.7 279.5-156.3-279.5-124.5z" fill-rule="evenodd" clip-rule="evenodd" fill="url(#path382_1_)"/></g></g></svg>