<svg version="1.1" id="b847c0d8-de26-4ae3-b269-ef35a8ef771f" xmlns="http://www.w3.org/2000/svg" x="0" y="0" viewBox="0 0 1130 831.6" xml:space="preserve"><style>.st0{fill:#d0d2d5}.st1{opacity:.1;enable-background:new}.st2{fill:#444053}.st3{fill:#3a9b3c}.st7{fill:#a26565}.st9{fill:#efb7b9}.st14{fill:#004fac}.st16{fill:#ffeb99}</style><path class="st0" d="M664.2 755.9l-195-2.5.6-5 9.4-82.5h171.2l12.6 82.5 1 6.2z"/><path class="st1" d="M664 754.6h-97.3l-97.5-1.2.6-5H663z"/><path class="st0" d="M436.7 749.6h258.8v6.3H436.7z"/><path class="st2" d="M942.3 170.4c0-9-7.2-16.3-16.2-16.4H203.5c-9 0-16.2 7.4-16.2 16.3v438h755V170.4z"/><path class="st0" d="M187.3 604v51.3c0 8.9 7.3 16.2 16.2 16.2h722.6c8.9 0 16.2-7.3 16.2-16.2V604h-755z"/><path class="st3" d="M568.5 652.1c5.2 0 10.1-2.4 13.3-6.4.5-.6.9-1.3 1.3-1.9l-9.3-1.5 10 .1c1.9-4.2 2.1-9.1.3-13.4l-13.4 7 12.4-9.1c-4.7-8-15-10.8-23.1-6.1s-10.8 15-6.1 23.1c.4.7.8 1.3 1.3 1.9 3.3 3.9 8.2 6.3 13.3 6.3z"/><path class="st1" d="M585.4 671.5l77.8 78.1-11.9-78.1z"/><path class="st2" d="M569.5 492.9v18c0 .3-.2.5-.5.5h-2c-.3 0-.5-.2-.5-.5v-7.5l-8.3 7.7c-.6.5-1.4.4-1.9-.2-.2-.2-.3-.5-.3-.8v-16.4c0-.8.7-1.3 1.4-1.3.3 0 .6.1.8.3l8.3 7.7V493c0-.3.2-.5.5-.5h2c.3 0 .5.2.5.4z"/><ellipse cx="290" cy="810.6" rx="99" ry="21" opacity=".1" fill="#376844"/><linearGradient id="SVGID_1_" gradientUnits="userSpaceOnUse" x1="321.646" y1="-25.146" x2="321.646" y2="384.822" gradientTransform="matrix(1 0 0 -1 -35 797.78)"><stop offset="0" stop-color="gray" stop-opacity=".25"/><stop offset=".54" stop-color="gray" stop-opacity=".12"/><stop offset="1" stop-color="gray" stop-opacity=".1"/></linearGradient><path d="M323.1 808.1c-2-.7-4.1-.6-6.2-.8-4.3-.5-8.4-2.5-11.5-5.6-2-2-3.5-4.4-4.6-7 .7.2 1.3.5 2 .8-2-4.7.1-9.9 1.9-14.6 3.1-8 6.1-16 8.9-24.1 7-20.5 13-41.8 12.9-63.6 0-7.9-1.5-15.3-1.7-23.2-.2-5.8.7-11.7.6-17.5 0-.8 0-1.6-.1-2.5 3.6-3.2 5.6-7.9 5.3-12.7-.1-1.2-.3-2.5-.5-3.7-.4-2.1-.8-4.2-1.4-6.3-.7-2.2-1.6-4.3-2.3-6.4-1.5-4.1-2.5-8.4-3.8-12.6.5 0 .9.2 1.4.4-.3-.4-.5-.8-.6-1.3-.7-2.7-1.1-5.4-1.2-8.2l.9-.4c.4-2.7.2-5.4-.4-8.1.5-4.3 1.2-8.6 1.7-12.9.2-1.6.1-3.6-1.4-4-.3-2.3-.4-4.6-.5-6.9-.4-8.1-.8-16.1-1.3-24.2-.4-8.1-.8-16.2-1-24.3-.1-5.1-.2-10.5-1.4-15.4.2-2.4 0-4.7-.7-7-1.9-5.9-7.6-10.6-13.5-10.2-1.7-2.5-3.9-4.7-6.4-6.5 1.2-2.6 2.6-5.3 3.7-7.4 9.4-3 16.2-12.3 16.2-23.3 0-4-.9-8-2.8-11.6.2-.4.3-.9.4-1.4.5-2.2.3-4.4-.5-6.5-.3-.8-.6-1.6-1-2.3-.3-.5-.5-1-.8-1.5l-.5-.8c-.3-.5-.6-.9-1-1.4-.7-1-1.5-1.9-2.3-2.7-1-1.1-2.1-2.1-3.3-2.9-1.6-1.2-3.4-2-5.4-2.5-1.1-.2-2.3-.3-3.4-.3-.7 0-1.4 0-2.1.1-1.4.1-2.8.2-4.2.2-.5 0-.9 0-1.4-.1-2.4-.3-4.9-.8-7.2-1.5l-1.2-.3c-.4-.1-.8-.1-1.2-.2-1.1-.1-2.2-.2-3.3-.2h-1.1l-3.3.3-1.1.2c-2.8.4-5.5 1.2-8 2.4-.3.1-.7.3-1 .5l-.2.1c-.3.1-.5.3-.8.5l-.1.1-.9.5h-.1c-7.9 5.3-12.6 15.5-13.8 25.5-1.3 11.3 1 22.6 3.3 33.7l2.1 10c.1.5.2.9.3 1.3-3 2.4-5.2 5.6-6.6 9.1-2 5-2 10.4-1.9 15.8 0 1.1.1 2.2.2 3.3-.3 2.1-.5 4.2-.6 6.3-.6 9.7.5 19.5.2 29.2-.2 7.5-1.4 15-.8 22.4.5 6.6 2.3 13 4 19.4l2.5 9.1c.1.5.3.9.6 1.3.4.3.9.4 1.4.3-1.6 3.7-3 7.6-4.1 11.5-.8 2.4-1.2 4.9-1.5 7.4-.3 4.6.7 9.1 1.8 13.6l4.8 20.1c1.1 4.7 2.2 9.4 3.4 14.1 2.2 9.3 4.4 18.6 4.8 28.1.2 4.8-.1 9.6-1 14.3-2.9 14.1-3.3 28.6-1.2 42.8 1.7 12 4.4 23.9 8.1 35.4.8-.4 1.6-.8 2.5-1.2l-.4.7c-1.2 2-2.2 4.1-3.2 6.2-.7 1.4-1.2 2.8-1.7 4.2-1.3 4-1.5 8.3-1.7 12.5-.1.8 0 1.6.2 2.4.5 1.5 2.1 2.3 3.6 2.7 4.3 1.2 8.8.8 13.3.2 0 .1.1.2.1.3.5 1.5 2.1 2.3 3.6 2.7 6.2 1.8 12.7.1 19.1-.5s12.6-.2 18.8-1.6c.9-.2 1.8-.5 2.6-1 1.6-1.1 2.7-2.7 3.3-4.5.2-.5.3-1 .4-1.5.2-2.1-1.7-4.1-3.7-4.8zM302 715.5c-.3 2.3-1 4.6-2 6.8-4.8 10.2-8.3 21-10.3 32.2-1.3 7.3-2.1 14.8-2.3 22.3-.1 5.5.1 11.3-2.2 16.2l.8-.1c-.3.5-.5 1-.8 1.4l-.1.2c-1.4-2.4-2.3-5-2.7-7.7 0-.1-.5-.2-1.1-.2-2.8-15.8-3.8-31.9-2.9-47.9 0-1.9.3-3.9.8-5.8.5-1.6 1.4-3.1 2-4.6 1-2.6 1.7-5.4 2-8.1 1.1-7.1 1.5-14.3 1.3-21.5-.2-6.8 1.3-13.5 2.7-20.3.6-3.2 1.2-6.4 1.5-9.7l.1-.7c5.9 9.8 10.1 20.6 12.3 31.9 1.2 5.1 1.5 10.4.9 15.6zM259.2 571l.3.3c1 .9 1.9 1.8 2.7 2.8.4.4.7 1 .8 1.5.3 1.5-.9 2.7-1.9 3.8l-1.2 1.5c-.2-3.3-.4-6.6-.7-9.9z" fill="url(#SVGID_1_)"/><path d="M245.4 508.3l-1.1 8.5c-.4 2.9-.7 5.8-.9 8.6-.7 9.6.6 19.3.3 28.9-.3 7.4-1.4 14.8-.9 22.2.5 6.5 2.4 12.9 4.2 19.2l2.6 9c.1.5.3.9.7 1.2.5.3 1.1.4 1.7.3l11.7-1.1c-.8-3.4-1.6-7-2-10.5-.3-2.8-.5-5.5-.7-8.3-.6-8.7-1.3-17.3-2-26l-1.3-15.2c-.5-6.6-1.1-13.2-2.7-19.6-1.7-6.4-5-12.4-9.6-17.2z" fill="#6b3862"/><path class="st3" d="M245.4 508.3l-1.1 8.5c-.4 2.9-.7 5.8-.9 8.6-.7 9.6.6 19.3.3 28.9-.3 7.4-1.4 14.8-.9 22.2.5 6.5 2.4 12.9 4.2 19.2l2.6 9c.1.5.3.9.7 1.2.5.3 1.1.4 1.7.3l11.7-1.1c-.8-3.4-1.6-7-2-10.5-.3-2.8-.5-5.5-.7-8.3-.6-8.7-1.3-17.3-2-26l-1.3-15.2c-.5-6.6-1.1-13.2-2.7-19.6-1.7-6.4-5-12.4-9.6-17.2z"/><path class="st7" d="M266.2 797.3c-.7 1.4-1.3 2.7-1.8 4.2-1.3 3.9-1.5 8.2-1.7 12.4-.1.8 0 1.6.2 2.4.6 1.5 2.2 2.3 3.8 2.7 6.5 1.8 13.3.1 20-.5s13.3-.2 19.7-1.6c1-.2 1.9-.5 2.7-.9 1.6-1.1 2.8-2.6 3.5-4.5.2-.5.3-1 .4-1.5.2-2.2-1.7-4.1-3.8-4.8-2.1-.7-4.4-.6-6.5-.8-9.3-.9-16.8-8-18.2-17.2-.1-.5-10.8-.2-12 .4-1.3.7-2.1 2.5-2.9 3.8-1.2 1.8-2.3 3.9-3.4 5.9z"/><path class="st1" d="M266.2 797.3c-.7 1.4-1.3 2.7-1.8 4.2-1.3 3.9-1.5 8.2-1.7 12.4-.1.8 0 1.6.2 2.4.6 1.5 2.2 2.3 3.8 2.7 6.5 1.8 13.3.1 20-.5s13.3-.2 19.7-1.6c1-.2 1.9-.5 2.7-.9 1.6-1.1 2.8-2.6 3.5-4.5.2-.5.3-1 .4-1.5.2-2.2-1.7-4.1-3.8-4.8-2.1-.7-4.4-.6-6.5-.8-9.3-.9-16.8-8-18.2-17.2-.1-.5-10.8-.2-12 .4-1.3.7-2.1 2.5-2.9 3.8-1.2 1.8-2.3 3.9-3.4 5.9z"/><path class="st7" d="M284.1 800.5c-.7 1.3-1.3 2.7-1.8 4.2-1.4 4-1.5 8.2-1.7 12.4-.1.8 0 1.6.2 2.4.6 1.5 2.2 2.3 3.8 2.7 6.5 1.7 13.3.1 20-.5s13.3-.2 19.7-1.6c1-.2 1.9-.5 2.7-1 1.6-1.1 2.9-2.6 3.5-4.5.2-.5.3-1 .4-1.5.2-2.2-1.7-4.1-3.8-4.8-2.1-.7-4.4-.6-6.5-.8-9.3-1-16.7-8-18.2-17.2-.1-.5-10.8-.2-12 .4-1.3.7-2.1 2.5-2.9 3.8-1.3 1.9-2.4 3.9-3.4 6z"/><path d="M330.6 694.3c.1 21.6-6.1 42.7-13.5 63-2.9 8-6 16-9.3 23.9-1.9 4.7-4.1 9.9-2 14.5-6-2.3-12.1-3.6-18.4-2.6 2.4-4.9 2.2-10.6 2.3-16 .2-7.4 1-14.8 2.4-22.1 2.1-11.1 5.7-21.8 10.8-31.9 1-2.1 1.7-4.4 2.1-6.7.8-5.1.2-10.4-.9-15.5-2.3-11.2-6.7-22-12.9-31.6l-.2.7c-.4 3.2-.9 6.4-1.6 9.6-1.4 6.7-3.1 13.4-2.8 20.1.3 7.1-.2 14.3-1.3 21.3-.4 2.8-1.1 5.5-2.1 8.1-.7 1.5-1.6 3-2.1 4.6-.5 1.9-.8 3.8-.8 5.7-.8 16.3 0 32.8 3.3 48.7-5.6-.4-11.1 1.2-16.1 3.7-3.9-11.4-6.7-23.2-8.5-35.1-2.2-14.1-1.7-28.5 1.3-42.5.9-4.7 1.3-9.4 1-14.2-.4-9.4-2.8-18.7-5.1-27.9l-3.5-14c-1.7-6.7-3.3-13.3-5-19.9-1.1-4.4-2.2-8.9-1.9-13.5.2-2.5.8-4.9 1.6-7.3 2.5-8.1 6.2-15.7 11.1-22.6 19.3 1.1 38.8-.7 58-2.2.9-.2 1.9 0 2.7.5.7.7 1 1.5 1.1 2.5l7.2 41c1.2 5.7 1.9 11.5 2 17.3 0 5.8-.9 11.6-.7 17.4.3 7.8 1.8 15.2 1.8 23z" fill="#454b69"/><path class="st1" d="M291 670c-.4 3.2-.9 6.4-1.6 9.6-4.2-7.3-8.7-14.3-12.6-21.8-1-1.9-1.9-3.8-2.9-5.8l-2.9-5.8c-.5-1.1-1.1-2.2-1.5-3.3-.8-1.6-1.4-3.3-1.8-5 1.4-.3 4.9 3.5 5.9 4.5 2.1 2.1 4.1 4.3 6 6.6 2.3 2.6 4.4 5.3 6.3 8.2 2.5 4 4.2 8.3 5.1 12.8z"/><path class="st9" d="M307.1 471.1s-10.7 17-8.7 20.6-33.7-3.2-33.7-3.2 19.4-17 17.4-24.2 25 6.8 25 6.8z"/><circle class="st9" cx="297.6" cy="452" r="24.2"/><path d="M307.5 489c-2.6-3.6-6.1-6.4-10.2-8.2-2.3-.8-4.8-1.4-7.2-1.8l-9.6-1.7c-2.4-.4-4.9-.8-7.1.2-1.1.6-2.1 1.3-3 2.2-3.4 3.1-6.6 6.5-10.8 8.3-1.1.5-2.4.8-3.5 1.3-4.7 2-8.2 6.3-10.2 11-2.1 4.9-2.2 10.3-2 15.7 0 1.9.2 3.7.5 5.5.5 1.7 1.1 3.4 1.8 5.1 1.3 3.5 2.4 7.1 3.3 10.7 2.5 9.6 4.6 19.2 6.2 29 .1 1.4.6 2.8 1.2 4 .9 1.2 2.1 2.3 3.3 3.2 1 .8 1.9 1.8 2.8 2.8.4.4.7.9.9 1.5.3 1.4-1 2.7-2 3.7-2.2 2.2-3.7 4.9-4.5 7.9-.5.6-.8 1.4-.7 2.2.2.5.3 1.1.2 1.7-.2.5-.5 1-.9 1.4-.9 1.2-1.3 2.8-1 4.3 7.5 3.3 15.5 5.1 23.7 5.5 2 .1 4 .1 6 .3 1.4.2 2.8.5 4.2.6 2.1.2 4.1.2 6.2.2 10.8-.2 21.9-.5 31.7-4.8.9-5.1-1.1-10.2-2.3-15.2-2-8-2.5-16.2-4-24.3-1-5.5-2.5-10.9-3.4-16.5-.9-5.5-1-11.3.5-16.7 1.4-4.8 1.8-9.7 3.2-14.4 1.4-4.8 2.4-9.9.8-14.7-1.9-5.7-8-10.4-14.1-10z" fill="#49bf51"/><path class="st7" d="M319.3 439.2c1.2-4.3-1.1-8.8-3.9-12.3-3-3.8-6.8-7.1-11.5-8.1-3.8-.8-7.8.2-11.6-.1-3.4-.3-6.7-1.5-10.1-2-3.1-.3-6.2-.2-9.3.4-2.9.4-5.7 1.2-8.5 2.4-10.3 4.6-16.3 15.8-17.7 27s1 22.4 3.5 33.4l2.2 9.9c2.3 10.3 4.6 20.7 5.2 31.3.6 10.6-.5 21.4-4.9 31.1 14.1-7.6 25-19.9 30.7-34.8 1.6-4.1 2.7-8.3 4.5-12.4 1.5-3.5 3.4-6.7 4.7-10.3 1.5-4 2.2-8.2 2.1-12.5-.1-3.2-.6-6.4-.5-9.6s.9-6.5 3.1-8.9c2-2 4.8-3 7.3-4.3 4-2 7.5-4.9 10.2-8.5 1.6-2.1 1.7-3 2.1-5.4s1.8-4 2.4-6.3z"/><path class="st9" d="M319.4 620.9c.3 2.5-.2 5 .3 7.5.4 1.8 1.4 3.5 1.9 5.3.6 2.1.8 4.2.9 6.4.1 1.8-.1 4-1.7 4.8-.7.4-1.5.4-2.3.7-.7.3-1.4 1.2-.9 1.9.4.7 1.1.6 1.8.7s1.4.8 1 1.4c-.2.2-.4.3-.6.4-.7.2-1.3.5-1.9.9-.6.4-.9 1.1-.8 1.8.1.6.8 1 1.4.8.1 0 .2-.1.2-.1-.3.6-.5 1.3-.5 2 2.6 1.1 5.4-.3 7.8-1.7 1-.6 2-1.2 3-1.9 3.9-3 6.1-7.8 5.8-12.8-.1-1.2-.3-2.4-.6-3.7-.4-2.1-.9-4.2-1.5-6.2-.7-2.2-1.6-4.2-2.4-6.3-1.7-4.5-2.8-9.2-4.4-13.7-.1-.5-.4-.9-.8-1.2-.3-.2-.7-.2-1.1-.2-1.8-.1-3.5.1-5.2.5-1 .3-2.7 1-3.2 2s.3 1.8.7 2.7c1.7 2.4 2.7 5.2 3.1 8z"/><path class="st1" d="M317.7 499.4c.5.5.9 1.1 1.3 1.8 3.4 6.3 3.5 13.7 3.6 20.9.2 8 .6 16 1.1 24l1.3 24c.1 2.3.3 4.6.6 6.8 1.5.4 1.6 2.4 1.4 4-1.1 9.8-3.9 19.8-1 29.3.1.5.3.9.7 1.3-1.5-.5-3-.5-4.5-.1-1.4.3-2.8.8-4.3 1.2-1.8.4-3.9.6-5.1 2-1.4-4.2-2.5-8.5-3.4-12.9-.7-4-.9-8.1-2.5-11.8-.6-1.5-1.5-2.9-2.3-4.3-4.2-7.5-6.3-15.9-8.3-24.3-.9-4-1.1-8-.6-12.1.3-1.8.5-3.7.5-5.6-.1-2-.4-3.9-.8-5.8-.8-5.7-.5-11.4 1.2-16.9 1.5-5.1 2.8-10.4 6-14.7s9.8-6.7 15.1-6.8z"/><path d="M318.9 498.6c.5.5.9 1.1 1.3 1.8 3.4 6.2 3.5 13.7 3.6 20.9.2 8 .6 16 1.1 24l1.3 24c.1 2.3.3 4.6.6 6.8 1.5.4 1.6 2.4 1.4 4-1.1 9.8-3.9 19.8-1 29.3.1.5.3.9.7 1.3-1.5-.5-3-.5-4.5-.1-1.4.3-2.8.8-4.3 1.2-1.8.4-3.9.6-5.1 2-1.4-4.2-2.5-8.6-3.3-13-.7-4-.9-8.1-2.5-11.8-.7-1.5-1.5-2.9-2.3-4.3-4.2-7.5-6.3-15.9-8.3-24.3-.9-4-1.1-8-.6-12.1.8-3.8.7-7.7-.3-11.4-.8-5.7-.5-11.4 1.2-16.9 1.5-5.1 2.8-10.4 6-14.7s9.7-6.6 15-6.7z" fill="#56ed67"/><path d="M315.4 427c-3-3.8-6.8-7.1-11.5-8.1-3.8-.8-7.8.2-11.6-.1-3.4-.3-6.7-1.5-10.1-2-3.1-.3-6.2-.2-9.3.4-2.9.4-5.7 1.2-8.5 2.4-1.5.7-2.9 1.4-4.2 2.4 2.4-.9 4.9-1.6 7.5-2 3.1-.6 6.2-.7 9.3-.4 3.4.4 6.7 1.7 10.1 1.9 3.9.3 7.8-.6 11.6.1 4.7.9 8.5 4.3 11.5 8.1 2.8 3.5 5.1 8 3.9 12.3-.6 2.3-2.1 4.2-2.5 6.6s-.5 3.3-2.1 5.4c-2.1 2.7-4.5 5-7.3 6.8.8-.4 1.6-.7 2.3-1.1 4-2 7.5-4.9 10.2-8.5 1.6-2.1 1.7-3 2.1-5.4s1.8-4.3 2.5-6.6c1.2-4.3-1.1-8.7-3.9-12.2zm-18.1 37c.4-.4.9-.8 1.4-1.2-2.3 1.1-4.7 2.1-6.5 4-2.2 2.3-3 5.6-3.1 8.9s.5 6.4.5 9.6c.1 4.3-.6 8.5-2.1 12.5-1.3 3.5-3.2 6.8-4.7 10.3-1.7 4-2.9 8.3-4.5 12.3-5 12.9-13.9 24-25.4 31.6-.1.1-.1.3-.2.4 14.1-7.6 25-19.9 30.7-34.8 1.6-4.1 2.7-8.3 4.5-12.4 1.5-3.5 3.4-6.7 4.7-10.3 1.5-4 2.2-8.2 2.1-12.5-.1-3.2-.6-6.4-.5-9.6s.9-6.5 3.1-8.8z" opacity=".1"/><path d="M260.2 192.9c-2.3-3.9-5.4-7.1-9.3-9.3-3.9-2.3-8.2-3.4-12.9-3.4-4.7 0-9 1.1-12.9 3.4-3.9 2.3-7.1 5.4-9.3 9.3-2.3 3.9-3.4 8.2-3.4 12.9 0 5.6 1.6 10.6 4.9 15.1 3.3 4.5 7.5 7.6 12.7 9.3.6.1 1 0 1.3-.2.3-.3.4-.6.4-1v-4.8l-.8.1c-.5.1-1.1.1-1.9.1-.7 0-1.5-.1-2.3-.2-.8-.1-1.5-.5-2.2-1-.7-.5-1.2-1.2-1.5-2.1l-.3-.8c-.2-.5-.6-1.1-1.1-1.7-.5-.6-1-1-1.5-1.3l-.2-.2c-.2-.1-.3-.2-.4-.4-.1-.2-.2-.3-.3-.5-.1-.2 0-.3.2-.4.2-.1.5-.1 1-.1l.7.1c.4.1 1 .4 1.7.8s1.2 1 1.6 1.7c.5.9 1.1 1.6 1.9 2.1.7.5 1.5.7 2.2.7s1.4-.1 1.9-.2 1-.3 1.5-.5c.2-1.5.7-2.6 1.6-3.4-1.3-.1-2.4-.3-3.4-.6s-2.1-.7-3.1-1.3c-1.1-.6-2-1.3-2.7-2.2-.7-.9-1.3-2.1-1.8-3.5s-.7-3.1-.7-5c0-2.7.9-5 2.6-6.9-.8-2-.7-4.3.2-6.8.6-.2 1.6-.1 2.9.5 1.3.5 2.2.9 2.8 1.3.6.4 1.1.7 1.4.9 2.1-.6 4.2-.9 6.4-.9s4.3.3 6.4.9l1.3-.8c.9-.5 1.9-1 3.1-1.5 1.2-.4 2.1-.6 2.7-.4 1 2.5 1.1 4.8.3 6.8 1.8 1.9 2.6 4.2 2.6 6.9 0 1.9-.2 3.6-.7 5-.5 1.5-1 2.6-1.8 3.5-.7.9-1.6 1.6-2.7 2.2-1.1.6-2.1 1-3.1 1.3-1 .3-2.2.5-3.4.6 1.2 1 1.7 2.6 1.7 4.7v7.1c0 .4.1.7.4 1 .3.3.7.3 1.3.2 5.2-1.7 9.4-4.8 12.7-9.3 3.3-4.5 4.9-9.5 4.9-15.1-.2-4.4-1.3-8.7-3.6-12.7z" fill="#fff"/><path class="st14" d="M641.4 230.2c0-6.4-5.2-11.7-11.7-11.7H501.6c-6.4 0-11.6 5.2-11.6 11.7v11.6h151.5v-11.6z"/><path d="M489.9 241.9v93.2c0 6.4 5.2 11.6 11.6 11.6h128.1c6.4 0 11.7-5.2 11.7-11.6v-93.2H489.9z" fill="#ffdaaa"/><path class="st16" d="M396.7 451.6v93.2c0 6.4 5.2 11.7 11.6 11.7h128.1c6.4 0 11.7-5.2 11.7-11.7v-93.2H396.7z"/><path class="st14" d="M396.7 439.9v11.7h151.5v-11.7c0-6.4-5.2-11.6-11.7-11.6H408.4c-6.4 0-11.7 5.2-11.7 11.6zm332.1-11.6H600.6c-6.4 0-11.7 5.2-11.7 11.6v11.7h151.5v-11.7c0-6.4-5.2-11.6-11.6-11.6z"/><path class="st16" d="M589 451.6v93.2c0 6.4 5.2 11.7 11.7 11.7h128.2c6.4 0 11.6-5.2 11.6-11.7v-93.2H589z"/><path d="M489.9 276.8v58.3c0 6.4 5.2 11.6 11.6 11.6h69.9c-45 0-81.5-31.2-81.5-69.9z" fill="#ffc477"/><path d="M589 486.5v58.3c0 6.4 5.2 11.7 11.7 11.7h69.9c-45.2-.1-81.6-31.3-81.6-70zm-192.3 0v58.3c0 6.4 5.2 11.7 11.6 11.7h69.9c-45-.1-81.5-31.3-81.5-70z" fill="#ffde55"/><path d="M728.8 422.5h-52.4v-23.3c0-9.7-7.8-17.5-17.5-17.5h-87.4v-29.1h58.3c9.7 0 17.5-7.8 17.5-17.5V230.2c0-9.7-7.8-17.5-17.5-17.5H501.6c-9.7 0-17.5 7.8-17.5 17.5v104.9c0 9.7 7.8 17.5 17.5 17.5h58.2v29.1h-75.7c-9.7 0-17.5 7.8-17.5 17.5v23.3h-58.3c-9.7 0-17.5 7.8-17.5 17.5v104.9c0 9.7 7.8 17.5 17.5 17.5h128.1c9.7 0 17.5-7.8 17.5-17.5v-105c0-9.7-7.8-17.5-17.5-17.5h-58.3v-23.3c0-3.2 2.6-5.8 5.8-5.8h174.8c3.2 0 5.8 2.6 5.8 5.8v23.3h-64.1c-9.7 0-17.5 7.8-17.5 17.5v104.9c0 9.7 7.8 17.5 17.5 17.5h128.2c9.7 0 17.5-7.8 17.5-17.5V439.9c.1-9.6-7.7-17.4-17.3-17.4zM501.6 224.4h128.1c3.2 0 5.8 2.6 5.8 5.8v5.8H495.8v-5.8c0-3.2 2.6-5.8 5.8-5.8zm-5.8 110.7v-87.4h139.8v87.4c0 3.2-2.6 5.8-5.8 5.8H501.6c-3.2 0-5.8-2.6-5.8-5.8zm40.7 215.5H408.4c-3.2 0-5.8-2.6-5.8-5.8v-87.4h139.8v87.4c0 3.2-2.6 5.8-5.9 5.8zm5.9-110.7v5.8H402.6v-5.8c0-3.2 2.6-5.8 5.8-5.8h128.1c3.3 0 5.9 2.6 5.9 5.8zm58.2-5.8h128.2c3.2 0 5.8 2.6 5.8 5.8v5.8H594.8v-5.8c0-3.2 2.6-5.8 5.8-5.8zm128.2 116.5H600.6c-3.2 0-5.8-2.6-5.8-5.8v-87.4h139.8v87.4c0 3.2-2.6 5.8-5.8 5.8z"/><path d="M645.5 482.4c-2.3-2.3-6-2.3-8.2 0l-17.5 17.5c-2.3 2.3-2.3 6 0 8.2l17.5 17.5c2.3 2.2 6 2.2 8.2-.1 2.2-2.3 2.2-5.8 0-8.1L632.1 504l13.4-13.4c2.3-2.2 2.3-5.9 0-8.2zm46.6 0c-2.3-2.2-6-2.2-8.2.1-2.2 2.3-2.2 5.8 0 8.1l13.4 13.4-13.4 13.4c-2.3 2.2-2.4 5.9-.1 8.2 2.2 2.3 5.9 2.4 8.2.1l.1-.1 17.5-17.5c2.3-2.3 2.3-6 0-8.2l-17.5-17.5zm-20.2-7.3c-3.1-.8-6.3 1.1-7.1 4.2l-11.7 46.6c-.8 3.1 1.1 6.3 4.2 7.1.5.1.9.2 1.4.2 2.7 0 5-1.8 5.6-4.4l11.7-46.6c.9-3.2-1-6.4-4.1-7.1zM546.5 272.7c-2.3-2.3-6-2.3-8.2 0l-17.5 17.5c-2.3 2.3-2.3 6 0 8.2l17.5 17.5c2.3 2.2 6 2.2 8.2-.1 2.2-2.3 2.2-5.8 0-8.1l-13.4-13.4 13.4-13.4c2.3-2.2 2.3-5.9 0-8.2zm46.6 0c-2.3-2.2-6-2.2-8.2.1-2.2 2.3-2.2 5.8 0 8.1l13.4 13.4-13.4 13.4c-2.3 2.2-2.4 5.9-.1 8.2 2.2 2.3 5.9 2.4 8.2.1l.1-.1 17.5-17.5c2.3-2.3 2.3-6 0-8.2l-17.5-17.5zm-20.2-7.3c-3.1-.8-6.3 1.1-7.1 4.2l-11.6 46.6c-.8 3.1 1.1 6.3 4.2 7.1.5.1.9.2 1.4.2 2.7 0 5-1.8 5.6-4.4l11.6-46.6c.9-3.2-1-6.4-4.1-7.1zm-119.6 217c-2.3-2.3-6-2.3-8.2 0l-17.5 17.5c-2.3 2.3-2.3 6 0 8.2l17.5 17.5c2.3 2.2 6 2.2 8.2-.1 2.2-2.3 2.2-5.8 0-8.1L439.9 504l13.4-13.4c2.3-2.2 2.3-5.9 0-8.2zm46.6 0c-2.3-2.2-6-2.2-8.2.1-2.2 2.3-2.2 5.8 0 8.1L505 504l-13.4 13.4c-2.3 2.2-2.4 5.9-.1 8.2 2.2 2.3 5.9 2.4 8.2.1l.1-.1 17.5-17.5c2.3-2.3 2.3-6 0-8.2l-17.4-17.5zm-20.2-7.3c-3.1-.8-6.3 1.1-7.1 4.2L461 525.9c-.8 3.1 1.1 6.3 4.2 7.1.5.1.9.2 1.4.2 2.7 0 5-1.8 5.6-4.4l11.6-46.6c.9-3.2-1-6.4-4.1-7.1z"/></svg>